/* XPM */
static char *_c7bbaba062b44cdca2b8b59d74a8a50ApKLJPIH9C8fv3Lw[] = {
/* columns rows colors chars-per-pixel */
"64 64 126 2 ",
"   c #533F35",
".  c #564136",
"X  c #594337",
"o  c #5E4639",
"O  c #5F483B",
"+  c #60473A",
"@  c #644B3D",
"#  c #684E3F",
"$  c #545848",
"%  c #694F40",
"&  c #6D5242",
"*  c #6D554B",
"=  c #6E5B4C",
"-  c #715545",
";  c #755847",
":  c #70574B",
">  c #765A49",
",  c #785B48",
"<  c #6B5751",
"1  c #6F5853",
"2  c #6D5B59",
"3  c #735C54",
"4  c #715D5B",
"5  c #626555",
"6  c #6C6253",
"7  c #6C6B5C",
"8  c #756454",
"9  c #75615D",
"0  c #786158",
"q  c #746B5B",
"w  c #7A6F5F",
"e  c #76705F",
"r  c #6D5D60",
"t  c #715F60",
"y  c #6E6267",
"u  c #6C6D64",
"i  c #6F656C",
"p  c #6D6D6F",
"a  c #736263",
"s  c #776867",
"d  c #7D6965",
"f  c #72666E",
"g  c #73686C",
"h  c #6F7063",
"j  c #6F7069",
"k  c #747464",
"l  c #797363",
"z  c #767867",
"x  c #7B7867",
"c  c #747568",
"v  c #777969",
"b  c #7B7C6B",
"n  c #6F6670",
"m  c #6E6C74",
"M  c #726B75",
"N  c #796E73",
"B  c #716E7C",
"V  c #73717D",
"C  c #7C767E",
"Z  c #807275",
"A  c #817478",
"S  c #7F816F",
"D  c #7E8070",
"F  c #81816F",
"G  c #838572",
"H  c #868975",
"J  c #888B77",
"K  c #8B8E7A",
"L  c #8E917C",
"P  c #91937E",
"I  c #716F81",
"U  c #747385",
"Y  c #7C7780",
"T  c #767887",
"R  c #7D7984",
"E  c #767788",
"W  c #787789",
"Q  c #777889",
"!  c #7A7C8D",
"~  c #7C7F90",
"^  c #817985",
"/  c #807D8D",
"(  c #7E8293",
")  c #7F8394",
"_  c #7F8495",
"`  c #86828E",
"'  c #8A8088",
"]  c #8B828E",
"[  c #8C838E",
"{  c #8E858F",
"}  c #8F9281",
"|  c #939681",
" . c #969983",
".. c #999C86",
"X. c #9B9E8B",
"o. c #808494",
"O. c #838597",
"+. c #818697",
"@. c #8E8895",
"#. c #838798",
"$. c #888698",
"%. c #848899",
"&. c #868A9B",
"*. c #898B9A",
"=. c #888B9C",
"-. c #898D9E",
";. c #8E8D9F",
":. c #9EA18D",
">. c #9FA290",
",. c #A0A38F",
"<. c #A2A592",
"1. c #A7AA97",
"2. c #A7AA98",
"3. c #A9AC9A",
"4. c #8D8FA1",
"5. c #8E90A2",
"6. c #9191A1",
"7. c #9493A5",
"8. c #9394A5",
"9. c #9495A6",
"0. c #9895A5",
"q. c #9797A9",
"w. c #9897A8",
"e. c #9A99AB",
"r. c #9B9AAC",
"t. c #9C9BAD",
/* pixels */
"@ @ @ @ @ @ @ o o o o @ o @ o o o o o o + @ + @ @ @ @ @ o o o o + + + + o o o o o o # + @ @ @ @ @ o o o o o @ o @ o o o o o o @ ",
"o o X .   . . o o @ @ + o X o X X X o o o o o X X   . . X o + @ + o X o o X X o o o @ @ o @ @ o   X o o @ @ o X X o X X X o o @ ",
"@ @ @ o @ o o @ o o + @ o X . . o o o + + @ @ @ o @ o o @ o + o @ & & & - ; ; & & - @ @ @ & & & @ @ o o o @ @ o . . X o o o o @ ",
"@ @ @ @ o + @ @ @ @ @ @ X o # # # # & - - & & & % & # & & & & & & @ @ # % & - - & - & & & & - # @ @ @ @ @ @ o X @ o o o @ @ @ @ ",
"@ @ o o . X o o o . o + % - - - % & & - & - & - - - ; ; ; - & & % % - - - & & & & & - - - - - ; ; ; - & & + @ @ o o o o o + o @ ",
"@ @ @ @ @ o X o O % & - - - - - - ; & & & % - - - & & & - ; & & - - - - - - ; & & & % & - - & & & - ; & & - # @ @ @ @ @ @ @ @ @ ",
". + + + o o @ o @ @ + @ % & & - ; - - - - - & - & & & - & % ; ; - & & & - ; - - - - - & & & & & & - % - @ + @ o o + X . . . . . ",
"@ @ o @ @ @ @ + X # & @ & & & ; - - - - & & & & & & & & - - & & & & & & ; - - - - - & - & & & & & - - & & % @ @ @ @ + o X X X @ ",
"@ @ o X o @ @ & & & % - - - & % % % % & & & % - ; ; - % - - & & - - - - % % % % & & & % - ; ; ; % - - & & - - & + + o o o o @ @ ",
"o o X . X X X . - & - - - - - - - - - - - - - - - - ; & - - & & - - - - - - - - - - - ; - ; - ; - - - & & - ; % @ @ @ @ @ @ @ o ",
"o o . @ @ + # @ & % % % % & % & - ; ; , - & & - - - - - % & % % % % & % & - - ; , - & & - - - - - % & % % % % & % @ @ @ @ @ @ o ",
"@ + o o - - - - - - - - & & & - & & & - - - & 3 0 0 0 0 3 3 3 : - & & & - & & & & - - & - ; ; - - - - - - - & & & # o @ @ @ @ @ ",
"o o @ # - - % % - ; ; & & - - % % ; & & & & 9 C ` @.@.@.@.@.^ f : & - - % @ ; - & & & - ; & & - & % & - ; ; & - - & @ - o o X @ ",
"o & & & - - - ; , ; ; - - - - & & & & & & 4 C *.9.r.r.r.r.e.;./ N a 4 9 t 2 * & & & & & - & & - - ; ; , ; - - - - - & & % @ o o ",
"o o & & % % % - & & - - & % % & & & & % 3 C *.9.r.r.r.r.r.r.e.7.+.Q V B B M 4 : * : * * & - & % % & - & - - - % % & & & & % + @ ",
"o o @ & - - ; & - - & & & & & & & & & 9 C *.9.e.r.r.r.r.r.r.t.q.&.( ! U I B M B Y N n i 1 - - - ; & - - - & & & - & & & & ; @ o ",
"o @ % - ; - - - % % & & - - , , ; & d C +.8.r.r.r.r.r.r.r.r.q.6.&.+.) E I I I E ! Q E E i < , ; - - & % & & & - ; , , ; @ + + o ",
"o @ & & & - & % & & & & - , , ; - 4 ] 6.&.8.r.r.r.r.r.r.r.r.6.&.+.+.( E I I I U E ~ +.+.E i * & - & & & & & & , , , - & & & & @ ",
"@ & & & & % - - - & - & & & & & a [ 0.9.&.8.r.r.r.r.r.r.r.r.5.+.+.#.) E I I I I U ( -.5.+.E f < & - - & - - % & & & & & % + o o ",
"o + @ % - - - & - & - - - & & a ' w.q.5.&.8.r.r.r.r.r.r.e.9.-.+.+.) ! U I I I I U ( =.;.+.Q B 4 - - & & & - - & & & - - % @ @ o ",
"+ @ & & % % & % % % & & & & 9 { 0.e.4.#.#.6.e.r.r.r.r.r.9.=.#.+.+.! U I I I I I E ( ( W U U M 2 & % % % & & & & & ; - - - @ + o ",
"@ @ # & & - - - - - & & & a ] 9.r.e.-.+.+.=.6.e.t.t.r.9.-.#.+.+.+.! I I I I I E ! _ ) ! U m r * - - - - & & & # % % % - & @ @ @ ",
"o o X @ & - ; , & % & - & Z 0.r.e.9.-.+.+.+.&.8.9.9.9.-.+.+.+.+.( Q I I I U E ! +.=.&.+.! B 4 * ; , - % % - & - & - - % % % + @ ",
"@ @ % @ @ & - - - - - & & A 0.r.9.=.#.+.+.+.#.&.&.&.&.#.+.+.+.( E U U U U U ~ +.&.8.5.#.) Q B 2 - - - - - & & - & ; ; ; - & @ @ ",
"@ @ % & - ; - % & & % * g ` w.t.8.#.+.+.+.+.+.+.+.+.+.+.) ! Q E U E ! ! ! ! +.-.6.5.-.+.! E B 9 - % & & & % % % ; - & & - % @ @ ",
"@ % - - - ; ; - & & & * R -.e.t.9.-.&.+.+.+.+.+.+.+.+.+.) Q E E E ! #.&.-.=.#.-.8.=._ ~ E B M 4 ; ; & & - & % & - - & & & @ o @ ",
"@ @ + % & & - ; ; % & 3 Y -.e.r.e.q.-.+.+.+.+.+.+.+.+.+.+.+.+.+.) _ &.8.q.9.&.#.&.+.! U I M 1 & & ; ; & % - - - ; ; - - & @ @ @ ",
"X + + @ + # - & & ; ; : a R 4.q.t.r.9.-.#.+.+.+.+.+.+.+.&.5.8.5.&.+.&.;.5.4.&.+.+.! V y a 4 & & & - % ; ; - & % - - % + O X . . ",
"+ @ @ @ + @ & & & % % & & a ! ;.q.q.e.q.-.=.&.#.+.#.&.=.-.8.q.8.+.( ( ( +.+.) ( ~ V a : & & % % & - - & % % & & & ; @ o . . . o ",
"@ @ o o + @ @ & - - & & & * 9 R &.=.8.e.q.q.6.&.+.&.8.q.8.-.&.+.Q U U U ! ( Q U B a * % - ; ; ; % & - - & & & & & @ + o o o + @ ",
"o X . X @ - & ; ; % - ; ; - - s C Q +.$.$.$.+.! ! ~ +.$.+.! ! T m p p m V Q V i a * & - - - - - - ; ; & & ; ; - - - - % @ @ @ o ",
"o o & & - - & % & % % % & & % & 4 M B B B M B B B B B B B B B M j h h h p M j q 8 , - - - - - - - % & & % % % & % % - % @ @ + o ",
"@ + o & - ; ; - - - - - & & & - * 1 1 3 3 3 2 u u u u u u u u j v b b b c u v b z 8 - & - - - ; ; - - - - - & & & - & & & @ @ @ ",
"+ o @ @ @ - % % - - ; & & & & % % - & & - - = 7 k k 7 h z z z z b G F S h 5 v H G 8 - - ; & & - & % & - ; ; & & & @ o o + + X @ ",
"o @ @ @ & & - - , ; - - - - ; & % % % % % % = 7 b S z v S G G G G S S S 7 $ z K K w & & - & & - - - ; , - - - - @ @ o X X X o o ",
"o o o o o + % - - & - - & % & - - - & % - - 8 v H L K H G L P K G S S S 7 $ z K P F q - - & & % % - - & - - % + @ @ + + @ + @ @ ",
"o o @ @ @ & - & - - - & & & & % % % & - - = x | | | | L K |  .| K G G H b 7 G L P H l & & - - - - & - - - & & @ + . . X X . . o ",
"o @ + o o @ - & % % & & & & ; ; ; & ; & & q K <.:. . . . .| | | | K H P K H L | P H e & % % ; ; - & & % & & & & - - - o o o o o ",
"o X X X & - - & & & % % ; , , ; - & & & - l K <.2.<. .:.<. .| | | P P | P P |  .P H l & & & & - - & & & & % & , , - & & # + + + ",
"@ + @ @ & % & & & & - & & - - - % & & & & q G X.1.1.,.<.2.,...| | | | | |  .| P K b q & & & & % & & & & - - % - - & % @ @ + + + ",
"o @ @ % & ; ; & - % ; ; - % % % - - % % - 6 z P :.1.3.3.3.1.:.| |  . . .| P P K S k 6 - % % & ; ; - & & & ; ; & % % & & # @ + o ",
"o @ @ % & % % # & % - - - - - ; - - & % & & q G | :.2.3.1.:. .| | X.<...L H H G b k 6 - - - % % % % % % & - - - - @ + @ @ + + o ",
"@ @ % % & - ; - - - & % % @ & & & - & & & & = q G | :.<.:. .|  .X.X... .L H G b z 7 = & % % & - ; - - - & % % @ % & @ & @ @ o + ",
"+ @ & & & - ; ; % % & - - & & & & % @ & & - & : w G P | | |  ...>. .H P | L G z 7 = & & & - & & ; ; - % % ; - & & & & @ o o o @ ",
"+ + @ - & & - ; ; - & % & & - - - - & - - & & & > q G H J | :.:.K D G P L G z 7 = - & & & & & % - ; ; - - & % & & - ; , & o o + ",
"@ @ @ & - ; - % & - % % % - ; - & - & - - & & & - > z G J K | } b b J K G z 7 = & - & & & - - ; ; % & - & % % % ; - @ @ @ @ + @ ",
"+ @ @ @ ; - - - & & - & & - - - & & - - - & & & & > 7 G K G v k b H K G z 7 = - - - & & & & ; - - - & & - & & - - @ o o + @ + + ",
"@ @ + - - - - , ; % % & & ; ; - & - % & % % & ; ; & = q v k 7 7 k z v k q = & & & & % % ; ; - - - ; ; & % & & - ; ; & @ @ @ @ @ ",
"o @ @ @ @ + & & & - - - & & - - - ; - & - & - - & & & 6 7 7 u k k k k v l 8 > - & & & - - - & & & - & - - ; - - - & o X X X X X ",
"o @ @ @ + # - & & % % & & & & ; - - - - - - & & % % % 6 7 7 z b S S G K J x > - - - - & & % % % & - & & & % - ; ; - + o . . . o ",
"# & % & ; - & - - - & & & & & & & & & & & & & - - - - 6 u z b G K L K J S k = & & - & & - - - - & & - - , ; , ; - % % o o o + @ ",
"o X . . + + @ , ; % & ; ; - - - ; ; & - % & & - - - - = q z b G K L K b k 6 : - & & & & - - - - & ; , & , - - - ; ; % @ @ @ @ + ",
"o o X X @ & & & & & & & & & & & - - - - ; - ; - - - ; & = 7 z b F G b k 6 * - - - ; - ; - ; - ; - & & & & - @ o + o + + + + + o ",
"@ @ o o @ @ + @ & & & & & & & - - - - ; ; & & - - - ; ; & = 8 8 8 8 8 = = - - - - ; - % - - - ; ; & & % X + o X @ o @ @ @ @ @ @ ",
"@ o + @ o + @ + # # % & & & & & % & & & - - - ; - - - & & & - - - & & & & % & & & - - - ; - - - % @ + @ % & X + @ @ X o @ @ o + ",
"o @ @ @ @ o + @ % - & - - - ; & # % % % % % - - & - - & & ; ; - - - - ; - @ % % % % % & - & & - % @ @ @ o o @ @ @ @ X . . . X o ",
"o + o o o o o @ - - & & & & & - - - - & - - - - & & & & ; ; - ; - - & & - - - - & & - % # @ @ # # & % @ + @ o o + @ @ @ @ @ @ @ ",
"o o @ @ @ + o @ # @ & & & & & % % % % - & % % & - & & & - - - - & & & & % % % % - - % @ @ # @ @ o o @ @ @ @ o o o X . o X . . o ",
"o @ @ + o o @ # & % @ + @ & - - ; & - - & & & & & ; ; ; & & & & & & & - - ; - - - - & & & # o o + @ @ @ o X + @ @ o o X X X X o ",
"o X o o o @ o @ @ @ @ @ % , , , - & - & & - & & & + # + @ & & & % - , , , - - - & & + o X o o @ o o @ @ @ @ @ @ @ @ @ o o o o o ",
"@ + o o @ @ @ X . o o # # % & & & @ @ & & & % o @ @ & & & & & - & & ; ; - & % @ @ @ # @ o o O @ @ X . X o o o X o @ @ @ @ @ @ @ ",
"+ @ + + o + o . . . . . . o o o + & @ # & @ % @ % % - + X % @ - ; ; % % @ & @ @ @ o o @ @ + o o o . . . . . . o o o o @ @ @ o o ",
"o + @ @ @ # @ o o o o @ o o o o o @ @ @ % @ % - - & & @ o o o o & & - - # o @ @ @ @ o o @ @ @ @ @ + o o o @ + o o o o @ @ @ @ o ",
"@ @ @ o + + @ @ o o o o o + o @ @ @ @ @ o @ @ % + o o @ @ + o o o + @ + % @ @ @ @ o + @ @ + o o @ @ @ o o o o @ o @ @ @ @ @ o o "
};
