/* XPM */
static char *d11f15b32f9b43b9d68842ca6e5dac5e9P0hCKUV8Wi1x2D7[] = {
/* columns rows colors chars-per-pixel */
"64 64 141 2 ",
"   c #533F35",
".  c #564136",
"X  c #594337",
"o  c #5E4639",
"O  c #5F483B",
"+  c #60473A",
"@  c #644B3D",
"#  c #684E3F",
"$  c #575B4B",
"%  c #585C4B",
"&  c #694F40",
"*  c #6D5242",
"=  c #6C564A",
"-  c #6E5B4D",
";  c #715545",
":  c #755847",
">  c #71574A",
",  c #755A4A",
"<  c #785B48",
"1  c #6B5652",
"2  c #6D5A53",
"3  c #6D5B5B",
"4  c #715B54",
"5  c #725D59",
"6  c #5B604F",
"7  c #5C6050",
"8  c #6D6254",
"9  c #6E6658",
"0  c #6B6C5C",
"q  c #756353",
"w  c #796755",
"e  c #756857",
"r  c #796857",
"t  c #73615D",
"y  c #746B5B",
"u  c #796D5C",
"i  c #6C5D60",
"p  c #6E6F61",
"a  c #6E636A",
"s  c #67686C",
"d  c #6E6F6D",
"f  c #736264",
"g  c #796662",
"h  c #776F66",
"j  c #7B6867",
"k  c #71656C",
"l  c #7C6D6E",
"z  c #6F7061",
"x  c #6F7069",
"c  c #727363",
"v  c #7B7564",
"b  c #767867",
"n  c #7B7867",
"m  c #73746B",
"M  c #777968",
"N  c #7B7C6B",
"B  c #6F6772",
"V  c #6F6874",
"C  c #716771",
"Z  c #746A73",
"A  c #786E72",
"S  c #716C7B",
"D  c #717275",
"F  c #7B7074",
"G  c #777970",
"H  c #7B7C72",
"J  c #73717C",
"K  c #77797D",
"L  c #7B7C7C",
"P  c #827A67",
"I  c #847F6C",
"U  c #82767B",
"Y  c #7F816F",
"T  c #83806D",
"R  c #838572",
"E  c #898270",
"W  c #868975",
"Q  c #898A76",
"!  c #83847E",
"~  c #868878",
"^  c #8B8D7A",
"/  c #8F917D",
"(  c #90937E",
")  c #716F81",
"_  c #747384",
"`  c #777984",
"'  c #777789",
"]  c #777989",
"[  c #7A7C8D",
"{  c #7D7F91",
"}  c #847A81",
"|  c #877F89",
" . c #807F90",
".. c #7F808E",
"X. c #7E8293",
"o. c #7F8394",
"O. c #7F8495",
"+. c #848580",
"@. c #80818F",
"#. c #898088",
"$. c #89828C",
"%. c #939681",
"&. c #969984",
"*. c #989B86",
"=. c #979A88",
"-. c #9B9D8A",
";. c #858492",
":. c #808395",
">. c #808596",
",. c #858594",
"<. c #8D8691",
"1. c #8B8897",
"2. c #8E8895",
"3. c #838798",
"4. c #868698",
"5. c #85899A",
"6. c #86899B",
"7. c #8F8D9B",
"8. c #888B9C",
"9. c #898C9D",
"0. c #8D8E9E",
"q. c #918E9D",
"w. c #9EA18D",
"e. c #9FA290",
"r. c #A0A38F",
"t. c #A2A592",
"y. c #A6A997",
"u. c #A7AA98",
"i. c #A9AC9A",
"p. c #8D8FA0",
"a. c #8F91A2",
"s. c #9092A3",
"d. c #9592A2",
"f. c #9293A4",
"g. c #9293A5",
"h. c #9695A7",
"j. c #9696A8",
"k. c #9897A9",
"l. c #9998AA",
"z. c #9B9AAC",
"x. c #9C9BAD",
/* pixels */
"@ @ @ @ @ @ @ o o o o @ o @ o o o o o o + @ + @ @ @ @ @ o o o o + + + + o o o o o o # + @ @ @ @ @ o o o o o @ o @ o o o o o o @ ",
"o o X .   . . o o @ @ + o X o X X X o o o o o X X   . . X o + @ + o X o o X X o o o @ @ o @ @ o   X o o @ @ o X X o X X X o o @ ",
"@ @ @ o @ o o @ o o + @ o X . . o o o + + @ @ @ o @ o o @ o + o @ * * * ; : : * * ; @ @ @ * * * @ @ o o o @ @ o . . X o o o o @ ",
"@ @ @ @ o + @ @ @ @ @ @ X o # # # # * ; ; * * * & * # * * * * * * @ @ # & * ; ; * ; * * * * ; # @ @ @ @ @ @ o X @ o o o @ @ @ @ ",
"@ @ o o . X o o o . o + & ; ; ; & * * ; * ; * ; ; ; : : : ; * * & & ; ; ; * * * * * ; ; ; ; ; : : : ; * * + @ @ o o o o o + o @ ",
"@ @ @ @ @ o X o O & * ; ; ; ; ; ; : * * * & ; ; ; * * * ; : * * ; ; ; ; ; ; : * * * & * ; ; * * * ; : * * ; # @ @ @ @ @ @ @ @ @ ",
". + + + o o @ o @ @ + @ & * * ; : ; ; ; ; ; * ; * * * ; * & : : ; * * * ; : ; ; ; ; ; * * * * * * ; & ; @ + @ o o + X . . . . . ",
"@ @ o @ @ @ @ + X # * @ * * * : ; ; ; ; * * * * * * * * ; ; * * * * * * : ; ; ; ; ; * ; * * * * * ; ; * * & @ @ @ @ + o X X X @ ",
"@ @ o X o @ @ * * * & ; ; ; * & & & & * * * & ; : : ; & ; ; * * ; ; ; ; & & & & * * * & ; : : : & ; ; * * ; ; * + + o o o o @ @ ",
"o o X . X X X . ; * ; ; ; ; ; ; ; ; ; ; ; ; ; ; ; ; : * ; ; * * ; ; ; ; ; ; ; ; ; ; ; : ; : ; : ; ; ; * * ; : & @ @ @ @ @ @ @ o ",
"o o . @ @ + # @ * & & & & * & * ; : : < ; * * ; ; ; ; ; & * & & & & * & * ; ; : < ; * * ; ; ; ; ; & * & & & & * & @ @ @ @ @ @ o ",
"@ + o o ; ; ; ; ; ; ; ; * * * ; * * * ; ; ; * ; : : ; ; ; > > ; ; * * * ; * * * * ; ; * ; : : ; ; ; ; ; ; ; * * * # o @ @ @ @ @ ",
"o o @ # ; ; & & ; : : * * ; ; & & : * * * * ; ; & * ; * 2 } U k k a k k 3 @ : ; * * * ; : * * ; * & * ; : : * ; ; * @ ; o o X @ ",
"o * * * ; ; ; : < : : ; ; ; ; * * * * * * * ; ; * > g j U q.4.' ' ' ' _ k 2 2 = * * * * ; * * ; ; : : < : ; ; ; ; ; * * & @ o o ",
"o o * * & & & ; * * ; ; * & & * * * * & ; * * ; ; g 2.d.s.9.3.:.o.o.{ ' S S S f * * * * * ; * & & * ; * ; ; ; & & * * * * & + @ ",
"o o @ * ; ; : * ; ; * * * * * * * * * : ; * * * l <.k.z.l.f.a.s.s.9.>.[ ' ) ) S f , * * * ; ; ; : * ; ; ; * * * ; * * * * : @ o ",
"o @ & ; : ; ; ; & & * * ; ; < < : * : * & 5 f f $.l.z.z.z.z.z.z.z.a.3.>.[ ' _ ) S i 1 1 * & : : ; ; * & * * * ; : < < : @ + + o ",
"o @ * * * ; * & * * * * ; < < : * * * * , } 7.;.0.z.z.z.z.z.z.z.l.a.>.>.>.{ _ ) ) S S B 1 * * * ; * * * * * * < < < ; * * * * @ ",
"@ * * * * & ; ; ; * ; * * * * * = A } #.| 1.a.a.h.z.z.z.z.z.x.l.s.8.3.>.3.o.' ) ) ) ) S k a a a 3 ; ; * ; ; & * * * * * & + o o ",
"o + @ & ; ; ; * ; * ; ; ; * * - l ,.a.h.h.a.p.k.z.z.z.z.l.j.j.f.6.o.X.>.3.X.' ) ) ) ) _ _ ' ' ' Z 4 * * * ; ; * * * ; ; & @ @ o ",
"+ @ * * & & * & & & * * * * > F ,.f.a.6.6.a.k.z.z.z.z.z.j.9.6.6.>.[ ] o.3.X.' ) ) ) ) _ [ o.o.X.] V 1 & * * * * * : ; ; ; @ + o ",
"@ @ # * * ; ; ; ; ; * * * 1 A ;.a.a.6.6.p.j.z.z.z.z.z.h.9.3.>.>.>.X.[ O.>.>.[ ' ) ) ) _ ] X.>.>.[ S C 5 * * * # & & & ; * @ @ @ ",
"o o X @ * ; : < * & * ; * t ..s.h.6.>.6.j.z.z.z.z.z.z.f.6.3.>.>.>.>.>.>.>.>.>.[ _ ) ) ) ) [ >.>.[ _ ) a & ; * ; * ; ; & & & + @ ",
"@ @ & @ @ * ; ; ; ; ; * * t @.s.j.6.>.6.j.z.z.z.z.z.z.l.f.6.>.>.>.>.>.>.>.>.>.[ _ ) ) ) _ [ >.>.[ _ ) k ; * * ; * : : : ; * @ @ ",
"@ @ & * ; : ; & * * & & & t @.9.9.3.>.6.p.a.a.a.h.z.z.x.l.f.s.p.6.>.>.>.>.>.[ ' ) ) ) _ ] X.>.>.[ _ ) k * & & & : ; * * ; & @ @ ",
"@ & ; ; ; : : ; * * * & * t [ >.3.6.6.>.>.>.>.3.p.j.l.l.j.j.j.f.6.6.6.3.>.X.' ) ) ) _ ' X.>.>.>.[ _ ) a ; * & * ; ; * * * @ o @ ",
"@ @ + & * * ; : : & * ; ; 5 J [ 6.f.p.3.>.>.>.>.6.9.j.f.6.6.6.6.3.p.f.6.>.X.' ) _ _ ] o.>.>.>.>.[ _ ) a * ; ; ; : : ; ; * @ @ @ ",
"X + + @ + # ; * * : : ; & = f J X.0.s.s.s.s.p.6.>.6.9.6.>.>.>.>.>.s.j.6.>.>.[ [ [ [ X.>.>.>.>.[ ' S a 5 < ; * & ; ; & + O X . . ",
"+ @ @ @ + @ * * * & & * * * * f J { 0.j.j.j.f.6.>.3.6.6.6.6.6.>.>.9.s.9.6.>.>.>.>.>.>.>.>.>.{ ' S C 4 * & & * * * : @ o . . . o ",
"@ @ o o + @ @ * ; ; * * * * * = 3 S X.6.6.6.6.>.>.6.f.j.j.j.p.>.>.{  .s.p.3.>.>.>.>.>.>.>.[ ' _ a 2 ; ; * * * * * @ + o o o + @ ",
"o X . X @ ; * : : & ; : : ; ; ; , f J [ [ [ [ [ [ X.0.s.s.a.9.3.>.` J ;.0.p.6.X.[ [ [ [ [ ' S k 5 : : * * : : ; ; ; ; & @ @ @ o ",
"o o * * ; ; * & * & & & * * & * ; > f S S S S J J _ { o.o.o.X.X.X.K m J ,.p.>.] J J J S S S C 4 ; & * * & & & * & & ; & @ @ + o ",
"@ + o * ; : : ; ; ; ; ; * * * ; * * = 4 5 4 t N m d _ ' ' ' ' ' ' K N H L ] ' D x G h 2 4 5 4 < : ; ; ; ; ; * * * ; * * * @ @ @ ",
"+ o @ @ @ ; & & ; ; : * * * * & & ; * * ; ; q R W R ! +.+.+.D s L G c R ^ +.+.H M N u ; : * * ; * & * ; : : * * * @ o o + + X @ ",
"o @ @ @ * * ; ; < : ; ; ; ; : * & & & & & & w ^ &.&.%.( ( / c 7 R c 6 W ( ( %.^ R R y * ; * * ; ; ; : < ; ; ; ; @ @ o X X X o o ",
"o o o o o + & ; ; * ; ; * & * ; ; ; * & ; ; w ^ w.t.*.^ W R 0 % N 0 $ N W W ( %./ R u ; ; * * & & ; ; * ; ; & + @ @ + + @ + @ @ ",
"o o @ @ @ * ; * ; ; ; * * * * & & & * ; ; & q ^ r.u.t.%.W Y c 0 M c 0 N R ^ ( ( Q R y * * ; ; ; ; * ; ; ; * * @ + . . X X . . o ",
"o @ + o o @ ; * & & * * * * : : : * : * * & q Q -.u.i.t.&.^ W R R R R R / &.&.^ Y N y * & & : : ; * * & * * * * ; ; ; o o o o o ",
"o X X X * ; ; * * * & & : < < : ; * * * ; ; - c Q -.u.u.y.t.-.( ( ( ( ( -.t.*.^ N c 8 * * * * ; ; * * * * & * < < ; * * # + + + ",
"@ + @ @ * & * * * * ; * * ; ; ; & * * * & * * 2 n %.y.i.i.t.-.&.w.-.%.^ -.u.*.^ N 9 = * * * * & * * * * ; ; & ; ; * & @ @ + + + ",
"o @ @ & * : : * ; & : : ; & & & ; ; & & ; ; * * y W e.u.t.&.%.-.t.-./ ^ =.t.&.W n , ; ; & & * : : ; * * * : : * & & * * # @ + o ",
"o @ @ & * & & # * & ; ; ; ; ; : ; ; * & & * ; ; 8 M %.*.%.Q &.t.-./ ^ -.w.&.Q M 0 = * ; ; ; & & & & & & * ; ; ; ; @ + @ @ + + o ",
"@ @ & & * ; : ; ; ; * & & @ * * * ; * * * * * & = y N W ^ %.-.-./ / =.w.&.W M y - * * * & & * ; : ; ; ; * & & @ & * @ * @ @ o + ",
"+ @ * * * ; : : & & * ; ; * * * * & @ * * ; & * ; - c M W -.=.^ R %.w.%.W M p 2 * * * * * ; * * : : ; & & : ; * * * * @ o o o @ ",
"+ + @ ; * * ; : : ; * & * * ; ; ; ; * ; ; * * * ; q R W Y N M c c N W M c z 0 8 ; ; * * * * * & ; : : ; ; * & * * ; : < * o o + ",
"@ @ @ * ; : ; & * ; & & & ; : ; * ; * ; ; * * * r E -.&.W M p 0 8 0 b Y ~ ^ R n e > * * * ; ; : : & * ; * & & & : ; @ @ @ @ + @ ",
"+ @ @ @ : ; ; ; * * ; * * ; ; ; * * ; ; ; * * * P &.t.w.( R c 9 = - c ^ -.t.&.^ N , * * * * : ; ; ; * * ; * * ; ; @ o o + @ + + ",
"@ @ + ; ; ; ; < : & & * * : : ; * ; & * & & * < I %.*.&.( R y = * * q T / *.&.^ N - & & : : ; ; ; : : * & * * ; : : * @ @ @ @ @ ",
"o @ @ @ @ + * * * ; ; ; * * ; ; ; : ; * ; * ; ; u T Q ^ W v q ; ; * = u I ^ ^ T u > * ; ; ; * * * ; * ; ; : ; ; ; * o X X X X X ",
"o @ @ @ + # ; * * & & * * * * : ; ; ; ; ; ; * * & - v N v , & & * * * * u N N u ; ; ; * * & & & * ; * * * & ; : : ; + o . . . o ",
"# * & * : ; * ; ; ; * * * * * * * * * * * * * ; ; > , , , ; ; * * * * * = , , - * ; * * ; ; ; ; * * ; ; < : < : ; & & o o o + @ ",
"o X . . + + @ < : & * : : ; ; ; : : * ; & * * ; ; ; ; * : : & * : : ; ; ; : : ; * * * * ; ; ; ; * : < * < ; ; ; : : & @ @ @ @ + ",
"o o X X @ * * * * * * * * * * * ; ; ; ; : ; : ; ; ; : * * * * * * * * * * ; ; ; ; : ; : ; : ; : ; * * * * ; @ o + o + + + + + o ",
"@ @ o o @ @ + @ * * * * * * * ; ; ; ; : : * * ; ; ; : : * ; * * * * * * * ; ; ; ; : ; & ; ; ; : : * * & X + o X @ o @ @ @ @ @ @ ",
"@ o + @ o + @ + # # & * * * * * & * * * ; ; ; : ; ; ; * * * ; ; ; * * * * & * * * ; ; ; : ; ; ; & @ + @ & * X + @ @ X o @ @ o + ",
"o @ @ @ @ o + @ & ; * ; ; ; : * # & & & & & ; ; * ; ; * * : : ; ; ; ; : ; @ & & & & & * ; * * ; & @ @ @ o o @ @ @ @ X . . . X o ",
"o + o o o o o @ ; ; * * * * * ; ; ; ; * ; ; ; ; * * * * : : ; : ; ; * * ; ; ; ; * * ; & # @ @ # # * & @ + @ o o + @ @ @ @ @ @ @ ",
"o o @ @ @ + o @ # @ * * * * * & & & & ; * & & * ; * * * ; ; ; ; * * * * & & & & ; ; & @ @ # @ @ o o @ @ @ @ o o o X . o X . . o ",
"o @ @ + o o @ # * & @ + @ * ; ; : * ; ; * * * * * : : : * * * * * * * ; ; : ; ; ; ; * * * # o o + @ @ @ o X + @ @ o o X X X X o ",
"o X o o o @ o @ @ @ @ @ & < < < ; * ; * * ; * * * + # + @ * * * & ; < < < ; ; ; * * + o X o o @ o o @ @ @ @ @ @ @ @ @ o o o o o ",
"@ + o o @ @ @ X . o o # # & * * * @ @ * * * & o @ @ * * * * * ; * * : : ; * & @ @ @ # @ o o O @ @ X . X o o o X o @ @ @ @ @ @ @ ",
"+ @ + + o + o . . . . . . o o o + * @ # * @ & @ & & ; + X & @ ; : : & & @ * @ @ @ o o @ @ + o o o . . . . . . o o o o @ @ @ o o ",
"o + @ @ @ # @ o o o o @ o o o o o @ @ @ & @ & ; ; * * @ o o o o * * ; ; # o @ @ @ @ o o @ @ @ @ @ + o o o @ + o o o o @ @ @ @ o ",
"@ @ @ o + + @ @ o o o o o + o @ @ @ @ @ o @ @ & + o o @ @ + o o o + @ + & @ @ @ @ o + @ @ + o o @ @ @ o o o o @ o @ @ @ @ @ o o "
};
