/* XPM */
static char *_1c4cb960af14633e11389afe97c9282IIwk7VUKwM6EQZ5Y[] = {
/* columns rows colors chars-per-pixel */
"64 64 118 2 ",
"   c #533F35",
".  c #564136",
"X  c #594337",
"o  c #5E4639",
"O  c #5F483B",
"+  c #60473A",
"@  c #644B3D",
"#  c #684E3F",
"$  c #694F40",
"%  c #6D5243",
"&  c #6D554B",
"*  c #6D5B4C",
"=  c #715545",
"-  c #755847",
";  c #71574A",
":  c #765A49",
">  c #785B48",
",  c #6C5751",
"<  c #6D5B53",
"1  c #6E5C5C",
"2  c #735C54",
"3  c #715D5B",
"4  c #6C6253",
"5  c #6B6759",
"6  c #6C6A5C",
"7  c #726353",
"8  c #76605A",
"9  c #786158",
"0  c #716C5C",
"q  c #6E5E61",
"w  c #705F61",
"e  c #6E6066",
"r  c #6C6D66",
"t  c #6F656F",
"y  c #6F6F6F",
"u  c #726365",
"i  c #796764",
"p  c #74676A",
"a  c #7E6E6F",
"s  c #6F7061",
"d  c #6F7069",
"f  c #737464",
"g  c #7A7666",
"h  c #74736C",
"j  c #777968",
"k  c #7B7C6B",
"l  c #6F6772",
"z  c #6E6E71",
"x  c #706771",
"c  c #716975",
"v  c #7B6D71",
"b  c #716E7C",
"n  c #757473",
"m  c #7A7B71",
"M  c #73717D",
"N  c #7C7278",
"B  c #827E6B",
"V  c #83767B",
"C  c #7F816F",
"Z  c #86826E",
"A  c #818371",
"S  c #898470",
"D  c #878976",
"F  c #888A76",
"G  c #8C8E7A",
"H  c #8E917D",
"J  c #91937E",
"K  c #716F81",
"L  c #747384",
"P  c #797680",
"I  c #7D7983",
"U  c #767788",
"Y  c #77798A",
"T  c #7A7C8D",
"R  c #7C7F90",
"E  c #857B83",
"W  c #817C85",
"Q  c #7D8091",
"!  c #7E8294",
"~  c #88838D",
"^  c #949682",
"/  c #969984",
"(  c #999C87",
")  c #979A88",
"_  c #9A9D8A",
"`  c #818596",
"'  c #818697",
"]  c #8D8590",
"[  c #8F8A97",
"{  c #818798",
"}  c #848798",
"|  c #838899",
" . c #878A9B",
".. c #878B9C",
"X. c #89899A",
"o. c #8C8999",
"O. c #898B9C",
"+. c #8B8C9C",
"@. c #8B8E9F",
"#. c #908C9A",
"$. c #9FA28E",
"%. c #A0A38F",
"&. c #A2A592",
"*. c #A6A996",
"=. c #A7AA98",
"-. c #A9AC99",
";. c #8D8FA0",
":. c #8E90A1",
">. c #9391A1",
",. c #9192A4",
"<. c #9394A6",
"1. c #9595A7",
"2. c #9896A7",
"3. c #9696A8",
"4. c #9897A9",
"5. c #9A99AB",
"6. c #9B9AAC",
"7. c #9C9AAC",
/* pixels */
"@ @ @ @ @ @ @ o o o o @ o @ o o o o o o + @ + @ @ @ @ @ o o o o + + + + o o o o o o # + @ @ @ @ @ o o o o o @ o @ o o o o o o @ ",
"o o X .   . . o o @ @ + o X o X X X o o o o o X X   . . X o + @ + o X o o X X o o o @ @ o @ @ o   X o o @ @ o X X o X X X o o @ ",
"@ @ @ o @ o o @ o o + @ o X . . o o o + + @ @ @ o @ o o @ o + o @ % % % = - - % % = @ @ @ % % % @ @ o o o @ @ o . . X o o o o @ ",
"@ @ @ @ o + @ @ @ @ @ @ X o # # # # % = = % % % $ % # % % % % % % @ @ # $ % = = % = % % % % = # @ @ @ @ @ @ o X @ o o o @ @ @ @ ",
"@ @ o o . X o o o . o + $ = = = $ % % = % = % = = = - - - = % % $ $ = = = % % % % % = = = = = - - - = % % + @ @ o o o o o + o @ ",
"@ @ @ @ @ o X o O $ % = = = = = = - % % % $ = = = % % % = - % % = = = = = = - % % % $ % = = % % % = - % % = # @ @ @ @ @ @ @ @ @ ",
". + + + o o @ o @ @ + @ $ % % = - = = = = = % = % % % = % $ - - = % % % = - = = = = = % % % % % % = $ = @ + @ o o + X . . . . . ",
"@ @ o @ @ @ @ + X # % @ % % % - = = = = % % % % % % % % = = % % % % % % - = = = = = % = % % % % % = = % % $ @ @ @ @ + o X X X @ ",
"@ @ o X o @ @ % % % $ = = = % $ $ $ $ % % % $ = - - = $ = = % % = = = = $ $ $ $ % % % $ = - - - $ = = % % = = % + + o o o o @ @ ",
"o o X . X X X . = % = = = = = = = = = = = = = = = = - % = = % % = = = = = = = = = = = - = - = - = = = % % = - $ @ @ @ @ @ @ @ o ",
"o o . @ @ + # @ % $ $ $ $ % $ % = - - > = % % = = = = = $ % $ $ $ $ % $ % = = - > = % % = = = = = $ % $ $ $ $ % $ @ @ @ @ @ @ o ",
"@ + o o = = = = = = = = % % % = % % % = = = % = - - = = = = = = = % % $ = % % % % = = % = - - = = = = = = = % % % # o @ @ @ @ @ ",
"o o @ # = = $ $ = - - % % = = $ $ - % % % % = = $ % = % % ; ; > ; % = = % @ - = % % % = - % % = % $ % = - - % = = % @ = o o X @ ",
"o % % % = = = - > - - = = = = % % % % % % % = = % % = 2 V V p u u u u u 2 % % % % % % % = % % = = - - > - = = = = = % % $ @ o o ",
"o o % % $ $ $ = % % = = % $ $ % % % % $ = % % = : 2 2 v #.X.L L L L L b u * & & $ % % % % = % $ $ % = % = = = $ $ % % % % $ + @ ",
"o o @ % = = - % = = % % % % % % % % % - = % % % a ] [ [ +.} Q T R R T L c l l q : - % % % = = = - % = = = % % % = % % % % - @ o ",
"o @ $ = - = = = $ $ % % = = > > - % - % $ $ & p ~ 5.6.3.;.+.+.+...{ Q U L K K c 1 & $ $ $ $ - - = = % $ % % % = - > > - @ + + o ",
"o @ % % % = % $ % % % % = > > - % $ $ % ; % i [ 2.5.6.5.4.3.3.3.,. .' Q Y L K b c w & % % % $ % = % % % % % % > > > = % % % % @ ",
"@ % % % % $ = = = % = % % % % % $ = % i V N W 1.6.6.6.6.6.6.7.7.3.O.' ' Q Y L K K l e u 1 % % % % = = % = = $ % % % % % $ + o o ",
"o + @ $ = = = % = % = = = % & 2 9 2 8 E >.+.+.3.6.6.6.6.6.6.6.5.1. .' ' ' Q L K K K b b x < & 2 2 ; % % % = = % % % = = $ @ @ o ",
"+ @ % % $ $ % $ $ $ % % % % i I ~ ] ] o.;.:.1.5.6.6.6.6.6.7.5.,.+.| ' ' { Q L K K K K K b x t t t q % $ % % % % % - = = = @ + o ",
"@ @ # % % = = = = = % % & 1 I O.,.1.1.:.+.1.6.6.6.6.6.5.3.1.<.+.' Q ! ' ' Q L K K K K K L L L L L b 3 ; % % % # $ $ $ = % @ @ @ ",
"o o X @ % = - > % $ % = u I O.<.;. ...:.3.5.6.6.6.6.6.3.+. . .| ! Y T ' { Q L K K K K K U Q Q Q Q T b q % = % = % = = $ $ $ + @ ",
"@ @ $ @ @ % = = = = : u I +.:.:. . .+.1.6.6.6.6.6.5.1.;. .' ' ' ! T R ' ' ! T L L K K K L T ! ' { R L c u & % = % - - - = % @ @ ",
"@ @ $ % = - = $ % % , P X.1.>. .' O.3.6.6.6.6.6.6.5.:. .{ ' ' ' ' ' ' ' ' ' ' T L K K K K L T ' ' R L b c < $ $ - = % % = $ @ @ ",
"@ $ = = = - - = % % 2 I +.3.>.{ ' +.4.7.6.6.6.6.6.5.1.:. .' ' ' ' ' ' ' ' ' ' R L K K K K L T ' ' R L K b 1 $ % = = % % % @ o @ ",
"@ @ + $ % % = - - $ < I O.,.;.{ ' ..,.3.1.1.3.5.6.6.6.3.;.O.O. .' ' ' ' ' ' Q T L K K K L L R ' ' R L K b 3 = = - - = = % @ @ @ ",
"X + + @ + # = % % - 8 I {  . .{ ' {  ... . .;.3.6.6.6.5.3.3.1.+.' ' ' ' ' ! T L L K K K U Q ' ' ' R L K b 3 % $ = = $ + O X . . ",
"+ @ @ @ + @ % % % $ , M R ' ..+. .' ' ' ' '  .:.3.5.1.,.,.,.>.O.' ' ' ' ' Q L K K K L U R ' ' ' ' R L K b 1 % % % - @ o . . . o ",
"@ @ o o + @ @ % = = & x L Q +.1.+. . . .| { ' | :.1.;.| | | { { ' ' ' ' ' Q U L L L L Q ' ' ' ' ' T L K c 3 % % % @ + o o o + @ ",
"o X . X @ = % - - $ ; 3 x L ' ;.>.,.,.,.>...' '  .+. .' ' ' ' ' ' ' ' ' ' ' Q T T T R ' ' ' ' ' T L L l 1 2 - = = = = $ @ @ @ o ",
"o o % % = = % $ % $ $ $ < x L ' ;.3.3.3.<.+.' '  ...O.O.O. .' ' ' ' ' ' ' ' ' ' ' ' ' ' ' ' ! R L b c 1 % $ $ % $ $ = $ @ @ + o ",
"@ + o % = - - = = = = = % < p L ' ...... .{ ' ' +.1.3.3.1.:.{ ' ' ' ' ' ' ' ' ' ' ' ' ' ' ' T L L c 3 ; = = % % % = % % % @ @ @ ",
"+ o @ @ @ = $ $ = = - % % % 1 t L T T T T T T R } >.,.,.,.+.{ ' ' ' ' ' ' ' ' ! T T T T T T L b c q & = - - % % % @ o o + + X @ ",
"o @ @ @ % % = = > - = = = = > , x b b b M L L L T ' { ' ' ' ' ' ' ' ' ' ' ' ' T L L L L b b b c 3 ; - > = = = = @ @ o X X X o o ",
"o o o o o + $ = = % = = % $ % = 3 u q q u h n y M U Y Y Y T T T T T T T T T T L z n n p w q q 1 & = = % = = $ + @ @ + + @ + @ @ ",
"o o @ @ @ % = % = = = % % % % $ % % % = ; g C f h M M b b b b b b b b b b b M n f k k 2 % = = = = % = = = % % @ + . . X X . . o ",
"o @ + o o @ = % $ $ % % % % - - - % - % ; Z G C k m h r r r r r r r r r r d m m k k k * $ $ > > = % % $ % % % % = = = o o o o o ",
"o X X X % = = % % % $ $ - > > - = % % % : S ^ ^ H D k f f f f f f f f f f j k A D A k 7 % % % = = % % % % $ % > > = % % # + + + ",
"@ + @ @ % $ % % % % = % % = = = $ % % % * Z ( &.$.^ D C C C C C C C C C C C A D H D k 7 % % % $ % % % % = = $ = = % $ @ @ + + + ",
"o @ @ $ % - - % = $ - - = $ $ $ = = $ $ : S _ *.*.%.^ G G G G G G G G G G G G G F A k 7 $ $ % - - = % % % - - % $ $ % % # @ + o ",
"o @ @ $ % $ $ # % $ = = = = = - = = % $ * B ^ &.-.=.$./ ^ ^ ^ ^ ^ ^ ^ ^ / / ^ G A k g 7 = = $ $ $ $ $ $ % = = = = @ + @ @ + + o ",
"@ @ $ $ % = - = = = % $ $ @ % % % = % % % 0 A ^ &.-.*.&.( ^ ^ ^ ^ ^ ^ ^ $.&.( G A j 0 * $ $ % = - = = = % $ $ @ $ % @ % @ @ o + ",
"+ @ % % % = - - $ $ % = = % % % % $ @ % % * 0 F _ -.-.*.( ^ ^ ( _ / J H $.*._ G A f 4 % % = % = - - = $ $ - = % % % % @ o o o @ ",
"+ + @ = % % = - - = % $ % % = = = = % = = % 7 k ^ *.-.&./ ^ / %.&./ G F _ &.( G C 0 % % % % % $ = - - = = % $ % % = - > % o o + ",
"@ @ @ % = - = $ % = $ $ $ = - = % = % = = * 5 f F _ $._ H ^ $.%._ H H ) _ _ H A j 0 < % % = = - - $ % = % $ $ $ - = @ @ @ @ + @ ",
"+ @ @ @ - = = = % % = % % = = = % % = = % 4 6 s C G J H G / &._ H G / &._ H A j f 6 5 * % % - = = = % % = % % = = @ o o + @ + + ",
"@ @ + = = = = > - $ $ % % - - = % = $ % % 4 r j k k C G _ $.( H G _ $._ H A j f k f 5 & - - = = = - - % $ % % = - - % @ @ @ @ @ ",
"o @ @ @ @ + % % % = = = % % = = = - = % = * 0 j j f k D ^ ^ D k A / / F C j f j j 0 4 * = = % % % = % = = - = = = % o X X X X X ",
"o @ @ @ + # = % % $ $ % % % % - = = = = = = * 6 j k k k j f f 6 f C k f r f k j 6 4 % % % $ $ $ % = % % % $ = - - = + o . . . o ",
"# % $ % - = % = = = % % % % % % % % % % % % % * 0 j j f 6 5 < * 4 7 0 6 6 6 f 0 4 * % % = = = = % % = = > - > - = $ $ o o o + @ ",
"o X . . + + @ > - $ % - - = = = - - % = $ % % = < 5 6 6 6 7 % % > > * 5 5 6 6 4 % % % % = = = = % - > % > = = = - - $ @ @ @ @ + ",
"o o X X @ % % % % % % % % % % % = = = = - = - = ; ; ; * * & % % % % % * * * * ; = - = - = - = - = % % % % = @ o + o + + + + + o ",
"@ @ o o @ @ + @ % % % % % % % = = = = - - % % = = = - - % = % % % % % % % = = = = - = $ = = = - - % % $ X + o X @ o @ @ @ @ @ @ ",
"@ o + @ o + @ + # # $ % % % % % $ % % % = = = - = = = % % % = = = % % % % $ % % % = = = - = = = $ @ + @ $ % X + @ @ X o @ @ o + ",
"o @ @ @ @ o + @ $ = % = = = - % # $ $ $ $ $ = = % = = % % - - = = = = - = @ $ $ $ $ $ % = % % = $ @ @ @ o o @ @ @ @ X . . . X o ",
"o + o o o o o @ = = % % % % % = = = = % = = = = % % % % - - = - = = % % = = = = % % = $ # @ @ # # % $ @ + @ o o + @ @ @ @ @ @ @ ",
"o o @ @ @ + o @ # @ % % % % % $ $ $ $ = % $ $ % = % % % = = = = % % % % $ $ $ $ = = $ @ @ # @ @ o o @ @ @ @ o o o X . o X . . o ",
"o @ @ + o o @ # % $ @ + @ % = = - % = = % % % % % - - - % % % % % % % = = - = = = = % % % # o o + @ @ @ o X + @ @ o o X X X X o ",
"o X o o o @ o @ @ @ @ @ $ > > > = % = % % = % % % + # + @ % % % $ = > > > = = = % % + o X o o @ o o @ @ @ @ @ @ @ @ @ o o o o o ",
"@ + o o @ @ @ X . o o # # $ % % % @ @ % % % $ o @ @ % % % % % = % % - - = % $ @ @ @ # @ o o O @ @ X . X o o o X o @ @ @ @ @ @ @ ",
"+ @ + + o + o . . . . . . o o o + % @ # % @ $ @ $ $ = + X $ @ = - - $ $ @ % @ @ @ o o @ @ + o o o . . . . . . o o o o @ @ @ o o ",
"o + @ @ @ # @ o o o o @ o o o o o @ @ @ $ @ $ = = % % @ o o o o % % = = # o @ @ @ @ o o @ @ @ @ @ + o o o @ + o o o o @ @ @ @ o ",
"@ @ @ o + + @ @ o o o o o + o @ @ @ @ @ o @ @ $ + o o @ @ + o o o + @ + $ @ @ @ @ o + @ @ + o o @ @ @ o o o o @ o @ @ @ @ @ o o "
};
