/* XPM */
static char *_2695a6b1a09472c87aa3d22fc160e49Ev1NlzLRmLIY6W8x[] = {
/* columns rows colors chars-per-pixel */
"64 64 130 2 ",
"   c #533F35",
".  c #564136",
"X  c #594337",
"o  c #5E4639",
"O  c #5F483B",
"+  c #60473A",
"@  c #644B3D",
"#  c #684E3F",
"$  c #525646",
"%  c #5A5D4D",
"&  c #694F40",
"*  c #6D5242",
"=  c #6D554C",
"-  c #6D5B4C",
";  c #715545",
":  c #755847",
">  c #735749",
",  c #765A49",
"<  c #785B48",
"1  c #6D5B53",
"2  c #6D5C5C",
"3  c #725B54",
"4  c #735E59",
"5  c #606353",
"6  c #6B6355",
"7  c #6B6759",
"8  c #656858",
"9  c #6C6B5D",
"0  c #726454",
"q  c #786353",
"w  c #786857",
"e  c #77615A",
"r  c #736B5C",
"t  c #796B59",
"y  c #6D5E62",
"u  c #705F61",
"i  c #6F6166",
"p  c #6D6D62",
"a  c #6F656C",
"s  c #6E6F6E",
"d  c #736364",
"f  c #796763",
"g  c #71656B",
"h  c #74696E",
"j  c #786968",
"k  c #6F7062",
"l  c #737464",
"z  c #7B7665",
"x  c #767967",
"c  c #7B7867",
"v  c #72726A",
"b  c #777968",
"n  c #7B7C6B",
"m  c #6D6B71",
"M  c #716670",
"N  c #706975",
"B  c #7A6E72",
"V  c #716D7C",
"C  c #707076",
"Z  c #817865",
"A  c #817377",
"S  c #81757A",
"D  c #7F816F",
"F  c #7F8170",
"G  c #80826F",
"H  c #838572",
"J  c #898070",
"K  c #878976",
"L  c #888A77",
"P  c #878A78",
"I  c #8B8E7A",
"U  c #8E917C",
"Y  c #91937E",
"T  c #716F81",
"R  c #747384",
"E  c #797482",
"W  c #7C7A86",
"Q  c #777789",
"!  c #787788",
"~  c #777889",
"^  c #7A7B8C",
"/  c #7D7F90",
"(  c #857B84",
")  c #807E8A",
"_  c #807F91",
"`  c #7E8293",
"'  c #86838F",
"]  c #939681",
"[  c #999785",
"{  c #969984",
"}  c #989B86",
"|  c #979A88",
" . c #9B9E8B",
".. c #818596",
"X. c #838697",
"o. c #848697",
"O. c #8D8895",
"+. c #828798",
"@. c #878798",
"#. c #838899",
"$. c #85899A",
"%. c #878B9C",
"&. c #888A9B",
"*. c #8D8B9B",
"=. c #8B8A9C",
"-. c #8B8E9F",
";. c #8E8D9F",
":. c #908A97",
">. c #908A98",
",. c #918C99",
"<. c #9DA08C",
"1. c #9FA290",
"2. c #A0A38F",
"3. c #A1A492",
"4. c #A5A896",
"5. c #A7AA98",
"6. c #A8AB99",
"7. c #8C8EA0",
"8. c #908FA1",
"9. c #8F90A2",
"0. c #9391A2",
"q. c #9293A5",
"w. c #9394A5",
"e. c #9394A6",
"r. c #9695A6",
"t. c #9696A8",
"y. c #9897A9",
"u. c #9A99AA",
"i. c #9B9AAC",
"p. c #9C9BAD",
/* pixels */
"@ @ @ @ @ @ @ o o o o @ o @ o o o o o o + @ + @ @ @ @ @ o o o o + + + + o o o o o o # + @ @ @ @ @ o o o o o @ o @ o o o o o o @ ",
"o o X .   . . o o @ @ + o X o X X X o o o o o X X   . . X o + @ + o X o o X X o o o @ @ o @ @ o   X o o @ @ o X X o X X X o o @ ",
"@ @ @ o @ o o @ o o + @ o X . . o o o + + @ @ @ o @ o o @ o + o @ * * * ; : : * * ; @ @ @ * * * @ @ o o o @ @ o . . X o o o o @ ",
"@ @ @ @ o + @ @ @ @ @ @ X o # # # # * ; ; * * * & * # * * * * * * @ @ # & * ; ; * ; * * * * ; # @ @ @ @ @ @ o X @ o o o @ @ @ @ ",
"@ @ o o . X o o o . o + & ; ; ; & * * ; * ; * ; ; ; : : : ; * * & & ; ; ; * * * * * ; ; ; ; ; : : : ; * * + @ @ o o o o o + o @ ",
"@ @ @ @ @ o X o O & * ; ; ; ; ; ; : * * * & ; ; ; * * * ; : * * ; ; ; ; ; ; : * * * & * ; ; * * * ; : * * ; # @ @ @ @ @ @ @ @ @ ",
". + + + o o @ o @ @ + @ & * * ; : ; ; ; ; ; * ; * * * ; * & : : ; * * * ; : ; ; ; ; ; * * * * * * ; & ; @ + @ o o + X . . . . . ",
"@ @ o @ @ @ @ + X # * @ * * * : ; ; ; ; * * * * * * * * ; ; * * * * * * : ; ; ; ; ; * ; * * * * * ; ; * * & @ @ @ @ + o X X X @ ",
"@ @ o X o @ @ * * * & ; ; ; * & & & & * * * & ; : : ; & ; ; * * ; ; ; ; & & & & * * * & ; : : : & ; ; * * ; ; * + + o o o o @ @ ",
"o o X . X X X . ; * ; ; ; ; ; ; ; ; ; ; ; ; ; ; ; ; : * ; ; * * ; ; ; ; ; ; ; ; ; ; ; : ; : ; : ; ; ; * * ; : & @ @ @ @ @ @ @ o ",
"o o . @ @ + # @ * & & & & * & * ; : : < ; * * ; ; ; ; ; & * = 3 3 3 4 3 3 3 3 , < ; * * ; ; ; ; ; & * & & & & * & @ @ @ @ @ @ o ",
"@ + o o ; ; ; ; ; ; ; ; * * * ; * * * ; ; ; * ; : : ; ; ; ; A :.>.>.>.*.' W W g * ; ; * ; : : ; ; ; ; ; ; ; * * * # o @ @ @ @ @ ",
"o o @ # ; ; & & ; : : * * ; ; & & : * * * * ; ; d S B h h S :.i.i.i.i.i.r.-.+.W h d 1 ; : * * ; * & * ; : : * ; ; * @ ; o o X @ ",
"o * * * ; ; ; : < : : ; ; ; ; * * * = 3 4 4 e e ( 0.&.X.&.r.u.i.i.i.i.i.i.t.-.X.` R a = ; * * ; ; : : < : ; ; ; ; ; * * & @ o o ",
"o o * * & & & ; * * ; ; * & & * * * d W O.,.,.,.*.-.q.r.t.u.i.i.i.i.i.i.i.u.r.-.X.` R g = ; * & & * ; * ; ; ; & & * * * * & + @ ",
"o o @ * ; ; : * ; ; * * * * * * = d ) 9.y.p.u.e.9.9.u.p.i.i.i.i.i.i.i.i.i.i.i.9.X.X.~ N = ; ; ; : * ; ; ; * * * ; * * * * : @ o ",
"o @ & ; : ; ; ; & & * * ; ; < , f ) 9.u.i.u.r.=.7.u.i.i.i.i.i.i.i.i.i.i.i.i.y.7.X.X.^ V 1 * : : ; ; * & * * * ; : < < : @ + + o ",
"o @ * * * ; * & * * * * ; < < j ) 9.y.i.i.e.=.+.9.i.i.i.i.i.i.i.i.i.i.i.i.t.-.$.X.X.` ^ V 2 & * ; * * * * * * < < < ; * * * * @ ",
"@ * * * * & ; ; ; * ; * * * * h ^ @.&.=.7.-.X.X.=.q.u.p.i.i.i.i.i.i.u.q.0.7.#.X.X.X.` ~ R N 2 * * ; ; * ; ; & * * * * * & + o o ",
"o + @ & ; ; ; * ; * ; ; ; * * i T R R ^ o.$.X.X.X.$.e.u.u.u.i.i.i.p.t.%.X.+.X.X.X.` ~ R T T N 4 > ; * * * ; ; * * * ; ; & @ @ o ",
"+ @ * * & & * & & & * * * * ; d V T _ 0.r.7.+.X.X.+.$.%.-.t.i.i.i.i.t.$.X.X.X.X.` ~ R T T T V m 2 & & & * * * * * : ; ; ; @ + o ",
"@ @ # * * ; ; ; ; ; * * * @ & y R X.8.i.p.t.7.#.X.X.X.X.#.7.0.0.0.9.7.$.X.X.X.` ~ R T T T R Q R d ; ; ; * * * # & & & ; * @ @ @ ",
"o o X @ * ; : < * & * ; * * ; u R ;.u.i.i.i.t.-.$.$.+.X.X.+.+.+.+.+.+.X.X.` ` ~ R T T T R ^ ` R g 3 ; & & ; * ; * ; ; & & & + @ ",
"@ @ & @ @ * ; ; ; ; ; * * * ; d R X.q.u.i.i.u.t.t.q.$.X.X.X.X.X.X.X.X.X.^ R R R T T T T R ^ ` R V g > ; ; * * ; * : : : ; * @ @ ",
"@ @ & * ; : ; & * * & & & ; : 3 g R X.0.u.p.i.i.p.u.q.7.9.9.=.X.X.` ^ ^ ^ Q R T T T R ~ ^ $.&.R T m = * * & & & : ; * * ; & @ @ ",
"@ & ; ; ; : : ; * * * & * ; ; ; = M R X.8.r.y.u.i.i.i.i.u.t.9.$.$./ R R ^ ` Q R ! ~ X.$.$.0.;.R V g = * ; * & * ; ; * * * @ o @ ",
"@ @ + & * * ; : : & * ; ; ; : ; ; 3 1 d E X.-.t.i.i.i.i.t.;.9.r.r.-.` ` X.X.` =.q.q.r.t.r.9.X.R g 3 < * & ; ; ; : : ; ; * @ @ @ ",
"X + + @ + # ; * * : : ; & * ; ; : ; ; * u V ^ o.;.7.=.&.@./ @.0.0.0.9.9.-.+.+.-.0.q.0.0.9.X.R g 1 ; & : : ; * & ; ; & + O X . . ",
"+ @ @ @ + @ * * * & & * * * * : ; ; ; ; ; u V V ~ / R V V V ~ ` X.=.e.e.=.` ` ` ` ` ` ` ` R a = * ; ; * & & * * * : @ o . . . o ",
"@ @ o o + @ @ * ; ; * * * * * & & & & * ; = 1 p C R s p p p C R R ! ~ ~ ! R R R R R R R R h 3 < & * ; ; * * * * * @ + o o o + @ ",
"o X . X @ ; * : : & ; : : ; ; ; : : ; ; * , t x v s v x x x v m m m m m m m m a g i i g d 4 ; ; ; : : * * : : ; ; ; ; & @ @ @ o ",
"o o * * ; ; * & * & & & * * & * ; ; : : ; t H G l 9 n D D D b k p k p 9 p p 9 0 < > ; ; ; ; ; ; ; & * * & & & * & & ; & @ @ + o ",
"@ + o * ; : : ; ; ; ; ; * * * ; * * * ; < Z U H 9 % x H D D n n n n n p x n 9 1 ; : ; * ; ; ; : : ; ; ; ; ; * * * ; * * * @ @ @ ",
"+ o @ @ @ ; & & ; ; : * * * * & & ; * , J [ } K 8 $ x H D D K I I K n b n n 9 - * ; ; ; : * * ; * & * ; : : * * * @ o o + + X @ ",
"o @ @ @ * * ; ; < : ; ; ; ; : * & & & q  .6.4.] l 5 n H H H I ] ] I H H K K x 6 * * & * ; * * ; ; ; : < ; ; ; ; @ @ o X X X o o ",
"o o o o o + & ; ; * ; ; * & * ; ; ; * 0  .5.5.4.] D I I H U ] ] ] ] Y Y }  .H l 6 * ; ; ; * * & & ; ; * ; ; & + @ @ + + @ + @ @ ",
"o o @ @ @ * ; * ; ; ; * * * * & & & * q I } 3.5.3.} <.{ U ] ] ] ] ] ] { 3.3.P l 7 > & & * ; ; ; ; * ; ; ; * * @ + . . X X . . o ",
"o @ + o o @ ; * & & * * * * : : : * : > c L { 3.5.5.4.<.] ] { } { ] ] ]  .} K l 7 * & & & & : : ; * * & * * * * ; ; ; o o o o o ",
"o X X X * ; ; * * * & & : < < : ; * * > c L ] { 3.4. .{ ] { <.3.} ] ] ] U K F x 6 - ; * * * * ; ; * * * * & * < < ; * * # + + + ",
"@ + @ @ * & * * * * ; * * ; ; ; & * * - r D I Y }  .{ U U  .2.<.{ U U } ] n x 9 - * * * * * * & * * * * ; ; & ; ; * & @ @ + + + ",
"o @ @ & * : : * ; & : : ; & & & ; ; & * 7 x H Y { ] Y I ] 1.<.] Y I ] 1.] n 9 - & * ; ; & & * : : ; * * * : : * & & * * # @ + o ",
"o @ @ & * & & # * & ; ; ; ; ; : ; ; * * 6 l H U ] Y L ] 3.} { Y L ] 3.} H 9 - ; & & * ; ; ; & & & & & & * ; ; ; ; @ + @ @ + + o ",
"@ @ & & * ; : ; ; ; * & & @ * * * ; * * - r n K L I {  .} U L I { | ] I c - * * * * * * & & * ; : ; ; ; * & & @ & * @ * @ @ o + ",
"+ @ * * * ; : : & & * ; ; * * * * & @ * * 1 9 b H U  .} U H D K } ] D n r * & # & * * * * ; * * : : ; & & : ; * * * * @ o o o @ ",
"+ + @ ; * * ; : : ; * & * * ; ; ; ; * ; ; - 7 9 I  .I H H D D H K H n l 0 ; ; * ; ; * * * * * & ; : : ; ; * & * * ; : < * o o + ",
"@ @ @ * ; : ; & * ; & & & ; : ; * ; * ; ; - - 1 z J c l l l l l l l l 0 - * ; * * ; * * * ; ; : : & * ; * & & & : ; @ @ @ @ + @ ",
"+ @ @ @ : ; ; ; * * ; * * ; ; ; * * ; ; ; * * * - w x l l k l k 9 9 7 - ; * * ; ; ; * * * * : ; ; ; * * ; * * ; ; @ o o + @ + + ",
"@ @ + ; ; ; ; < : & & * * : : ; * ; & * & & * : t n I K D n n n k 9 7 , : * * * * * & & : : ; ; ; : : * & * * ; : : * @ @ @ @ @ ",
"o @ @ @ @ + * * * ; ; ; * * ; ; ; : ; * ; * ; ; 0 b K I I I K D n l 7 - * ; : ; * * * ; ; ; * * * ; * ; ; : ; ; ; * o X X X X X ",
"o @ @ @ + # ; * * & & * * * * : ; ; ; ; ; ; * * - 9 b K U U K D n l 6 * : ; ; ; ; ; ; * * & & & * ; * * * & ; : : ; + o . . . o ",
"# * & * : ; * ; ; ; * * * * * * * * * * * * * ; : , 9 b G H G n l 6 * * * * * * * ; * * ; ; ; ; * * ; ; < : < : ; & & o o o + @ ",
"o X . . + + @ < : & * : : ; ; ; : : * ; & * * ; ; ; - 0 t t 0 0 0 , ; * ; : : ; * * * * ; ; ; ; * : < * < ; ; ; : : & @ @ @ @ + ",
"o o X X @ * * * * * * * * * * * ; ; ; ; : ; : ; ; ; : * * * * * * * * * * ; ; ; ; : ; : ; : ; : ; * * * * ; @ o + o + + + + + o ",
"@ @ o o @ @ + @ * * * * * * * ; ; ; ; : : * * ; ; ; : : * ; * * * * * * * ; ; ; ; : ; & ; ; ; : : * * & X + o X @ o @ @ @ @ @ @ ",
"@ o + @ o + @ + # # & * * * * * & * * * ; ; ; : ; ; ; * * * ; ; ; * * * * & * * * ; ; ; : ; ; ; & @ + @ & * X + @ @ X o @ @ o + ",
"o @ @ @ @ o + @ & ; * ; ; ; : * # & & & & & ; ; * ; ; * * : : ; ; ; ; : ; @ & & & & & * ; * * ; & @ @ @ o o @ @ @ @ X . . . X o ",
"o + o o o o o @ ; ; * * * * * ; ; ; ; * ; ; ; ; * * * * : : ; : ; ; * * ; ; ; ; * * ; & # @ @ # # * & @ + @ o o + @ @ @ @ @ @ @ ",
"o o @ @ @ + o @ # @ * * * * * & & & & ; * & & * ; * * * ; ; ; ; * * * * & & & & ; ; & @ @ # @ @ o o @ @ @ @ o o o X . o X . . o ",
"o @ @ + o o @ # * & @ + @ * ; ; : * ; ; * * * * * : : : * * * * * * * ; ; : ; ; ; ; * * * # o o + @ @ @ o X + @ @ o o X X X X o ",
"o X o o o @ o @ @ @ @ @ & < < < ; * ; * * ; * * * + # + @ * * * & ; < < < ; ; ; * * + o X o o @ o o @ @ @ @ @ @ @ @ @ o o o o o ",
"@ + o o @ @ @ X . o o # # & * * * @ @ * * * & o @ @ * * * * * ; * * : : ; * & @ @ @ # @ o o O @ @ X . X o o o X o @ @ @ @ @ @ @ ",
"+ @ + + o + o . . . . . . o o o + * @ # * @ & @ & & ; + X & @ ; : : & & @ * @ @ @ o o @ @ + o o o . . . . . . o o o o @ @ @ o o ",
"o + @ @ @ # @ o o o o @ o o o o o @ @ @ & @ & ; ; * * @ o o o o * * ; ; # o @ @ @ @ o o @ @ @ @ @ + o o o @ + o o o o @ @ @ @ o ",
"@ @ @ o + + @ @ o o o o o + o @ @ @ @ @ o @ @ & + o o @ @ + o o o + @ + & @ @ @ @ o + @ @ + o o @ @ @ o o o o @ o @ @ @ @ @ o o "
};
