/* XPM */
static char *_b982c49352b46b0e09056bcd33bc1d7tsgzF4rab0amaDjl[] = {
/* columns rows colors chars-per-pixel */
"64 64 42 1 ",
"  c #08090D",
". c #14161E",
"X c #3E332A",
"o c #4C3A30",
"O c #493C32",
"+ c #4D3C31",
"@ c #533F33",
"# c #533F35",
"$ c #534035",
"% c #554035",
"& c #584236",
"* c #5A4437",
"= c #594338",
"- c #5B4539",
"; c #5E4639",
": c #554C3C",
"> c #5E4839",
", c #5B4A3D",
"< c #60473A",
"1 c #60483B",
"2 c #634A3D",
"3 c #654B3E",
"4 c #664C3E",
"5 c #684D3F",
"6 c #242940",
"7 c #5F1166",
"8 c #694E40",
"9 c #6B5041",
"0 c #6E5243",
"q c #6F5344",
"w c #6F5444",
"e c #715544",
"r c #745746",
"t c #745847",
"y c #775A48",
"u c #746344",
"i c #89744F",
"p c #BBA160",
"a c #DDBF78",
"s c #871C92",
"d c #B937C5",
"f c #EECF84",
/* pixels */
"3344443;;;;3;3;<<<<;151448881111111211111182448882111<3;411111;3",
";;&%$$%;;33;;*2;**;;<;;&%$$$&;d32;&s;&&;;;441;;-#%;;43;-;2**-;;2",
"443;2;;1;;14;%%%;;;;1444;2;;3;ss499dsee80e4440e052;;;32;%%%;;;;3",
"2442;1433342&;44449ee09845sdss7d822ds0es0eq000e4442234;&2;;;1423",
"41;<%;;;;%<180ee80eeee0eeettsds7d8ds77sseeeewwettt000314<;;;;<;3",
"34241&&-;80eeeteee9095etd0007sdsd7ds7sd79980tt000et0904832433333",
"&<<<;;3;481480eeteiiiq9esdss7sds7ds7sds7eee9ee000e8e4141;<;%%%%%",
"2224222;;882000te:uiii009sdds7s77d7sds7ddsse00990ee09422222;&&&<",
"44-;;350009eq0088:iuii9es77sd7,,O,X,,7dss778ettt80ee000011;;;;14",
";&%$&&&&e9eteeeet:u:uiee7dd77,OO,OXXO,7s70eeeeeeeet00et84222222;",
";;&22;4408889980etu:u:eee7sd,OXXXXXXXX,7sss0eeeee99988808483443;",
"4;;;eteeeeee000e0Ouu:e0eee77OXX     XXX7d7e0eeerteeeeeq005;24422",
";;44ee88ett000089Xu,uOeafa77XX ..... XXpaffet99e089ett90q94e;;-2",
"19q0eeeryteeeet09OXOuXee0ppaX ......  aaf990e00eeetyeeeeet9982;;",
";1q0889e0qee089ewXOOuXweqfapX .....   Oppafweq0880e9eee980wwe914",
";;40eee0ee0000099OOXuX90eeppX .       Xafr990eeer0eee000e0999e2;",
"144eteee88q0eeyytOXuu8880ffap        Opp0f8888ttee08900eeyyt411;",
";8000e000099tyyt0OXuue0009epa        Oap0qe00090e000090yyye00004",
"400008eq0qe99eee9OOXu000008apX       Xpf089q00099eq0ee80ee009;;;",
";229ete0e9rre999eO,X:e0990f.pp      Xpe0fqee990ete000rr0990e042;",
";308888888qqqqeteO,OX06q0......     ..ee889eqq8888889wqqwttee31;",
"44800eeeee0984990OO,X6666.666...   ...6000000900reeeq99559900853",
";;&90tty880eq0qq0OO,6666..6666........6.6we99e00tye88eqq0qw984<3",
"229450ereeq000errOOO6666.666666.......6.66999009eeree0000erre053",
"4440et08qe888ete9eOO666..6666666......6.66q00qett99q0888te00e914",
"28qerrre00090eee90:X66.6.666666666....6666e000rrrr00e090ee090411",
"4410qeete89eetteee:X66.66.666666666666666668ttqeett080wettee0444",
"-23228e00tte90eereiu.6..6.666666666666666660ee000e9etr09ee044-&&",
"1434;3000880000teeu:....6.66666666666666666e99889ee988000e4;%%%;",
"42&12230ee00000999u:....66.66666666666666669eett90ee0000083;;;;4",
";&%%4eete8etteertt::.....6.6666666666666666eeeeeert09tteeqe44441",
";;50ee0909990090ee:u.....6.6666666666666.66eeeeee900999099e0221;",
"4120ettweeee000e0qq:.......66666666666666669eeetteeeeeq00qe00444",
"1;229e99eet000098e0:i......6.6666666666..666reee090ett90052;22;1",
";34400eeyeeeeet0888:u......6...66666666.6666e00eeeeyeeee84;%%%&;",
";;;;;10eeeee090eee:iu......6....666666...666e0099eewee0342224223",
";;4440eeete00q0888uu:......6....666666...6669eeeeqeet0021&%--%%;",
"<32;;4e099q000ttt0u::...6..6.....66666.6.66699tte0090000e00>&*-;",
";&;;0ee00q88tyyye0:uu...6..6.....6666..6.666000ee000080yyte09;;;",
"3;1189000qe00eee90u::...6..6.....6666..6.66600090000ee9ee0444122",
"14480tt008tte888ee::iu..66.6......666..6.6.e888etew90tt0888094;;",
";248089509eeeeetee:iu:..66.6......666..6...eee9989890eeee522222;",
"44490rreee8884000e:u:e..66...6.....666.66..9880qteee0885804844;;",
"13e00ett890ew00009:::q..66...6.....666.66..00e0qtte89ee00008;;;3",
"<<3e80etre0899eeee0:u0..666..66.....66.66..00e08ettee9809eeye;;;",
"4480et08ee998ete0e:uu0..666..666....66.66..00qerr00e0999te5553;4",
"<345teee80w00eee0euu:0..666..666....66.66.0899teee08e00we4;;142;",
"432eeerte8900rte00:::0..666..666.....6.6..99tteeett0800qtt943334",
";44431e0qeee0eeeet:::9..666...66.....6.6..0eee889e0eeteeee2;;;;;",
";333;8e000000q0teee::e..6666..666......6..e000880e0009eete2-%%%&",
"800ee00eee0988w0000::0...66..66666.......e90eeee0eeeyeyte43;;;;4",
"1;%;424te8qtreqeee0::00...6..66666...6...090eeee0etwyreety043342",
";;-&-w90e000000eeee::tt....6.66666..6....tttetete0000e4;11<<11<;",
"3<;19424q000000qeee:r09e...6..6666......rtq9eeertw08-<1-2;244443",
"2;11;24100008890898:eeetrte...6666.....X9eeeette03<800&;43;;44;;",
";2442;244000eet8808888ee0--....6666..XXX%880e00e5443;<2433&%%%&;",
"11;;;;;0rre0w00eeew0eeee%&*X...6666.XXXX*-e004400e01;22;;1334331",
";;333<;24490w008889**%%*-**XXXX666XXXOX%*-%43333;;3443-;;;%;;%&;",
";131;;19008340eee0e>;*0**;X,OOX-%%%-XXX->;*000;;;142;;;43;;&%%&;",
";;;;<<1443239tyye0e00e0*&@XO,,O%%;>11;---*+1-;;2;1443244432;;;;;",
"1;--24;%%;100ee00448098;+%*XO,%--*>>>*%@@%94;=-44&%&;;;;;3144333",
"241111;%%%%%&-;<204804848%*@o&%;>;%%%&%@@;;431111&%%%%%*;;1443;;",
";<4424<;;;;1;;;;;124820eee02;;;;0eee2;1133;;24444;;;;<<;;;;<133<",
"34411143;;;1<<<34442134821143<;;125283442;<34211242;;<<2;23444;;"
};
