/* XPM */
static char *_c721dc76c3649d58af5aeabf03a9f9fYPvsbCTUQzDvENGm[] = {
/* columns rows colors chars-per-pixel */
"64 64 47 1 ",
"  c #08090D",
". c #14161E",
"X c #392D24",
"o c #3E332A",
"O c #521D1B",
"+ c #4C3A30",
"@ c #493C32",
"# c #4E3C31",
"$ c #533F33",
"% c #533F35",
"& c #544033",
"* c #534035",
"= c #554035",
"- c #584236",
"; c #5A4437",
": c #594338",
"> c #5B4539",
", c #5E4639",
"< c #554C3C",
"1 c #5E4839",
"2 c #5B4A3D",
"3 c #60473A",
"4 c #60483B",
"5 c #634A3D",
"6 c #654B3E",
"7 c #664C3E",
"8 c #684D3F",
"9 c #242940",
"0 c #5F1166",
"q c #694E40",
"w c #6B5041",
"e c #6E5243",
"r c #6F5344",
"t c #6F5444",
"y c #715544",
"u c #745746",
"i c #745847",
"p c #775A48",
"a c #746344",
"s c #6D6D6D",
"d c #89744F",
"f c #BBA160",
"g c #DDBF78",
"h c #871C92",
"j c #B937C5",
"k c #EECF84",
"l c #C4C4C3",
/* pixels */
"6677776,,,,6,6,3333,48477qqq44444445444444q577qqq544436,744444,6",
",,-=**=,,66,,;5,;;,,3,,-=***-,460,-,,--,,,774,,>%=,,76,>,5;;>,,5",
"776,5,,4,,47,===,,,,4777,5,,60,0jwweyyyqey777eye85,,,65,===,,,,6",
"5775,4766675-,7777wyyewq7870wj0hj5h78eyyeyreeey7775567,-5,,,4756",
"74,3=,,,,=34qeyyqeyyyyeyyyij0j0j0hjyywwyyyyyttyiiieee6473,,,,3,6",
"67574-->,qeyyyiyyywew8yiy0ehjhj0hjhiyyyewwqeiieeeyiewe7q65766666",
"-333,,6,7q47qeyyiyyryrwyrjj0hjh0jh0yyiyyyyywyyeeeyqy7474,3,=====",
"5557555,,qq5eeeiyyyyeeeew0jh0hjhj0hwiyyyyyeyeewweyyew755555,---3",
"77>,,68eeewyreeqqqqerqwyi0hjhh0o@@eyqqqqwyeqyiiiqeyyeeee44,,,,47",
",-=*----ywyiyyyyiiyyeyyyy0hhj0o@22oyyiiyyeyyyyyyyyieeyiq7555555,",
",,-55,77eqqqwwqeyiiiyeyyyh0g0oo@oO2owyyiiyeeyyyyywwwqqqeq7q6776,",
"7,,,yiyyyyyyeeeyeeeyyyeyhhh0goooO@O2yeeeeiyeyyyuiyyyyyree8,57755",
",,77yyqqyiieeeeqwierttyyqhhgkooO@22Oo7iyeytyiwwyeqwyiiwerw7y,,>5",
"4wreyyyupiyyyyiewwwwwwyyerfkfg@2o  o@wwwwwweyeeyyyipyyyyyiwwq5,,",
",4reqqwyeryyeqwytteqyttyrwkggko@222@2tttqetdddeqqeywyyywqettyw47",
",,7eyyyeyyeeeeewwweuywweyykfkfoo@2o22wwwuu<adddyueyyyeeeyewwwy5,",
"477yiyyyqqreyyppieiwqqqqeifgfg2ool@ @iyyeq<aaadiyyeqweeyyppi744,",
",qeeeyeeeewwippieeeeyyeeefyfkf2ool22pyeeery<aa<eyeeeewepppyeeee7",
"7eeeeqyrerywwyyywreeqeeeee.ffkf2olslywreeqwa<<ewwyreyyqeyyeew,,,",
",55wyiyeywuuywwwyyweyye999f..fkg@2lswyyewry2aaeyiyeeeuuewweye75,",
",6eqqqqqqqrrrryiyyeqqe.999999f.ko@22iyyyqq2@aa@qqqqqwtrrtiiyy64,",
"77qeeyyyyyewq7wweyeee.999999f..f.ooqwwyeee2@a2@@uyyyrww88wweeq86",
",,-weiipqqeyrerreq8er.99999999....eerrqqqt@<2@@oipyqqyrrertwq736",
"55w78eyuyyreeeyuuuey99999999..9.....uuueyy@aooooyyuyyeeeeyuuye86",
"777eyieqryqqqyiywyey99999999...9.....wyyey@<22@@iwwreqqqiyeeyw47",
"5qryuuuyeeeweyyywey9.9999.999......9.99.y@@<@@ouuueeyeweyyewe744",
"774eryyiyqwyyiiyyyq999999...9.....99.9.@@2@<<aryyiieqetyiiyye777",
">5655qyeeiiyweyyuy999999....99....9.9.@22@oa<aeeeywyiuewyye77>--",
"4767,6eeeqqeeeeiyy999999....99...99.9@@@2@@a<dqqwyywqqeeey7,===,",
"75-4556eyyeeeeewww9999.99....999999.9@@@oyoa<aiiweyyeeeeeq6,,,,7",
",-==7yyiyqyiiyyuii9999.99....999999.9oo.yww<dayyyuiewiiyyry77774",
",,8eyyewewwweeweyy9999..9....999999.9..iiyy<d<yyyweewwwewwye554,",
"745eyiityyyyeeeyer9999..9....999999.9..tyiy<a<yiiyyyyyreeryee777",
"4,55wywwyyieeeewqy99999......99999..9.yeeyyda<yyeweyiiwee85,55,4",
",677eeyypyyyyyieqq99999..9....99.9..9.qqqqqa<<eyyyypyyyyq7,===-,",
",,,,,4eyyyyyeweyyy99999..9....999...9.yyweya<dewwyytyye675557556",
",,777eyyyiyeereqqq99999..99....999.9..qqyyq<<ayyyryyiee54-=>>==,",
"365,,7yewwreeeiiie999999..99.......9.iyyyeww<<diyeeweeeeyee1-;>,",
",-,,eyyeerqqipppye999999..99.......9.yeeeryy<dayyeeeeqeppiyew,,,",
"6,44qweeeryeeyyyw999.999..999.....99.eeeewwe<a<weeeeyywyye777455",
"477qeiieeqiiyqqqy999.999...99.....99.eywqeyydaqyiytweiieqqqew7,,",
",57qeqw8ewyyyyyiy999.9999..999....9..yyywweya<wwqwqweyyyy855555,",
"777weuuyyyqqq7eee999.9999..9999...9..eyeeeew<<<riyyyeqq8qe7q77,,",
"46yeeyiiqweyteee9999..999...99999.9...w8qee<ad<riiyqwyyeeeeq,,,6",
"336yqeyiuyeqwwyy9999..999...999..9....yeyye<<<eqyiiyywqewyypy,,,",
"77qeyieqyywwqyiy9999...99....9999....9yeeyee<d<uueeyewwwiy8886,7",
"3678iyyyqeteeyyy9999...99....99......eeyyye<da<yyyeqyeety7,,475,",
"765yyyuiyqweeuiy9999...99............eeeeeww<<yyyiieqeeriiw76667",
",77764yeryyyeyy...99...99...........yyiyeeey<a<qwyeyyiyyyy5,,,,,",
",666,qyeeeeeere...99....99.........eiyyyyyy<d<<qeyeeewyyiy5>===-",
"qeeyyeeyyyewqqt...99....9..9......qeeeeeey<da<yyeyyypypiy76,,,,7",
"4,=,757iyqriuyr...99........9....iyyeyyeee<<<<yyeyitpuyyipe76675",
",,>->tweyeeeeee...9.............eeyeeyyyyii<<<yiyeeeey7,4433443,",
"63,4w757reeeeee................eeereeyyyuirw<<yuiteq>34>5,577776",
"5,44,574eeeeqqwe..q..........tyyywqqeqwqwyyy<<iye63qee-,76,,77,,",
",5775,577eeeyyiqq-==@....@XXXX1,yryut7ewqqqe<<ey8776,35766-===-,",
"44,,,,,euuyeteey>>>;@@@@@@XXXXX1>yeeyyyyetye<<7eeye4,55,,4667664",
",,6663,577wetee====;@@@@22@XXXXX>>eeqqqqerq7<666,,6776>,,,=,,=-,",
",464,,4weeq67ey,,;,1,@@22@2@=;;>===yyyyyiyeeee,,,475,,,76,,-==-,",
",,,,33477656wip4,;,;;@@@22@2&;;==,1ppyyyre44>,,5,4776577765,,,,,",
"4,>>57,==,4eeyye-=$=;=@@@@;>===>>;iiieq76qw7,:>77-=-,,,,,6477666",
"574444,=====->,35-$=;$=*==;$+-=,1yqqqeq75,,764444-=====;,,4776,,",
",377573,,,,4,,,,,457q5eyyye5,,,,eyyy5,4466,,57777,,,,33,,,,34663",
"67744476,,,433367775467q544763,,4585q6775,+$=$#4575,,335,56777,,"
};
