/* XPM */
static char *_053715e92f14d3dafda5b7b560cec84IWA9FR21iq0cNH0g[] = {
/* columns rows colors chars-per-pixel */
"64 64 50 1 ",
"  c #08090D",
". c #14161E",
"X c #3E332A",
"o c #521D1B",
"O c #4B3A30",
"+ c #4C3A30",
"@ c #493C32",
"# c #4D3C31",
"$ c #533F33",
"% c #533F35",
"& c #652723",
"* c #712B28",
"= c #544033",
"- c #534035",
"; c #554035",
": c #584236",
"> c #5A4437",
", c #594338",
"< c #5B4539",
"1 c #5E4639",
"2 c #554C3C",
"3 c #5F493A",
"4 c #5B4A3D",
"5 c #60473A",
"6 c #60483B",
"7 c #634A3D",
"8 c #654B3E",
"9 c #664C3E",
"0 c #684D3F",
"q c #242940",
"w c #5F1166",
"e c #694E40",
"r c #6B5041",
"t c #6E5243",
"y c #6F5344",
"u c #6F5444",
"i c #715544",
"p c #745746",
"a c #745847",
"s c #775A48",
"d c #746344",
"f c #6D6D6D",
"g c #89744F",
"h c #BBA160",
"j c #DDBF78",
"k c #871C92",
"l c #B937C5",
"z c #EECF84",
"x c #C4C4C3",
"c c gray82",
/* pixels */
"8899998111181815555160699eee66666667666666e799eee766658196666618",
"11:;--;118811>71>>11511:;---:16871:11::11199611<%;11981<17>><117",
"9981711611691;;;1111699917l1811k9rrtiiieti999tit07111871;;;11118",
"799716988897:19999riitre90kkrttlk7790tiitiyttti99977891:71116978",
"9615;1111;56etiietiiiiklkkwlaytlkeikirriiiiiuuiaaattt86951111518",
"89796::<1etiiiaiiirtr0iaklkwlalkwwkkiiitrretaatttiatrt9e87988888",
":55511819e69etiiaiiylyriwklklwlkwklwiaiiiiiriitttiei9696151;;;;;",
"777977711ee7tttaiiiiklkkwklkwlkwklkwaiiiiitittrrtiitr9777771:::5",
"99<1180tttriytteeeetykllkwkwwlwklkwllkkeriteiaaaetiitttt66111169",
"1:;-::::iriaiiiiaaiikwwklw44@4X44wlkkwwiitiiiiiiiiattiae97777771",
"11:77199teeerretiaaawllww4@@4@X@@4wkwiiaaittiiiiirrreeete9e89981",
"9111iaiiiiiitttitttiiwkl4@*X@4@X*X4wkkkttgggiiipaiiiiiytt0179977",
"1199iieeiaatttteratyuuww@*ooX@X*ooXwlwaigggd2rriteriaartyr9i11<7",
"6rytiiipsaiiiiatrrrrzzjh*X@Xo4&X@Xowwjzrggdg2ttiiiasiiiiiarre711",
"16yteerityiiteriuuteiuzjj@  X4X  @hjhhuugd2d2yteetiriiiretuuir69",
"119tiiitiitttttrrrtpzjhh@444X4X444@hjzrr2d2dtiiiptiiitttitrrri71",
"699iaiiieeytiissatareezjX@4X4@4X4@Xhhaiit2ddeeaaiiterttiissa9661",
"1etttittttrrassattttizthh@@@ X @@@hjzztttd4@Xtrtittttrtsssitttt9",
"9tttteiytyirriiiryttetthj@cX444Xc@jhiryt4444@ttrriytiietiittr111",
"177riaitirppirrriirtiitzhXxfxfxfxXhjriitXXX@Xrtiaitttpptrrtit971",
"18teeeeeeeyyyyiaiiteetzq.hXxfxfxXhh.ziiiXXX@Xyeeeeeeruyyuaaii861",
"99ettiiiiitre9rrtitttt.qq..X44@X.....ritt@@XX@ttpiiiyrr00rrtte08",
"11:rtaaseetiytyyte0ty.qqq...4@4...qqq..eedg2X@ttasieeiyytyure958",
"77r90tipiiytttippptii.q.q........qqqq...i2d2@4triipiittttippit08",
"999tiateyieeeiairitiiqq.q.......qqqqqq.q.2dg@4iaarryteeeaittir69",
"7eyipppitttrtiiirtiiiqqqqq....qqqqq.qqqqq2dg@@ppppttitrtiitrt966",
"996tyiiaieriiaaiiieteqqqqqqqqqqqqqqq.qqqqg2d@Xyiiaatetuiaaiit999",
"<7877eittaairtiipiitiqqqqqqqqqqq..qq.qqq.d2d@Xtttiriaptriit99<::",
"698918ttteettttaiiiiiqqqqqqqqqq...q.qqqq.dg2Xreeriireettti91;;;1",
"97:6778tiitttttrrrrt.qq.qqqqqq....q.qqq..2g2Xiaartiittttte811119",
"1:;;9iiaieiaaiipaaui.qq.qqqq.....q..qqq.@2d2Xiiiipatraaiiyi99996",
"110tiitrtrrrttrtiiap.q..........qq..qq..@2dgXiiiirttrrrtrrit7761",
"967tiaauiiiitttityya..q.......qqq..qqq..X22diiiaaiiiiiyttyitt999",
"6177rirriiattttreitt..qq....qqqqq..qqq...g2dpiiitrtiaartt0717716",
"1899ttiisiiiiiateee.q.qq...qqqqq...qqq...d22ittiiiisiiiie91;;;:1",
"111116tiiiiitrtiiit.q.qqqqqqq.qq...qq...d2d2ittrriiuiit897779778",
"11999tiiiaittyteeer.qqqqqqqq..q....qq...g22eriiiiyiiatt76:;<<;;1",
"587119itrrytttaaat..qq.qqq...q.....qq...dg2rrraaittrttttitt3:><1",
"1:11tiittyeeasssit..qq.q....q.....qqq...2d2itttiittttetssaitr111",
"8166ertttyittiiirt..qq.....q......q.q....dg2tttrttttiiriit999677",
"699etaatteaaieeeii..qq.....q.....qq.q....2ddeeeiaiurtaateeetr911",
"179eter0triiiiiaii..qq....q......qq.q...d22diirrerertiiii0777771",
"999rtppiiieee9tttit.qqq.........qqq.....g22deetyaiiitee0et9e9911",
"68ittiaaertiuttttr9.qqq.........qqq..q..dg22tityaaieriitttte1118",
"558ietiapiterriiiit.qqq.........qqq..q..2dg2titeiaaiiretriisi111",
"99etiateiirreiaitit..qq........qqqq..q...2d2tyippttitrrrai000819",
"5890aiiietuttiiitii..qq........qqqq..q...222rraiiiteittui9116971",
"987iiipaierttpaittet.q.q.......qqqq..q...d2raaiiiaatettyaar98889",
"199986ityiiitiiiiairi..q......qqqq.......dd2iieeritiiaiiii711111",
"18881eittttttytaiiiiii.q.....qqqqq.......2ddtteetitttriiai7<;;;:",
"ettiittiiitreeuttttitt......qqqqqq.......222iiiitiiisisai9811119",
"61;1979aieyapiyiiityett.......qqqq.......222iiiitiauspiiast98897",
"11<:<urtittttttiiiiiaaapp.......q........22aiaiaitttti9166556651",
"8516r979yttttttyiiiaptriiiaa@@..q........22riiipaute<56<71799998",
"71661796tttteerteretiiiapa@@@@@.........r22iiaait85ett:198119911",
"179971799tttiiaeeteeeeiit@@@@@@i....XX..e22titti0998157988:;;;:1",
"6611111tppituttiiiutiii<@@@@@@33<...XXiitu2tt99ttit6177116889886",
"1188851799rtutteeertte;@@@@@@@<<<<>@@XXety298888118998<111;11;:1",
"1686116rtte89tiiitiai>>>@@@3;>><;;@4@@@<aitttt1116971119811:;;:1",
"111155699878rassitit><>>:$;$=>>;;4444@X<yt##<1171699879998711111",
"61<<791;;16ttiitt99e>;;O#;><;;;<4@44XXX$8;;;+,<99:;:111118699888",
"7966661;;;;;:<157t9et$;-;;>$+:;1@X@X@:;971+$86666:;;;;;>11699811",
"15997951111611111679e7><<1:$++++><<<$+66881179999111155111156885",
"89966698111655589997689e766985116707e899715897667971155717899911"
};
