/* XPM */
static char *_df4d6c3f6a745f5c774ca2ed3b9e7c14udabqETWGSQIylk[] = {
/* columns rows colors chars-per-pixel */
"64 64 43 1 ",
"  c #08090D",
". c #14161E",
"X c #3E332A",
"o c #47362E",
"O c #48372E",
"+ c #4B3A30",
"@ c #4D3A30",
"# c #493C32",
"$ c #4D3C31",
"% c #513D32",
"& c #544033",
"* c #564136",
"= c #594337",
"- c #5A4437",
"; c #5B4438",
": c #5E4639",
"> c #554C3C",
", c #5F483A",
"< c #5B4A3D",
"1 c #60473A",
"2 c #60483B",
"3 c #634A3C",
"4 c #654B3E",
"5 c #674D3F",
"6 c #684D3F",
"7 c #242940",
"8 c #5F1166",
"9 c #694F40",
"0 c #6B5041",
"q c #6D5242",
"w c #6F5344",
"e c #6F5444",
"r c #705444",
"t c #745746",
"y c #755947",
"u c #775A48",
"i c #746344",
"p c #89744F",
"a c #BBA160",
"s c #DDBF78",
"d c #871C92",
"f c #B937C5",
"g c #EECF84",
/* pixels */
"3333332::124:32:::::25133333:::221232:::::6353333:::223:42:::::4",
"::;****::42::*;***::::::=***::2f1:*=d**:::22:563*=::52:=*;**=::1",
"555:3:332235;=**::24499513:1533dd90qfdyqqy999qqq9522253;**=::2:5",
"2555:3532255;3qqqqqrr09q9rqdfdd8f00qfdrrdrq900yq0522353;41::2542",
"53:1*-;;-=230rrr9qqeqrqrrryyydfd8frfd88ddqwwrrrtyurqq4292:222225",
"35453:;23qerrrrrryq0q9rrrf9qr8dfdf8fd8df8qqrrr990rrqqr9335522222",
"=222:15:55149qqrtrrrrr0eqdfdd8dfd8fd8dfd8rr0qqqqqr9r5:52:2:*****",
"42;5422:=0q699qrrrrrqqeeqqdffd8d88f8dfd8ffddqqqqqrrqqq44421:::;3",
"43==:35qrqqrrrq0qq9qq00ryd88df8<<#<X<<8fdd88rtyy9rrqqrrq12222235",
"::=*****rqrrrrrrrrrpppttt8ff88<##<#XX#<8d8tyryryrrrqqrrq9222222:",
"2:=35509q999009qrt>ippprrr8df<#XXXXXXXX<8dddrrrrrq00999q95955552",
"5:::rrrrrrrr990r99>pipptsyr88#XX     XXX8f8qryyrrrrrrrq990:25522",
":199rr99ryyqrrr90r>i>ipr9gs88XX ..... XXasggt00rq9qryy0rrq5r:;-3",
"2qq9rrryuytrrrrqqqqi>i>r9qaasX ......  ssgqer00rrtyuyrrrrrqqq93:",
"::qe990rqrrrq90qqqoi>i>er0gsaX .....   #aasgqrq99qr0rrr09qqqq0:4",
"::5qrtrqrrq99qeqqq#ii>OerrraaX .       Xsgqqqrrryqrrr099rqqqqr0:",
"199ryrrr99qqrruuyqXi<i#9qyggsa        #aa9g999yyrrq90qqrruuy633:",
"19990rq99qqqruurq9#X#iX.99rras        #saqq9999qr099eqqyuur09995",
"5qqqqqrrwqrqqqqq0rX##iX.qq0rsaX       Xag00rqqqqqrrqqrqqqqqqq2::",
":25qrrr0tqrrrqqqtr###iX.qrrg.aa      Xaqqgrrqqwrrrqrqrrqqqrrq541",
"25q0900999qqqqryrr####7.........     ..7990qqq99q9990qqqqttrr53:",
"55900rrrrrqqq5990rX##777..7777...   ...7790qqq9qrrrreqq9699qq434",
":::0qryu09qwqqrrq99#777..777777........7.7r00reqyuy99rqeqrr09934",
"44639errrreqqqryyy0p777..7777777.......7.7.99qeqrrrrrqqeqtyyrq34",
"459wryq9qe999rtr0r>p7.7..777777777....7777.qqqryt00qq999yrqqr024",
"40erryyrqeq90rrr9q>i7.7.7.7777777777777777..qqryyyeqr09qrrq9q313",
"5520qqryr9qrrtyrrr>i7.7.7.7777777777777777..yyqqqtyq9rrryyrrr544",
"=22220r0qyyr9qrryr>>..7.7.7777777777777777..rrqqqr9ryrq9rr0::=**",
"243524qqq99qqqqyrrr>..7.77.7.7777777777777...0990rr099qqqr5:***:",
"54-:245qrr0qqqq9999>i..7.7.7.777777777777....tyy9qrrqqqqq52:::15",
":=*;6rryr9rytrrtyy>pi..7.7.7.777777777777....rrrrryq0tyrrrr94441",
"::0qrrq9q999009qrt>i>..7...7..7777777777...7.rrrr000999q99r0443:",
"512qrytrrrrrqqqrqq>i>..7...7...777777777...7.rryyrrrrreqqrrqq544",
"1:446r99rtyqqqq90rq>>i.....7....7777777....7.qqrq90ryy0qq5::22:3",
":444qqrrurrrrryq999>i>.....7....7777777....7.qqrrrrurrrr94:;;;;:",
":::::3qrrrrrq90rrrq9>>..7........77777..7..7.qq99rrqrr0244225224",
"::555qrwrteqqeq999qr>p..7........7777...7.77.rrrrqrrtqq42=*-=**:",
"142::6rw99eqqeyyyqyq>i..7........7777...7.77.9yyrqq90qqqrrr3;:::",
":=;;qreqqe99yuuyeqq>pi..77........777...7.77.qqerqqqq9quuyrq0222",
"413309eqqer0qrrr0qqii>..77........777...7.77.qq00qqqrr9rrq955222",
"1459qytqr9yyr999rr9i>>..77...7.....777..7777999ryrqqqyyq999q952:",
":359099609rrrrryrrq>ii..77...7.....777..7777rr9999990rrrr523422:",
"5560qttrrr9995qqqrqi>>p.777..77.....77..777799qeyrrrq9969q5044:1",
"14rqqtyy99qreqqqq95>>pi.777..777....77..77770rqeyyr99rrqqqq6:::4",
"224r9qrytrq900rrrrq>pi>.777..777....77..7777qeq9rtyrr09q0rrur::1",
"556qryq9rr999ryrqrq>i>q.7777.7777....7..7.77qertt00rq999yr555515",
"2449yrrr9qeqqrrrqer>>>9.7777..777....7..7.7700yrrrq9rqqer5::1431",
"553rrrryr90qqtyrqe9q>iqy7777..7777......7.77yyrrryyq9qqeyyq54445",
":44432rqqrrrqerrryr>iirr..7....77777......77rr990rqrryrrrr3;:::;",
":44419rqqq0qqeqyrrrii>qq9.7....777.777...77700990rqqq9rtyr3;***=",
"9q0rrqqrrrq099eqqqq>>>qrr.......77.......777rrrrqrrruruyr652:::5",
"2;*:525yr9rytrwrrrq>>>qrr.......7.X......77qrrrrqryqurrryuq54453",
"::-=:r0qeqqqqqqerrrr>>tttt##.....XXX...rryyyryryrqqqqr5:1111221:",
"41:29435eqqqqqqerrry>>0rrr####qqXXX#XXrrryw0rrrtyrq9;12=3:255554",
"3:22:352q0qq990q9q9q>>ryry####rXXX###XX90rrrrttrq416qq=:44::44::",
":3553:356qqqrry09q99>>rrqw####yXX#####X9999qrqqr9554:12544-***=:",
"11:::::qrrrqeqqrrreq>rrr9q####:,###<##;;-;rqq55qqrq2132::2445442",
"::4441:3550qeqq9990q>*9qr-####;;#<<##***-;*54444::5554;::;*::**:",
":241::20qq645qrrrqr::--q-::###-;###;::;;,:--qq:::253:;:54::=**=:",
":;::112555340yuurqrq-:qq=%*%&--**:,22:;;;-$$;::3:2554355543:::::",
"2:;;35:**:2qqerqq559q09:$*-;***;;-,,:-*%%***:;;55=*=:::::4255444",
"352222:*****=;:13q59q5959*-%+**:,:***=*%%@@542222=*****-::2554::",
":155351::::2:::::23593qrrr=%@@@@-;;;%@$$%%::35555::::11::::12441",
"45522254:::2111455532459322541::236394553:145322353::113:34555::"
};
