/* XPM */
static char *bbc2446f004044a9a5f27f101472483fNMe7vgZqidCNRwtC[] = {
/* columns rows colors chars-per-pixel */
"64 64 46 1 ",
"  c #08090D",
". c #14161E",
"X c #392D24",
"o c #3E332A",
"O c #521D1B",
"+ c #4C3A30",
"@ c #493C32",
"# c #4E3C31",
"$ c #503D32",
"% c #533F35",
"& c #544033",
"* c #534035",
"= c #554035",
"- c #584236",
"; c #5A4437",
": c #5B4539",
"> c #5E4639",
", c #554C3C",
"< c #5F493A",
"1 c #5B4A3D",
"2 c #60473A",
"3 c #60483B",
"4 c #634A3D",
"5 c #654B3E",
"6 c #664C3E",
"7 c #684D3F",
"8 c #242940",
"9 c #5F1166",
"0 c #694E40",
"q c #6B5041",
"w c #6E5243",
"e c #6F5344",
"r c #6F5444",
"t c #715544",
"y c #745746",
"u c #745847",
"i c #775A48",
"p c #746344",
"a c #6D6D6D",
"s c #89744F",
"d c #BBA160",
"f c #DDBF78",
"g c #871C92",
"h c #B937C5",
"j c #EECF84",
"k c #C4C4C3",
/* pixels */
"5566665>>>>5>5>2222>37366000333333343333330466000433325>633333>5",
">>-=**=>>55>>;4>;;>>2>>-=***->354>->>-->>>663>>:%=>>65>:>4;;:>>4",
"665>4>>3>>36>===>>>>3666>4>>5>>96qqwttt0wt666wtw74>>>54>===>>>>5",
"4664>3655564->6666qttwq06760qwwh94967wttwtewwwt6664456>-4>>>3645",
"63>2=>>>>=230wtt0wttttwtttuuugwhg9ht9qqtttttrrtuuuwww5362>>>>2>5",
"56463--:>0wtttutttqwq7tutwwwuhg9h9h9httwqq0wuuwwwtuwqw6054655555",
"-222>>5>60360wttutteteqtewwtwghg9hghgu9ttttqttwwwt0t6363>2>=====",
"4446444>>004wwwuttttwwwwqqqwt9gh9ghg9hhtttwtwwqqwttwq644444>---2",
"66:>>57wwwqteww0000se0qtuut0tg9hghg9gh90qtw0tuuu0wttwwww33>>>>36",
">-=*----tqtuttttuusssstttttwuu@@o9gghg9ttwttttttttuwwtu06444444>",
">>-44>66w000qq0wtsspp,tttttt0o11@o9hgg9uutwwtttttqqq000w0605665>",
"6>>>tuttttttwwwtwspps,wtttuuo1Oo@oo9f9gwwutwtttyuttttteww7>46644",
">>66tt00tuuwwww0q,ppp,tt0wtq1O@Oooof9gggwtrtuqqtw0qtuuqweq6t>>:4",
"3qewtttyiuttttuwqq,,,qttwetoO11@Ooojfggqqqqwtwwtttuitttttuqq04>>",
">3ew00qtwettw0qtrrppprrteq0@o  o1@fdjdrr0wrrtew00wtqtttq0wrrtq36",
">>6wtttwttwwwwwqq@pppqqwttt1@111@ojffjqqyyqqwtttywtttwwwtwqqqt4>",
"366tuttt00ewttii1@ppp000wuu11o1@oodjdjttw00000uuttw0qwwttiiu633>",
">0wwwtwwwwqquiiu11@@p@wwwqt@ @koo1fdfdwwwetwwwqwtwwwwqwiiitwwww6",
"6wwww0tewetqqttto111@1wwww0w11koo1djdqdww0qewwwqqtewtt0wttwwq>>>",
">44qtutwtqyytqqq@@111@wqqwuykako1djdd.twqettqqwtutwwwyywqqwtw64>",
">5w0000000eeeetuto@@@@eew000ak1@fjd..d8880qtee000000qreeruutt53>",
"660wwtttttwq06qqwtoo1@wqqwty11@oj.d888888.wwwqwwyttteqq77qqww075",
">>-qwuui00wteweew0po@1@wtwtuioo.d..d888888.qqtwwuit00teewerq0625",
"44q67wtyttewwwtyyyp,o@@@twwtyy....888.888..qqwwqttyttwwwwtyytw75",
"666wtuw0et000tutqs,oo1@@@8ut0w..88...8....8.wetuuqqew000utwwtq36",
"40etyyytwwwqwtttqp,p@@1@@@...w..888...88...8wwyyyywwtwqwttwqw633",
"663wettut0qttuuttps,o@11@@.8888.88.88...8888.uettuuw0wrtuuttw666",
":45440twwuutqwtty,s,to@@@@..8888888.888..8888twwwtqtuywqttw66:--",
"3656>5www00wwwwut,p,tt@@@o....88.88.......88..00qttq00wwwt6>===>",
"64-3445wttwwwwwqq,pseqwooo....88.888.......88.uuqwttwwwww05>>>>6",
">-==6ttut0tuuttyu,,p0wttt......88..88.......8.tttyuwquuttet66663",
">>7wttwqwqqqwwqwts,pttttt.......888.........8.tttqwwqqqwqqtw443>",
"634wtuurttttwwwtwp,,utqtt.......88888......88.tuutttttewwetww666",
"3>44qtqqttuwwwwqp,p,tttyw.......8888888..8888.ttwqwtuuqww74>44>3",
">566wwttitttttuws,,000ttw........888888888888.wttttitttt06>===->",
">>>>>3wtttttwqwtps,qttttw....8....8888888888..wqqttrttw564446445",
">>666wtttutwwew0,p,tw00wt.........888888888...tttettuww43-=::==>",
"254>>6twqqewwwuupsurwqqqw.8........88888888...uutwwqwwwwtww<-;:>",
">->>wttwwe00uiii,pwwttwwww....8.....888888....wttwwww0wiiutwq>>>",
"5>330qwwwetwwtt,,,wwqwwwww....8......8888.....wqwwwwttqttw666344",
"3660wuuww0uut00,sp,0ttw000............88.......tutrqwuuw000wq6>>",
">460w0q7wqtttttu,,,qqwttww8....8............8..q0q0qwtttt744444>",
"666qwyyttt0006w,s,wwwt00qw8....8............8..eutttw0070w6066>>",
"35twwtuu0qwtrww,ps,qweqwew8....8..........8.8..euut0qttwwww0>>>5",
"225t0wtuytw0qqtt,p,ttwwwtq8....88...........8..0tuuttq0wqttit>>>",
"660wtuw0ttqq0tut,,wttwwwtt8....888.......8..8..yywwtwqqqut7775>6",
"2567uttt0wrwwtt,p,tttw0wwut....888.....88...8..tttw0twwrt6>>364>",
"654tttyut0qwwyu,,s,w0wwuytt.....8888.......88..ttuuw0wweuuq65556",
">66653twetttwttt,psqtqttw00w....8888......888..0qtwttutttt4>>>>>",
">555>0twwwwwwewu,,,tttww000w.....8888.....88...0wtwwwqttut4:===-",
"0wwttwwtttwq00rw,,wtwwwttttwX....888888..88....twtttitiut65>>>>6",
"3>=>646ut0euyte,,,we0X@@@ttwXX....888888888....twturiyttuiw65564",
">>:-:rqwtwwwwww,,,ttuXX@@@@@XXX...88888888.....utwwwwt6>3322332>",
"52>3q646ewwwwww,,,tuywXX@@@XX@Xw...888888......yurw0:23:4>466665",
"4>33>463wwww00q,,q0wtttXXX@@@XXtt...88888...@..tw520ww->65>>66>>",
">4664>466wwwttu0,w0000ttweXXXXXtte...88.....@@.t7665>24655-===->",
"33>>>>>wyytwrwwt,trwtttt0wwwXXX<::;...8..:.;@@@wwtw3>44>>3556553",
">>5552>466qwrww000qww00wtwww::::::;;.....:=$@@@@>>5665:>>>=>>=->",
">353>>3qww056wtttwtutwwwwtt<=;;:===:>>..<>;@@@11@364>>>65>>-==->",
">>>>22366545quiitwtwwtwww6=$&;;==><33>:::;11@@1@@3665466654>>>>>",
"3>::46>==>3wwttww660wq0><6;:===::;<<<;=$$11111@@6-=->>>>>5366555",
"463333>=====-:>2$-$0w60606w$+-=><>===-=$11@11@@33-=====;>>3665>>",
">266462>>>>3>>>>>#4604wtttw4++++;:::$+##1@1116666>>>>22>>>>23552",
"56633365>>>3222566643560433652>>347405664>256433464>>224>45666>>"
};
