/* XPM */
static char *f6af7e8f119a407a967eef667331aecfOpUAKpCydMCrG7fF[] = {
/* columns rows colors chars-per-pixel */
"64 64 47 1 ",
"  c #08090D",
". c #14161E",
"X c #392D24",
"o c #3E332A",
"O c #521D1B",
"+ c #49382F",
"@ c #4C3A30",
"# c #493C32",
"$ c #4D3C31",
"% c #533F33",
"& c #533F35",
"* c #544033",
"= c #534035",
"- c #554035",
"; c #584236",
": c #5A4437",
"> c #5B4539",
", c #5E4639",
"< c #554C3C",
"1 c #5F493A",
"2 c #5B4A3D",
"3 c #60473A",
"4 c #60483B",
"5 c #634A3D",
"6 c #654B3E",
"7 c #664C3E",
"8 c #684D3F",
"9 c #242940",
"0 c #5F1166",
"q c #694E40",
"w c #6B5041",
"e c #6E5243",
"r c #6F5344",
"t c #6F5444",
"y c #715544",
"u c #745746",
"i c #745847",
"p c #775A48",
"a c #746344",
"s c #6D6D6D",
"d c #89744F",
"f c #BBA160",
"g c #DDBF78",
"h c #871C92",
"j c #B937C5",
"k c #EECF84",
"l c #C4C4C3",
/* pixels */
"6677776,,,,6,6,3333,48477qqq44444445444444q577qqq544436,744444,6",
",,;-==-,,66,,:5,::,,3,,;-===;,460,;,,;;,,,774,,>&-,,76,>,5::>,,5",
"776,5,,4,,47,---,,,,4777,5,,60,0jwweyyyqey777eye85,,,65,---,,,,6",
"5775,4766675;,7777wyyewq7870wj0hj5h78eyyeyreeey7775567,;5,,,4756",
"74,3-,,,,-34qeyyqeyyyyeyyyij0j0j0hjyywwyyyyyttyiiieee6473,,,,3,6",
"67574;;>,qeyyyiyyywew8yiy0ehjhj0hjhiyyyewwqeiieeeyiewe7q65766666",
";333,,6,7q47qeyyiyyryrwyrjj0hjh0jh0yyiyyyydwyyeeeyqy7474,3,-----",
"5557555,,qq5eeeiyyyyeeeew0jh0hjhj0hwiyyyddddeewweyyew755555,;;;3",
"77>,,68eeewyreeqqqqerqwyi0hjhh0o##eyqqqq<aaddiiiqeyyeeee44,,,,47",
",;-=;;;;ywyiyyyyiiyyeyyyy0hhj0o#22oyyiiy<daadyyyyyieeyiq7555555,",
",,;55,77eqqqwwqeyiiiyeyyyh0g0oo#oO2owyyi<aaa<yyyywwwqqqeq7q6776,",
"7,,,yiyyyyyyeeeyeeeyyyeyhhh0goooO#O2yeeee<<<yyyuiyyyyyree8,57755",
",,77yyqqyiieeeeqwierttyyqhhgkooO#22Oo7iyeaaaiwwyeqwyiiwerw7y,,>5",
"4wreyyyupiyyyyiewwwwwwyyerfkfg#2o  o#wwww2aa#eeyyyipyyyyyiwwq5,,",
",4reqqwyeryyeqwytteqyttyrwkggko#222#2ttt2#aa#2eqqeywyyywqettyw47",
",,7eyyyeyyeeeeewwweuywweyykfkfoo#2o22www2aa#2oyyueyyyeeeyewwwy5,",
"477yiyyyqqreyyppieiwqqqqeifgfg2ool# #iyy#a22##iiyyeqweeyyppi744,",
",qeeeyeeeewwippieeeeyyeeefyfkf2ool22pyee#a##oeweyeeeewepppyeeee7",
"7eeeeqyrerywwyyywreeqeeeee.ffkf2olslywre#<2oeeewwyreyyqeyyeew,,,",
",55wyiyeywuuywwwyyweyye999f..fkg#2lswyy#2<aawweyiyeeeuuewweye75,",
",6eqqqqqqqrrrryiyyeqqe.999999f.ko#22iy22#<<arrqqqqqqwtrrtiiyy64,",
"77qeeyyyyyewq7wweyeee.999999f..f.oo.922##a<<dweeuyyyrww88wweeq86",
",,;weiipqqeyrerreq8er.999999......99####ooa<ayeeipyqqyrrertwq736",
"55w78eyuyyreeeyuuuey9999999.9.....99##ooyy<daeewyyuyyeeeeyuuye86",
"777eyieqryqqqyiywyey9.99999..9...99.#o.yey<d<ryiiwwreqqqiyeeyw47",
"5qryuuuyeeeweyyywey..9999999.....99.o.eyyyda<euuuueeyeweyyewe744",
"774eryyiyqwyyiiyyyq.99999..9....999...ywwwa<<iryyiieqetyiiyye777",
">5655qyeeiiyweyyuy.99999...9....999...yyeea<dyeeeywyiuewyye77>;;",
"4767,6eeeqqeeeeiyy.99999...9...9999...yyyy<<awqqwyywqqeeey7,---,",
"75;4556eyyeeeeewww.999.9....99999.9..wwwey<a<aiiweyyeeeeeq6,,,,7",
",;--7yyiyqyiiyyuii.999.9....99999.9..iiyyww<<dyyyuiewiiyyry77774",
",,8eyyewewwweeweyy.999......99999.9..yyiiyy<dayyyweewwwewwye554,",
"745eyiityyyyeeeyer.999..9...99999.9..retyiy<a<yiiyyyyyreeryee777",
"4,55wywwyyieeeewqy.9999.9...9999..9..qyeeyyydayyeweyiiwee85,55,4",
",677eeyypyyyyyieqq.9999.99...999..9.yqqqqqqea<eyyyypyyyyq7,---;,",
",,,,,4eyyyyyeweyyy.9999..9...999.9..yyyyweyy<<<wwyytyye675557556",
",,777eyyyiyeereqqq.9999..99......9..qqqqyyq<<<yyyryyiee54;->>--,",
"365,,7yewwreeeiiie.99999..99.....9..iiyyyeww<d<iyeeweeeeyee1;:>,",
",;,,eyyeerqqipppye.99999..99....99..pyeeery<da<yyeeeeqeppiyew,,,",
"6,44qweeeryeeyyyw.99.999..999...99...eeeeww<a<eweeeeyywyye777455",
"477qeiieeqiiyqqqy.99.999...999...9...eywqeyy<<qyiytweiieqqqew7,,",
",57qeqw8ewyyyyyiy.99.999...9999..9...yyywwey<a<wqwqweyyyy855555,",
"777weuuyyyqqq7eee.99.999...99999.9...eyeeee<d<<riyyyeqq8qe7q77,,",
"46yeeyiiqweyteeee.99..99.....99.9....ew8qeeda<eriiyqwyyeeeeq,,,6",
"336yqeyiuyeqwwyyy.99..99.....999.....yyeyye<<<eqyiiyywqewyypy,,,",
"77qeyieqyywwqyiye.99...9.....99......eyeeyee<<yuueeyewwwiy8886,7",
"3678iyyyqeteeyyye.99...99............eeyyyeq<<iyyyeqyeety7,,475,",
"765yyyuiyqweeuiye.99...99...........ueeeeewwi<<yyiieqeeriiw76667",
",77764yeryyyeyyyy..9...99...........yyiyeeeyy<<qwyeyyiyyyy5,,,,,",
",666,qyeeeeeereiy..9.....9.........Xiyyyyyyee<qqeyeeewyyiy5>---;",
"qeeyyeeyyyewqqtee..9......9.......XXeee###Xey<yyeyyypypiy76,,,,7",
"4,-,757iyqriuyryy..9.......9.....XXX#####XXeyyyyeyitpuyyipe76675",
",,>;>tweyeeeeeeyy...............eX#XX###XXiiyiyiyeeeey7,4433443,",
"63,4w757reeeeeery..#...........eeXX###XXXirwyyyuiteq>34>5,577776",
"5,44,574eeeeqqweq.##..........yyyXXXXXwqwyyyyiiye63qee;,76,,77,,",
",5775,577eeeyyiqq###-.>......,1,>XXXt7ewqqqeyeey8776,35766;---;,",
"44,,,,,euuyeteey####>>>.....1111>>eeyyyyetyee77eeye4,55,,4667664",
",,6663,577wetee#22###--:..::>>>>>>:eqqqqerq76666,,6776>,,,-,,-;,",
",464,,4weeq67ey##2##22:::,,1-::>--->yyyyiyeeee,,,475,,,76,,;--;,",
",,,,33477656wipp##22222:;%-%*::--,14pyyyre44>,,5,4776577765,,,,,",
"4,>>57,--,4eeyyee##22#22$-:>--->>:1iieq76qw-@+>77;-;,,,,,6477666",
"574444,-----;>,35e%222#2--:%@;-,1,qqqeq75,,7%4444;-----:,,4776,,",
",377573,,,,4,,,,,457q5eyyye5,,,,eyyy5,4466,,57777,,,,33,,,,34663",
"67744476,,,433367775467q544763,,4585q6775,367544575,,335,56777,,"
};
