/* XPM */
static char *c5c9b35ea7624ad5eb00560710a9403c3u8GB3H9uaY79GoX[] = {
/* columns rows colors chars-per-pixel */
"64 64 48 1 ",
"  c #08090D",
". c #14161E",
"X c #392D24",
"o c #3E332A",
"O c #521D1B",
"+ c #4B3A30",
"@ c #4C3A30",
"# c #493C32",
"$ c #4D3C31",
"% c #533F33",
"& c #533F35",
"* c #544033",
"= c #534035",
"- c #554035",
"; c #584236",
": c #5A4437",
"> c #594338",
", c #5B4539",
"< c #5E4639",
"1 c #554C3C",
"2 c #5E4839",
"3 c #5B4A3D",
"4 c #60473A",
"5 c #60483B",
"6 c #634A3D",
"7 c #654B3E",
"8 c #664C3E",
"9 c #684D3F",
"0 c #242940",
"q c #5F1166",
"w c #694E40",
"e c #6B5041",
"r c #6E5243",
"t c #6F5344",
"y c #6F5444",
"u c #715544",
"i c #745746",
"p c #745847",
"a c #775A48",
"s c #746344",
"d c #6D6D6D",
"f c #89744F",
"g c #BBA160",
"h c #DDBF78",
"j c #871C92",
"k c #B937C5",
"l c #EECF84",
"z c #C4C4C3",
/* pixels */
"7788887<<<<7<7<4444<59588www55555556555555w688www655547<855555<7",
"<<;-==-<<77<<:6<::<<4<<;-===;<57q<;<<;;<<<885<<,&-<<87<,<6::,<<6",
"887<6<<5<<58<---<<<<5888<6<<7q<qkeeruuuwru888rur96<<<76<---<<<<7",
"6886<5877786;<8888euurew898qekqjk6j89ruurutrrru8886678<;6<<<5867",
"85<4-<<<<-45wruuwruuuuruuupkqkqkqjkuueeuuuuuyyuppprrr7584<<<<4<7",
"78685;;,<wruuupuuuere9upuqrjkjkqjkjpuuureewrpprrruprer8w76877777",
";444<<7<8w58wruupuututeutkkqjkjqkjquupuuuuueuurrruwu8585<4<-----",
"6668666<<ww6rrrpuuuurrrreqkjqjkjkqjepuuuuururreeruure866666<;;;4",
"88,<<79rrreutrrwwwwrtweupqjkjjqo##ruwwwwefffupppwruurrrr55<<<<58",
"<;-=;;;;ueupuuuuppuuruuuuqjjkqo#33ouuppu1sfffuuuuuprrupw8666666<",
"<<;66<88rwwweewrupppuruuujqhqoo#oO3oeuup1fsffuuuueeewwwrw8w7887<",
"8<<<upuuuuuurrrurrruuurujjjqhoooO#O3urrr1sssfuuipuuuuutrr9<68866",
"<<88uuwwupprrrrweprtyyuuwjjhlooO#33Oo8pur1ss1eeurweupperte8u<<,6",
"5etruuuiapuuuupreeeeeeuurtglgh#3o  o#eeees11urruuupauuuuupeew6<<",
"<5trwweurtuurweuyyrwuyyutelhhlo#333#3yyyw3ssutrwwrueuuuewryyue58",
"<<8ruuuruurrrrreeeriueeruulglgoo#3o33eee3#ss3uuuiruuurrrureeeu6<",
"588upuuuwwtruuaaprpewwwwrpghgh3ooz# #puu3ss3##ppuurwerruuaap855<",
"<wrrrurrrreepaaprrrruurrrguglg3ooz33aurrrs3#ooerurrrreraaaurrrr8",
"8rrrrwutrtueeuuuetrrwrrrrr.gglg3ozdzuetrr1so##reeutruuwruurre<<<",
"<66eupurueiiueeeuueruur000g..glh#3zdeuur31##oerupurrriireerur86<",
"<7rwwwwwwwttttupuurwwr.000000g.lo#33puu331ssttwwwwwweyttyppuu75<",
"88wrruuuuurew8eerurrr.000000g..g.oo.0.33#s1srerriuuutee99eerrw97",
"<<;erppawwrutrttrw9rt..000000......0.33##s1seurrpauwwuttrtyew847",
"66e89ruiuutrrruiiiru.000000000.....0.#3#os1ferreuuiuurrrruiiur97",
"888ruprwtuwwwupueuru.0000000..00..00.##or1fsrtuppeetrwwwpurrue58",
"6wtuiiiurrreruuueru.0.0000000....00.0##uu1f1rriiiirrureruurer855",
"885rtuupuweuuppuuuw.0000000.0....00.0o.ee1s1pptuupprwryuppuur888",
",6766wurrppueruuiu.0000000..00..000.0..urfs1uurrrueupireuur88,;;",
"5878<7rrrwwrrrrpuu.000000...00..000.0..uus11eewweuuewwrrru8<---<",
"86;5667ruurrrrreee.000.00....000000.0..ers1fuupperuurrrrrw7<<<<8",
"<;--8uupuwuppuuipp.000.00....00000..0..uu11suuuuuipreppuutu88885",
"<<9ruurereeerreruu.000..0....00000..0..pp1s1suuuuerreeereeur665<",
"856ruppyuuuurrrurt.000..00....0000..0.ryup11fuuppuuuuutrrturr888",
"5<66eueeuuprrrrewu.0000..0....0000..0.urru1fsuuurerupperr96<66<5",
"<788rruuauuuuuprww.0000..00....000.0..wwww1s1rruuuuauuuuw8<---;<",
"<<<<<5ruuuuureruuu.0000...0....000.0..uuers1urreeuuyuur786668667",
"<<888ruuupurrtrwww.0000...00....00.0..wwuu111uuuutuuprr65;-,,--<",
"476<<8ureetrrrpppr.0000...00......00..uuu1sf1eppurrerrrrurr2;:,<",
"<;<<ruurrtwwpaaaur.0000...000.....00..rrr111rrruurrrrwraapure<<<",
"7<55werrrturruuuer00.00....00.....00.rrrre1f1rrerrrruueuur888566",
"588wrpprrwppuwwwuu00.00....000....00.ruew1fs1wwupuyerpprwwwre8<<",
"<68wrwe9reuuuuupuu00.000...0000...00.uuue1s1uueeweweruuuu966666<",
"888eriiuuuwww8rrru00.000....0000..0..rurrr11wwrtpuuurww9wr8w88<<",
"57urruppweruyrrrre000.000....0000.0..re9wr1s1urtppuweuurrrrw<<<7",
"447uwrupiurweeuuuu000.000.....00.0...uuru1f11urwuppuuewreuuau<<<",
"88wruprwuueewupuru000..000.....000...rur1111rtuiirrureeepu9997<8",
"4789puuuwryrruuuru000..000...........rruu111eepuuurwurryu8<<586<",
"876uuuipuwerripurr000..000..........irrrrr11ppuuupprwrrtppe87778",
"<88875urtuuuruuuup.00..00.0.........uupurr11uuwweuruupuuuu6<<<<<",
"<777<wurrrrrrtrpuu.00...0..0........puuuuu11rrwwrurrreuupu6,---;",
"wrruurruuurewwyrrr.00...0...0.....wrrrrrru11uuuuruuuauapu87<<<<8",
"5<-<868puwtpiutuuu.00.......0.....uuruurrr1ruuuurupyaiuupar87786",
"<<,;,yerurrrrrruuu................urruuuup1pupupurrrru8<5544554<",
"74<5e868trrrrrrtuu................trruuuipteuuuipyrw,45,6<688887",
"6<55<685rrrrwwerwe..............#ewwrweweuuuuppur74wrr;<87<<88<<",
"<6886<688rrruupwwrw.X.........##3,,iy8rewwwrurru9887<46877;---;<",
"55<<<<<riiuryrruuuyXXX......22#33,::uuuuryurr88rrur5<66<<5778775",
"<<7774<688eryrrwww-:XXXX..X:,,#333::-wwwrtw87777<<7887,<<<-<<-;<",
"<575<<5errw78ruuur<2<:XXXX<2-###3333<<uupurrrr<<<586<<<87<<;--;<",
"<<<<44588767epaaur<::,::;%-%*##3##33333u,:$$,<<6<5887688876<<<<<",
"5<,,68<--<5rruurr88-:--+$-:,--####333#337--8<>,88;-;<<<<<7588777",
"685555<-----;,<46r8w:%-=--:%@;-<2<--wrw86<<875555;-----:<<5887<<",
"<488684<<<<5<<<<<568w6ruuur6<<<<ruuu6<5577<<68888<<<<44<<<<45774",
"78855587<<<544478886578w655874<<5696w7886<478655686<<446<67888<<"
};
