/* XPM */
static char *_97635bd234d40b9c1e70ee40a7f12c8DQMv1jq9Ybep2wDz[] = {
/* columns rows colors chars-per-pixel */
"64 64 46 1 ",
"  c #08090D",
". c #14161E",
"X c #392D24",
"o c #3E332A",
"O c #521D1B",
"+ c #4B3A30",
"@ c #4D3A30",
"# c #493C32",
"$ c #4D3C31",
"% c #533F33",
"& c #544033",
"* c #534034",
"= c #564136",
"- c #594337",
"; c #5A4437",
": c #5B4438",
"> c #5E4639",
", c #554C3C",
"< c #5F493A",
"1 c #5B4A3D",
"2 c #60473A",
"3 c #60483B",
"4 c #634A3C",
"5 c #654B3E",
"6 c #674D3F",
"7 c #684D3F",
"8 c #242940",
"9 c #5F1166",
"0 c #694F40",
"q c #6B5041",
"w c #6D5242",
"e c #6F5344",
"r c #6F5444",
"t c #705444",
"y c #745746",
"u c #755947",
"i c #775A48",
"p c #746344",
"a c #6D6D6D",
"s c #89744F",
"d c #BBA160",
"f c #DDBF78",
"g c #871C92",
"h c #B937C5",
"j c #EECF84",
"k c #C4C4C3",
/* pixels */
"4444443>>235>43>>>>>36244444>>>332343>>>>>7464444>>>334>53>>>>>5",
">>:====>>53>>=:===>>>>>>-===>>342>=--==>>>33>674=->>63>-=:==->>2",
"666>4>443346:-==>>35500624>2644390qwtyuwwu000www0633364:==->>3>6",
"3666>4643366:4wwwwwttq0w0twww9q9hqqwwwttwtw0qquwq633464:52>>3653",
"64>2=;::;-34qttt0wwrwtwtttu9uh9gh0gttqqwwweetttyuitww5303>333336",
"46564>:34wrttttttuwqw0ttt00h9h9h9ghtttutwwwttt00qttwwt0446633333",
"-333>26>66250wwtytttttqrw9wghgh9ghgwtutttttqwwwwwt0t6>63>3>=====",
"53:6533>-qw700wtttttwwrrwhh9ghg9hg9wttttttqtwwwwwttwww55532>>>:4",
"54-->46wtwwtttwqww0wwqqtu9hg9ghgh9gt0ww0qww0tyuu0ttwwttw23333346",
">>-=====twtttttttttttuyyy9ghgg9o##tttttttssstututttwwttw0333333>",
"3>-466q0w000qq0wtyuitqwtt9ggh9o#11o0qttu,psssttttwqq000w06066663",
"6>>>tttttttt00qt000tttwyug9f9oo#oO1otq00,spssuutttttttw00q>36633",
">200tt00tuuwttt0qtwwwwttggg9foooO#O1q6tw,pppsqqtw0wtuuqttw6t>:;4",
"3ww0tttuiuyttttwwwwwwwtt0ggfjooO#11Oowwww,pp,qqttyuiutttttwww04>",
">>wr00qtwtttw0qwwww0ewwrtqdjdf#1o  o#www0p,,wtw00wtqtttq0wwwwq>5",
">>6wtytwttw00wrwwwtutwwrttjffjo#111#1wwwu1ppwtttuwtttq00twwwwtq>",
"200tuttt00wwttiiuwyq0q00wujdjdoo#1o11utt1#pp10uuttw0qwwttiiu744>",
"2000qtw00wwwtiitw000tw0000dfdf1ook# #t001pp1##0wtq00rwwuiitq0006",
"6wwwwwttewtwwwwwqtww0wrwwdqdjd1ook11wqtwwp1#oowwwttwwtwwwwwww3>>",
">36wtttqywtttwwwytwwttrwwt.ddjd1okakwttww,po##etttwtwttwwwttw652",
"36wq0qq000wwwwtuttw00ww888d..djf#1kauttt1,##ow00w000qwwwwyytt64>",
"660qqtttttwww600qt000w.888888d.jo#1100t11,ppww0wttttrww0700ww545",
">>>qwtuiq0wewwttw00wt.888888d..d.oo.8.11#p,pqtrwuiu00twrwttq0045",
"55740rttttrwwwtuuuqtt..888888......8.11##p,p0wrwtttttwwrwyuutw45",
"560etuw0wr000tytqtwt.888888888.....8.#1#op,swwtuyqqww000utwwtq35",
"5qrttuutwrw0qttt0wtt.8888888..88..88.##ot,spwwtuuurwtq0wttw0w424",
"663qwwtut0wttyuttt0.8.8888888....88.8##wq,s,uuwwwyuw0tttuuttt655",
"-3333qtqwuut0wttutt.8888888.8....88.8o.tr,p,ttwwwt0tutw0ttq>>-==",
"354635www00wwwwutt.8888888..88..888.8..ttsp,qq00qttq00wwwt6>===>",
"65;>356wttqwwww000.888888...88..888.8..0qp,,tyuu0wttwwwww63>>>26",
">-=:7ttut0tuyttyuu.888.88....888888.8..ttp,sttttttuwqyutttt05552",
">>qwttw0w000qq0wty.888.88....88888..8..uu,,ptttttqqq000w00tq554>",
"623wtuytttttwwwtww.888..8....88888..8..wt,p,pttuutttttrwwttww655",
"2>557t00tyuwwww0qt.888..88....8888..8.twwt,,swwtw0qtuuqww6>>33>4",
">555wwttitttttuw00.8888..8....8888..8.0000,spwwttttitttt05>::::>",
">>>>>4wtttttw0qttt.8888..88....888.8..tt0w,p,ww00ttwttq355336335",
">>666wtetyrwwrw000.8888...8....888.8..00ttp,qttttwttyww53-=;-==>",
"253>>7te00rwwruuuw.8888...88....88.8..tttq,,,0uutww0qwwwttt4:>>>",
">-::wtrwwr00uiiurw.8888...88......88..www,ps,wwrtwwww0wiiutwq333",
"5244q0rwwrtqwtttqw.8888...888.....88..www,,,wwwqqwwwtt0ttw066333",
"2560wuywt0uut000tt88.88....88.....88.ttq0w,s,00tutwwwuuw000w063>",
">460q007q0tttttutt88.88....888....88.ttt0,sp,t000000qtttt634533>",
"667qwyyttt0006wwwt88.888...8888...88.wtww,p,00wrutttw0070w6q55>2",
"25twwyuu00wtrwwww088.888....8888..8..w070w,,qtwruut00ttwwww7>>>5",
"335t0wtuytw0qqtttt888.888....8888.8..ttwtt,p,rw0tyuttq0wqttit>>2",
"667wtuw0tt000tutwt888.888.....88.8...wtww,s,,rtyyqqtw000ut666626",
"3550uttt0wrwwtttwr888..888.....888...wwt,,,,qqutttw0twwrt6>>2542",
"664ttttut0qwwyutwr888..888...........wwqq,,,uutttuuw0wwruuw65556",
">55543twwtttwrtttu888..888..........ttutww,,tt00qtwttutttt4:>>>:",
">55520twwwqwwrwutt.88..88.8.........uttttt,,qq00qtwww0tyut4:===-",
"0wqttwwtttwq00rwww.88...8..8........wwwwwt,,ttttwtttitiut763>>>6",
"3:=>636ut0tuytettt.88...8...8.....ttwttwwq,,ttttwyuwitttuiw65564",
">>;->tqwrwwwwwwrtt.88.......8.....rwwttttu,utututwwwwt6>2222332>",
"52>30546rwwwwwwrtt................rwwttttu,qtttyutw0:23-4>366665",
"4>33>463wqww00qw0w................00w0w0qttttyytw527ww->55>>55>>",
">4664>467wwwttuq0w..............#rtyt7w0000wtwwt0665>23655;===->",
"22>>>>>wtttwrwwtttr.X.........##1:;wttttwrtww66wwtw3243>>3556553",
">>5552>466qwrww000qXXX......::#11:;;0000wr065555>>6665:>>:=>>==>",
">352>>3qww756wtttw>>XXXX..X<=;#111=:>tttutwwww>>>364>:>65>>-==->",
">:>>22366645quiitw:;;>XXXX=%&###11113>ttew33:>>4>3665466654>>>>>",
"3>::46>==>3wwrtww6%=;==+$=;:=##1##111116%===>::66-=->>>>>5366555",
"463333>=====-:>24w6=;%=*==;%+=####111#114@@653333-=====;>>3665>>",
">266462>>>>3>>>>>346=%-::>-%@@@@;:::5>3355>>46666>>>>22>>>>23552",
"56633365>>>3222566643560433652>>347405664>256433464>>224>45666>>"
};
