/* XPM */
static char *_e764201df3a4eab9cc565ff88e02790Oz6E2t1L0uGxncHC[] = {
/* columns rows colors chars-per-pixel */
"64 64 49 1 ",
"  c #08090D",
". c #14161E",
"X c #3E332A",
"o c #521D1B",
"O c #4B3A30",
"+ c #4C3A30",
"@ c #493C32",
"# c #4E3C31",
"$ c #533F33",
"% c #533F35",
"& c #652723",
"* c #712B28",
"= c #534035",
"- c #554035",
"; c #584236",
": c #5A4437",
"> c #594338",
", c #5B4539",
"< c #5E4639",
"1 c #554C3C",
"2 c #5F483A",
"3 c #5B4A3D",
"4 c #60473A",
"5 c #60483B",
"6 c #634A3D",
"7 c #654B3E",
"8 c #664C3E",
"9 c #684D3F",
"0 c #242940",
"q c #5F1166",
"w c #694E40",
"e c #6B5041",
"r c #6E5243",
"t c #6F5344",
"y c #6F5444",
"u c #715544",
"i c #745746",
"p c #745847",
"a c #775A48",
"s c #746344",
"d c #6D6D6D",
"f c #89744F",
"g c #BBA160",
"h c #DDBF78",
"j c #871C92",
"k c #B937C5",
"l c #EECF84",
"z c #C4C4C3",
"x c gray82",
/* pixels */
"7788887<<<<7<7<4444<59588www55555556555555w688www655547<855555<7",
"<<;-==-<<77<<:6<::<<4<<;-===;<576<;<<;;<<<885<<,%-<<87<,<6::,<<6",
"887<6<<5<<58<---<<<<5888<6k<7<<j8eeruuuwru888rur96<<<76<---<<<<7",
"6886<5877786;<8888euurew89jjerrkj6689ruurutrrru8886678<;6<<<5867",
"85<4-<<<<-45wruuwruuuujkjjqkptrkjwujueeuuuuuyyuppprrr7584<<<<4<7",
"78685;;,<wruuupuuuere9upjkjqkpkjqqjjuuureewrpprrruprer8w76877777",
";444<<7<8w58wruupuutkteuqjkjkqkjqjkqupuuuuueuurrruwu8585<4<-----",
"6668666<<ww6rrrpuuuujkjjqjkjqkjqjkjqpuuuuururreeruure866666<;;;4",
"88,<<79rrreutrrwwwwrtjkkjqjqqkqjkjqkkjjweurwupppwruurrrr55<<<<58",
"<;-=;;;;ueupuuuuppuujqqjkq33@3X33qkjjqquuruuuuuuuuprrupw8666666<",
"<<;66<88rwwweewrupppqkkqq3@@3@X@@3qjquuppurruuuuueeewwwrw8w7887<",
"8<<<upuuuuuurrrurrruuqjk3@*X@3@X*X3qjjjrrpuruuuipuuuuutrr9<68866",
"<<88uuwwupprrrrweprtyyqq@*ooX@X*ooXqkqpuruyupeeurweupperte8u<<,6",
"5etruuuiapuuuupreeeellhg*X@Xo3&X@Xoqqhlheeerurruuupauuuuupeew6<<",
"<5trwweurtuurweuyyrwuylhh@  X3X  @ghggyywryyutrwwrueuuuewryyue58",
"<<8ruuuruurrrrreeerilhgg@333X3X333@ghleeiieeruuuiruuurrrureeeu6<",
"588upuuuwwtruuaaprpewwlhX@3X3@3X3@Xggpuurwwwwwppuurwerruuaap855<",
"<wrrrurrrreepaaprrrrulrgg@@@ X @@@ghllrrrtfffrerurrrreraaaurrrr8",
"8rrrrwutrtueeuuuetrrwrrgh@xX333Xx@hguetrrfffs1reeutruuwruurre<<<",
"<66eupurueiiueeeuueruurlgXzdzdzdzXgheuureffsf1rupurrriireerur86<",
"<7rwwwwwwwttttupuurwwrl00gXzdzdzXgg.luuuwfs1s1wwwwwweyttyppuu75<",
"88wrruuuuurew8eerurrrr.00..X33@X...0.eurr1s1serriuuutee99eerrw97",
"<<;erppawwrutrttrw9rtu000...3@3...000.wwwy1ssurrpauwwuttrtyew847",
"66e89ruiuutrrruiiiruue0.00.......00000.ruus3@Xreuuiuurrrruiiur97",
"888ruprwtuwwwupueuruu.0.00.......000000.r3333@uppeetrwwwpurrue58",
"6wtuiiiurrreruuueruuu.0.000.....000.0000.XXX@Xiiiirrureruurer855",
"885rtuupuweuuppuuuwrw.0.0000000000000....3333@tuupprwryuppuur888",
",6766wurrppueruuiuur..0..00000000000...0.XXX@Xrrrueupireuur88,;;",
"5878<7rrrwwrrrrpuuuu..0..00000000.0....000@@XX@weuuewwrrru8<---<",
"86;5667ruurrrrreeeer..0..0000000..0...000.sf1X@peruurrrrrw7<<<<8",
"<;--8uupuwuppuuippy...00..0000...0....00..1s1@3uuipreppuutu88885",
"<<9ruurereeerreruup....0........00...00...1sf@3uuerreeereeur665<",
"856ruppyuuuurrrurtt....0.......00....00..X1sf@@ppuuuuutrrturr888",
"5<66eueeuuprrrrewur.0..00.....000...000.XXf1s@Xurerupperr96<66<5",
"<788rruuauuuuuprwww.0..000...000...0000.X@s1s@Xuuuuauuuuw8<---;<",
"<<<<<5ruuuuureruuur.0..0000.0000...000...@sf1Xreeuuyuur786668667",
"<<888ruuupurrtrwwwe.0..000000.0...0000...X1f1Xuuutuuprr65;-,,--<",
"476<<8ureetrrrppprp.0...0000..0...000.....1s1Xppurrerrrrurr2;:,<",
"<;<<ruurrtwwpaaaurr.00..000..0....000.....1sfXruurrrrwraapure<<<",
"7<55werrrturruuuerr.00..0....0...0000.....11srrerrrruueuur888566",
"588wrpprrwppuwwwuuw.00...........0000.....f1swwupuyerpprwwwre8<<",
"<68wrwe9reuuuuupuur.00...........0000.0...s11ueeweweruuuu966666<",
"888eriiuuuwww8rrrurr000.........00000.0..s1s1wrtpuuurww9wr8w88<<",
"57urruppweruyrrrre8e000.........0000..0..f11rurtppuweuurrrrw<<<7",
"447uwrupiurweeuuuuru000.........0000..0..sf1rurwuppuuewreuuau<<<",
"88wruprwuueewupururu000........00000..0..1s1rtuiirrureeepu9997<8",
"4789puuuwryrruuuruuu000........0000...0...sf1epuuurwurryu8<<586<",
"876uuuipuwerripurrwr00.0......00000.......1sspuuupprwrrtppe87778",
"<88875urtuuuruuuupue00.0......0000...0...s11suwweuruupuuuu6<<<<<",
"<777<wurrrrrrtrpuuuu00.0.....00000...0..11ss1rwwrurrreuupu6,---;",
"wrruurruuurewwyrrrru00......00000....0..1f11suuuruuuauapu87<<<<8",
"5<-<868puwtpiutuuurt000...000.000....0...sf11uuurupyaiuupar87786",
"<<,;,yerurrrrrruuuuu000.......00.........1sf1pupurrrru8<5544554<",
"74<5e868trrrrrrtuuupi00......X.0.........p1s1uuipyrw,45,6<688887",
"6<55<685rrrrwwerwewruuupi...XXX.....@@e..u111ppur74wrr;<87<<88<<",
"<6886<688rrruupwwrwwwwuurtur@XXXut@@@@r.wws1urru9887<46877;---;<",
"55<<<<<riiuryrruuuyruuuuwrr@@@XXXu@@@@uuryss188rrur5<66<<5778775",
"<<7774<688eryrrwwwerrwwrur@@@@@XXu@@@@wwrt1ss777<<7887,<<<-<<-;<",
"<575<<5errw78ruuurupurrr@@@@@@@@ww@@@@uupu111r<<<586<<<87<<;--;<",
"<<<<44588767epaaururrur@@@@@@@@@-<@@@@uutr111<<6<5887688876<<<<<",
"5<,,68<--<5rruurr88wre-O@@@@@@@@,:@@@:-87w11<>,88;-;<<<<<7588777",
"685555<-----;,<46r8wr$-=--:$+;-<2<---;-$6<1175555;-----:<<5887<<",
"<488684<<<<5<<<<<568-$:,,<;$++++:,,,$+##771168888<<<<44<<<<45774",
"78855587<<<544478886#$$-$##$$+++#$-$-$--6<118655686<<446<67888<<"
};
