/* XPM */
static char *eddbbbb53b7f480487519566486877d1hi4wE7R7ZATQZCkw[] = {
/* columns rows colors chars-per-pixel */
"64 64 48 1 ",
"  c #08090D",
". c #14161E",
"X c #392D24",
"o c #393129",
"O c #3E332A",
"+ c #521D1B",
"@ c #4B3A30",
"# c #493C32",
"$ c #4D3C31",
"% c #513D32",
"& c #533F35",
"* c #544033",
"= c #534035",
"- c #554035",
"; c #584236",
": c #5A4437",
"> c #594338",
", c #5B4539",
"< c #5E4639",
"1 c #554C3C",
"2 c #5F493A",
"3 c #5B4A3D",
"4 c #60473A",
"5 c #60483B",
"6 c #634A3D",
"7 c #654B3E",
"8 c #664C3E",
"9 c #684D3F",
"0 c #242940",
"q c #5F1166",
"w c #694E40",
"e c #6B5041",
"r c #6E5243",
"t c #6F5344",
"y c #6F5444",
"u c #715544",
"i c #745746",
"p c #745847",
"a c #775A48",
"s c #746344",
"d c #6D6D6D",
"f c #89744F",
"g c #BBA160",
"h c #DDBF78",
"j c #871C92",
"k c #B937C5",
"l c #EECF84",
"z c #C4C4C3",
/* pixels */
"7788887<<<<7<7<4444<59588www55555556555555w688www655547<855555<7",
"<<;-==-<<77<<:6<::<<4<<;-===;<576<;<<;;<<<885<<,&-<<87<,<6::,<<6",
"887<6<<5<<58<---<<<<5888<6<<7<<q8eeruuuwru888rur96<<<76<---<<<<7",
"6886<5877786;<8888euurew898werrkq6q89ruurutrrru8886678<;6<<<5867",
"85<4-<<<<-45wruuwruuuuruuupppjrkjqkuqeeuuuuuyyuppprrr7584<<<<4<7",
"78685;;,<wruuupuuuere9upurrrpkjqkqkqkuureewrpprrruprer8w76877777",
";444<<7<8w58wruupuututeutrrurjkjqkjkjpquuuueuurrruwu8585<4<-----",
"6668666<<ww6rrrpuuuurrrreeeruqjkqjkjqkkuuururreeruure866666<;;;4",
"88,<<79rrreutrrwwwwrtweuppuwujqkjkjqjkqweurwupppwruurrrr55<<<<58",
"<;-=;;;;ueupuuuuppuuruuuuuurpp##Oqjjkjquuruuuuuuuuprrupw8666666<",
"<<;66<88rwwweewrupppuruuuuuuwO33#Oqkjjqppurruuuuueeewwwrw8w7887<",
"8<<<upuuuuuurrrurrruuuruuuppO3+O#OOqhqjrrpuruuuipuuuuutrr9<68866",
"<<88uuwwupprrrrwffftyyuuwrue3+#+OOOhqjjjruyupeeurweupperte8u<<,6",
"5etruuuiapuuuupfffs1eeuurtuO+33#+OOlhjjeeeerurruuupauuuuupeew6<<",
"<5trwweurtuurweffsf1uyyutew#O  O3#hglgyywryyutrwwrueuuuewryyue58",
"<<8ruuuruurrrrrfsss11eeruuu3#333#Olhhleeiieeruuuiruuurrrureeeu6<",
"588upuuuwwtruuaa1ss1wwwwrpp33O3#OOglgluurwwwwwppuurwerruuaap855<",
"<wrrrurrrreepaapr11suurrreu# #zOO3hghgrrrturrrerurrrreraaaurrrr8",
"8rrrrwutrtueeuuuessswrrrrrwr33zOO3glgegrrwetrrreeutruuwruurre<<<",
"<66eupurueiiueee#sssuureerpizdzO3glgg.uretuueerupurrriireerur86<",
"<7rwwwwwwwttttup#sss#rttrwwwdz3#hlg..g000weuttwwwwwweyttyppuu75<",
"88wrruuuuurew8ee33###3reerui33#Ol.g000000.rrrerriuuutee99eerrw97",
"<<;erppawwrutrttO3333#wrurupaOO.g..g000000.eeurrpauwwuttrtyew847",
"66e89ruiuutrrrui##33##reurruii....000.000..eerreuuiuurrrruiiur97",
"888ruprwtuwwwupueO##3##tuupuwr.....0.0....0.rtuppeetrwwwpurrue58",
"6wtuiiiurrreruuuerOO#3##r..0.r..000...0....0rriiiirrureruurer855",
"885rtuupuweuuppuuusOOOO3##.000.0000.00..0..0.ptuupprwryuppuur888",
",6766wurrppueruuiuus1O##3#..000.0000.0000000.urrrueupireuur88,;;",
"5878<7rrrwwrrrrpuuuf1OO#3#..0000.000......00..wweuuewwrrru8<---<",
"86;5667ruurrrrreeees1srO##...0000.00..........pperuurrrrrw7<<<<8",
"<;--8uupuwuppuuippysf1uu##...00000..0.......0.uuuipreppuutu88885",
"<<9ruurereeerreruup1f1uuuOO...00000...........uuuerreeereeur665<",
"856ruppyuuuurrrurttp1s1uu......00000.......0..uppuuuuutrrturr888",
"5<66eueeuuprrrrewurr1sfir......000000......0..uurerupperr96<66<5",
"<788rruuauuuuuprwwww11sur.......000000...000..ruuuuauuuuw8<---;<",
"<<<<<5ruuuuureruuuref1sur.......000000000000..reeuuyuur786668667",
"<<888ruuupurrtrwwweus11ru........0000000000...uuutuuprr65;-,,--<",
"476<<8ureetrrrppprps1sser.0...0....00000000...ppurrerrrrurr2;:,<",
"<;<<ruurrtwwpaaaurr1f11rr.....0.....0000000...ruurrrrwraapure<<<",
"7<55werrrturruuuerrrsf1rr.....0.......0000....rerrrruueuur888566",
"588wrpprrwppuwwwuuww1s1www....0........000....wupuyerpprwwwre8<<",
"<68wrwe9reuuuuupuureesfurr0....0........0...0.eeweweruuuu966666<",
"888eriiuuuwww8rrrurrr1swer0....0............0.rtpuuurww9wr8w88<<",
"57urruppweruyrrrre8er111tr0....0..........0.0.rtppuweuurrrrw<<<7",
"447uwrupiurweeuuuuruu1fs1e0....00...........0.rwuppuuewreuuau<<<",
"88wruprwuueewupururuur111u0....00........0..0.uiirrureeepu9997<8",
"4789puuuwryrruuuruuuu1f11pu....00......00...0.puuurwurryu8<<586<",
"876uuuipuwerripurrwrw1sf1uu.....00.........00.uuupprwrrtppe87778",
"<88875urtuuuruuuupueue111wwr....0000......000.wweuruupuuuu6<<<<<",
"<777<wurrrrrrtrpuuuuuur11wwr.....0000.....00..wwrurrreuupu6,---;",
"wrruurruuurewwyrrrrurr1sf1ur.....000000..00...uuruuuauapu87<<<<8",
"5<-<868puwtpiutuuurtwr11sf1rpp....000000000..Xuurupyaiuupar87786",
"<<,;,yerurrrrrruuuuuppp1111rr#....00000000.XXXupurrrru8<5544554<",
"74<5e868trrrrrrtuuupire1113pr#.....000000..XXuuipyrw,45,6<688887",
"6<55<685rrrrwwerwewruuu#11333#......00000.,Xuppur74wrr;<87<<88<<",
"<6886<688rrruupwwrwwwwu#11333###.....000..-:urru9887<46877;---;<",
"55<<<<<riiuryrruuuyruuuu11#333####....0..,,:;88rrur5<66<<5778775",
"<<7774<688eryrrwwwerrwwr11o#333##,::.....,-%%777<<7887,<<<-<<-;<",
"<575<<5errw78ruuurupurrr11<2##3#---,<<..2<:::r<<<586<<<87<<;--;<",
"<<<<44588767epaaururru::;%-%*o##-<255<,,,:$$,<<6<5887688876<<<<<",
"5<,,68<--<5rruurr88wrew@$-r,---,,:222:-%%--8<>,88;-;<<<<<7588777",
"685555<-----;,<46r8wr8w8w8r6<rwupuwwwrw86<<875555;-----:<<5887<<",
"<488684<<<<5<<<<<568w6ruuur6<<<<ruuu6<5577<<68888<<<<44<<<<45774",
"78855587<<<544478886578w655874<<5696w7886<478655686<<446<67888<<"
};
