/* XPM */
static char *_16acf98a44c491ddd0430f2b80ca447r9PL5oaxbAwnHjMz[] = {
/* columns rows colors chars-per-pixel */
"64 64 49 1 ",
"  c #08090D",
". c #14161E",
"X c #3E332A",
"o c #521D1B",
"O c #4C3A30",
"+ c #493C32",
"@ c #4E3C31",
"# c #533F33",
"$ c #533F35",
"% c #652723",
"& c #712B28",
"* c #544033",
"= c #534035",
"- c #554035",
"; c #584236",
": c #5A4437",
"> c #594338",
", c #5B4539",
"< c #5E4639",
"1 c #554C3C",
"2 c #5F483A",
"3 c #5B4A3D",
"4 c #60473A",
"5 c #60483B",
"6 c #634A3D",
"7 c #654B3E",
"8 c #664C3E",
"9 c #684D3F",
"0 c #242940",
"q c #5F1166",
"w c #694E40",
"e c #6B5041",
"r c #6E5243",
"t c #6F5344",
"y c #6F5444",
"u c #715544",
"i c #745746",
"p c #745847",
"a c #775A48",
"s c #746344",
"d c #6D6D6D",
"f c #89744F",
"g c #BBA160",
"h c #DDBF78",
"j c #871C92",
"k c #B937C5",
"l c #EECF84",
"z c #C4C4C3",
"x c gray82",
/* pixels */
"7788887<<<<7<7<4444<59588www55555556555555w688www655547<855555<7",
"<<;-==-<<77<<:6<::<<4<<;-===;<576<;<<;;<<<885<<,$-<<87<,<6::,<<6",
"887<6<<5<<58<---<<<<5888<6k<7<<j8eeruuuwru888rur96<<<76<---<<<<7",
"6886<5877786;<8888euurew89jjerrkj6689ruurutrrru8886678<;6<<<5867",
"85<4-<<<<-45wruuwruuuujkjjqkptrkjwujueeuuuuuyyuppprrr7584<<<<4<7",
"78685;;,<wruuupuuuere9upjkjqkpkjqqjjuuureewrpprrruprer8w76877777",
";444<<7<8w58wruupuutkteuqjkjkqkjqjkqupuuuuueuurrruwu8585<4<-----",
"6668666<<ww6rrrpuuuujkjjqjkjqkjqjkjqpuuuuururreeruure866666<;;;4",
"88,<<79rrreutrrwwwwrtjkkjqjqqkqjkjqkkjjweurwupppwruurrrr55<<<<58",
"<;-=;;;;ueupuuuuppuujqqjkq33+3X33qkjjqquuruuuuuuuuprrupw8666666<",
"<<;66<88rwwweewrupppqkkqq3++3+X++3qjquuppurruuuuueeewwwrw8w7887<",
"8<<<upuuuuuurrrurrruuqjk3+&X+3+X&X3qjjjrrpfffuuipuuuuutrr9<68866",
"<<88uuwwupprrrrweprtyyqq+&ooX+X&ooXqkqpurfffs1eurweupperte8u<<,6",
"5etruuuiapuuuupreeeellhg&X+Xo3%X+Xoqqhlheffsf1ruuupauuuuupeew6<<",
"<5trwweurtuurweuyyrwuylhh+  X3X  +ghggyywfs1s1rwwrueuuuewryyue58",
"<<8ruuuruurrrrreeerilhgg+333X3X333+ghleei1s1suuuiruuurrrureeeu6<",
"588upuuuwwtruuaaprpewwlhX+3X3+3X3+Xggpuurw1sswppuurwerruuaap855<",
"<wrrrurrrreepaaprrrrulrgg+++ X +++ghllrrrts3+Xerurrrreraaaurrrr8",
"8rrrrwutrtueeuuuetrrwrrgh+xX333Xx+hguetrr3333+reeutruuwruurre<<<",
"<66eupurueiiueeeuueruurlgXzdzdzdzXgheuureXXX+Xrupurrriireerur86<",
"<7rwwwwwwwttttupuurwwrl00gXzdzdzXgg.luuuw3333+wwwwwweyttyppuu75<",
"88wrruuuuurew8eerurrrr000..X33+X...0.eurrXXX+Xrriuuutee99eerrw97",
"<<;erppawwrutrttrw9rt0000...3+3...000.wwwy++XX+rpauwwuttrtyew847",
"66e89ruiuutrrruiiiruu00.00.......0000..ruusf1X+euuiuurrrruiiur97",
"888ruprwtuwwwupueuruu00.00.......00000...u1s1+3ppeetrwwwpurrue58",
"6wtuiiiurrreruuueruuu00.000.....000.000.0.1sf+3iiirrureruurer855",
"885rtuupuweuuppuuuwrw00.000000000000.0000.1sf++uupprwryuppuur888",
",6766wurrppueruuiuur000..00000000000.000..f1s+Xrrueupireuur88,;;",
"5878<7rrrwwrrrrpuuuu000..00000000.0.000...s1s+Xweuuewwrrru8<---<",
"86;5667ruurrrrreeeer000..0000000..0.00..X.sf1Xpperuurrrrrw7<<<<8",
"<;--8uupuwuppuuippyu0000..0000...0..00..XX1f1Xuuuipreppuutu88885",
"<<9ruurereeerreruupi00.0........00..0...X+1s1Xuuuerreeereeur665<",
"856ruppyuuuurrrurttp00.0.......00...0...X+1sfXuppuuuuutrrturr888",
"5<66eueeuuprrrrewurr00.00.....000..00....X11suuurerupperr96<66<5",
"<788rruuauuuuuprwww000.000...000...00.....f1srruuuuauuuuw8<---;<",
"<<<<<5ruuuuureruuur000.0000.0000...00.....s11rreeuuyuur786668667",
"<<888ruuupurrtrwwwe000.000000.0....00....s1s1uuuutuuprr65;-,,--<",
"476<<8ureetrrrppprp000..0000..0....00....f11eeppurrerrrrurr2;:,<",
"<;<<ruurrtwwpaaaurr000..000..0....000....sf1rrruurrrrwraapure<<<",
"7<55werrrturruuuerr000..0....0....0.0....1s1rrrerrrruueuur888566",
"588wrpprrwppuwwwuuw000...........00.0.....sf1wwupuyerpprwwwre8<<",
"<68wrwe9reuuuuupuure.0...........00.0.....1ssueeweweruuuu966666<",
"888eriiuuuwww8rrrurr..0.........000.0....s11swrtpuuurww9wr8w88<<",
"57urruppweruyrrrre8e..0.........000.0....1ss1urtppuweuurrrrw<<<7",
"447uwrupiurweeuuuuru..0.........000.0...1f11surwuppuuewreuuau<<<",
"88wruprwuueewupururu..0........0000.0...1sf11tuiirrureeepu9997<8",
"4789puuuwryrruuuruuu..0........0000.0....1sf1epuuurwurryu8<<586<",
"876uuuipuwerripurrwrw..0.......0000.0....r1s1puuupprwrrtppe87778",
"<88875urtuuuruuuupueu..0......0000..0....r111uwweuruupuuuu6<<<<<",
"<777<wurrrrrrtrpuuuuu..0......0000.......us1rrwwrurrreuupu6,---;",
"wrruurruuurewwyrrrrur........00000.......uss1uuuruuuauapu87<<<<8",
"5<-<868puwtpiutuuurtwr.......00000.......r1ssuuurupyaiuupar87786",
"<<,;,yerurrrrrruuuuupp.......00000.......p111pupurrrru8<5544554<",
"74<5e868trrrrrrtuuupir.......00000.......p111uuipyrw,45,6<688887",
"6<55<685rrrrwwerwewruuu......0000........u11uppur74wrr;<87<<88<<",
"<6886<688rrruupwwrwwwwuu.....0000...y8...w11urru9887<46877;---;<",
"55<<<<<riiuryrruuuyruuuuwX..0000....uuu.ry11r88rrur5<66<<5778775",
"<<7774<688eryrrwwwerrww3+XX.0000...X--w.rt117777<<7887,<<<-<<-;<",
"<575<<5errw78ruuurupu33+++XXX000XXXX<<,upur1rr<<<586<<<87<<;--;<",
"<<<<44588767epaaurur+3+3+XX#*::-X++3X<,,tr51,<<6<5887688876<<<<<",
"5<,,68<--<5rruurr88w:X3XX-:,---,+33+X:-#7w--O>,88;-;<<<<<7588777",
"685555<-----;,<46r8w:#-=--:#O;-<23+X-;-#6OO##@555;-----:<<5887<<",
"<488684<<<<5<<<<<568w#:,,<;#OOOO:,,,#O@577OO#8888<<<<44<<<<45774",
"78855587<<<54447888657#-#@@##OOO@#-#-#886<478655686<<446<67888<<"
};
