/* XPM */
static char *_6ca934f4308478adeeed9a6a7a751e9fcs26JmgaJmh2h98[] = {
/* columns rows colors chars-per-pixel */
"64 64 46 1 ",
"  c #08090D",
". c #14161E",
"X c #3E332A",
"o c #46362D",
"O c #48382F",
"+ c #4B3A30",
"@ c #4C3A30",
"# c #493C32",
"$ c #4D3C31",
"% c #513D32",
"& c #533F35",
"* c #544033",
"= c #534035",
"- c #554035",
"; c #584236",
": c #5A4437",
"> c #594338",
", c #5B4539",
"< c #5E4639",
"1 c #554C3C",
"2 c #5E4839",
"3 c #5B4A3D",
"4 c #60473A",
"5 c #60483B",
"6 c #634A3D",
"7 c #654B3E",
"8 c #664C3E",
"9 c #684D3F",
"0 c #242940",
"q c #5F1166",
"w c #694E40",
"e c #6B5041",
"r c #6E5243",
"t c #6F5344",
"y c #6F5444",
"u c #715544",
"i c #745746",
"p c #745847",
"a c #775A48",
"s c #746344",
"d c #89744F",
"f c #BBA160",
"g c #DDBF78",
"h c #871C92",
"j c #B937C5",
"k c #EECF84",
/* pixels */
"7788887<<<<7<7<4444<59588www55555556555555w688www655547<855555<7",
"<<;-==-<<77<<:6<::<<4<<;-===;<j76<;h<;;<<<885<<,&-<<87<,<6::,<<6",
"887<6<<5<<58<---<<<<5888<6<<7<hh8eejhuuwru888rur96<<<76<---<<<<7",
"6886<5877786;<8888euurew89hjhhqjw66jhruhrutrrru8886678<;6<<<5867",
"85<4-<<<<-45wruuwruuuuruuupphjhqjwjhqqhhuuuuyyuppprrr7584<<<<4<7",
"78685;;,<wruuupuuuere9upjrrrqhjhjqjhqhjqeewrpprrruprer8w76877777",
";444<<7<8w58wruupuututeuhjhhqhjhqjhqhjhquuueuurrruwu8585<4<-----",
"6668666<<ww6rrrpuuuurrrrehjjhqhqqjqhjhqjjhhurreeruure866666<;;;4",
"88,<<79rrreutrrwwwwrtweuhqqhjq33#3X33qjhhqqwupppwruurrrr55<<<<58",
"<;-=;;;;ueupuuuuppddduuuqjjqq3##3#XX#3qhqruuuuuuuuprrupw8666666<",
"<<;66<88rwwweewru1sddduuuqhj3#XXXXXXXX3qhhhruuuuueeewwwrw8w7887<",
"8<<<upuuuuuurrrur1dsddrguuqq#XX     XXXqjquruuuipuuuuutrr9<68866",
"<<88uuwwupprrrrwe1s1sduukgqqXX ..... XXfgkkupeeurweupperte8u<<,6",
"5etruuuiapuuuuprees1s1uurffgX ......  ggkeerurruuupauuuuupeew6<<",
"<5trwweurtuurweuyOs1s1yutkgfX .....   #ffgkyutrwwrueuuuewryyue58",
"<<8ruuuruurrrrree#ss1oeruuffX .       Xgkieeruuuiruuurrrureeeu6<",
"588upuuuwwtruuaapXs3s#wwrkkgf        #ffrkwwwwppuurwerruuaap855<",
"<wrrrurrrreepaapr#X#sX.rreufg        #gfrturrrerurrrreraaaurrrr8",
"8rrrrwutrtueeuuueX##sX.rrrwgfX       Xfkrwetrrreeutruuwruurre<<<",
"<66eupurueiiueeeu###sX.eerk.ff      Xfurktuueerupurrriireerur86<",
"<7rwwwwwwwttttupu####0.........     ..0uwweuttwwwwwweyttyppuu75<",
"88wrruuuuurew8eerX##000..0000...   ...00rrrrrerriuuutee99eerrw97",
"<<;erppawwrutrttrw#000..000000........0.0yueeurrpauwwuttrtyew847",
"66e89ruiuutrrruiiid000..0000000.......0.0.eeerreuuiuurrrruiiur97",
"888ruprwtuwwwupue1d0.0..000000000....0000.trrtuppeetrwwwpurrue58",
"6wtuiiiurrreruuue1s0.0.0.0000000000000000..rrriiiirrureruurer855",
"885rtuupuweuuppuu1s0.0.0.0000000000000000..wpptuupprwryuppuur888",
",6766wurrppueruui11..0.0.0000000000000000..ruurrrueupireuur88,;;",
"5878<7rrrwwrrrrpuu1..0.00.0.0000000000000...eewweuuewwrrru8<---<",
"86;5667ruurrrrreee1s..0.0.0.000000000000....uupperuurrrrrw7<<<<8",
"<;--8uupuwuppuuip1ds..0.0.0.000000000000....uuuuuipreppuutu88885",
"<<9ruurereeerreru1s1..0...0..0000000000...0.uuuuuerreeereeur665<",
"856ruppyuuuurrrur1s1..0...0...000000000...0.uuuppuuuuutrrturr888",
"5<66eueeuuprrrrewu11s.....0....0000000....0.iuuurerupperr96<66<5",
"<788rruuauuuuuprww1s1.....0....0000000....0.urruuuuauuuuw8<---;<",
"<<<<<5ruuuuureruuur11..0........00000..0..0.urreeuuyuur786668667",
"<<888ruuupurrtrwwwe1d..0........0000...0.00.euuuutuuprr65;-,,--<",
"476<<8ureetrrrppprp1s..0........0000...0.00.eeppurrerrrrurr2;:,<",
"<;<<ruurrtwwpaaaur1ds..00........000...0.00.rrruurrrrwraapure<<<",
"7<55werrrturruuuerss1..00........000...0.00.rrrerrrruueuur888566",
"588wrpprrwppuwwwuus11..00...0.....000..0000uwwwupuyerpprwwwre8<<",
"<68wrwe9reuuuuupuu1ss..00...0.....000..0000uuueeweweruuuu966666<",
"888eriiuuuwww8rrrus11d.000..00.....00..0000ewwrtpuuurww9wr8w88<<",
"57urruppweruyrrrre11ds.000..000....00..0000rrurtppuweuurrrrw<<<7",
"447uwrupiurweeuuuu1ds1.000..000....00..0000rrurwuppuuewreuuau<<<",
"88wruprwuueewupuru1s1r.0000.0000....0..0.00rrtuiirrureeepu9997<8",
"4789puuuwryrruuuru111r.0000..000....0..0.00weepuuurwurryu8<<586<",
"876uuuipuwerripurrw1srr0000..0000......0.00eppuuupprwrrtppe87778",
"<88875urtuuuruuuup1sseu..0....00000......00uuuwweuruupuuuu6<<<<<",
"<777<wurrrrrrtrpuuss1urr.0....000.000...000rrrwwrurrreuupu6,---;",
"wrruurruuurewwyrrr111rru.......00.......000ruuuuruuuauapu87<<<<8",
"5<-<868puwtpiutuuu111rru.......0.X......00eruuuurupyaiuupar87786",
"<<,;,yerurrrrrruuuu11ppii##.....XXX...uuupppupupurrrru8<5544554<",
"74<5e868trrrrrrtuuu11reuu####trXXX#XXuuuipteuuuipyrw,45,6<688887",
"6<55<685rrrrwwerwew11uupi####yXXX###XXeweuuuuppur74wrr;<87<<88<<",
"<6886<688rrruupwwrw11wuur####uXX#####Xrewwwrurru9887<46877;---;<",
"55<<<<<riiuryrruuuy1uuuuw####22###3##,,,:yurr88rrur5<66<<5778775",
"<<7774<688eryrrwwwe1:wwr,####,,#33##----:,w87777<<7887,<<<-<<-;<",
"<575<<5errw78ruuur<2<:r::<###::###-,<<,,2<:rrr<<<586<<<87<<;--;<",
"<<<<44588767epaauru::ur:;%-%*::--<255<,,,:$5,<<6<5887688876<<<<<",
"5<,,68<--<5rruurr88wrew+$-:,---,,:222:-%%--8<>,88;-;<<<<<7588777",
"685555<-----;,<46r8wr8w8--:%@;-<2<---;-%%@<875555;-----:<<5887<<",
"<488684<<<<5<<<<<568w6ruu<;%@@@@:,,,%@$$%7<<68888<<<<44<<<<45774",
"78855587<<<544478886578w655874<<5696w7886<478655686<<446<67888<<"
};
