/* XPM */
static char *_08860c5dcc741c6b3f5412621677d9ejPuIYdYy8FzlRV8v[] = {
/* columns rows colors chars-per-pixel */
"64 64 45 1 ",
"  c #08090D",
". c #14161E",
"X c #392D24",
"o c #3E332A",
"O c #521D1B",
"+ c #493C32",
"@ c #513D32",
"# c #533F35",
"$ c #544033",
"% c #534035",
"& c #554035",
"* c #584236",
"= c #5A4437",
"- c #594338",
"; c #5B4539",
": c #5E4639",
"> c #554C3C",
", c #5F493A",
"< c #5B4A3D",
"1 c #60473A",
"2 c #60483B",
"3 c #634A3D",
"4 c #654B3E",
"5 c #664C3E",
"6 c #684D3F",
"7 c #242940",
"8 c #5F1166",
"9 c #694E40",
"0 c #6B5041",
"q c #6E5243",
"w c #6F5344",
"e c #6F5444",
"r c #715544",
"t c #745746",
"y c #745847",
"u c #775A48",
"i c #746344",
"p c #6D6D6D",
"a c #89744F",
"s c #BBA160",
"d c #DDBF78",
"f c #871C92",
"g c #B937C5",
"h c #EECF84",
"j c #C4C4C3",
/* pixels */
"4455554::::4:4:1111:26255999222222232222229355999322214:522222:4",
"::*&%%&::44::=3:==::1::*&%%%*:248:*::**:::552::;#&::54:;:3==;::3",
"554:3::2::25:&&&::::2555:3::48:8g00qrrr9qr555qrq63:::43:&&&::::4",
"3553:2544453*:55550rrq0956580g8fg3f56qrrqrwqqqr5553345:*3:::2534",
"52:1&::::&129qrr9qrrrrqrrryg8g8g8fgrr00rrrrreeryyyqqq4251::::1:4",
"45352**;:9qrrryrrr0q06ryr8qfgfg8fgfyrrrq009qyyqqqryq0q5943544444",
"*111::4:59259qrryrrwrw0rwgg8fgf8gf8rryrrrrr0rrqqqr9r5252:1:&&&&&",
"3335333::993qqqyrrrrqqqq08gf8fgfg8f0yrrrrrqrqq00qrrq0533333:***1",
"55;::46qqq0rwqq9999qw90ry8fgff8o++qr99990rq9ryyy9qrrqqqq22::::25",
":*&%****r0ryrrrryyrrqrrrr8ffg8o+<<orryyrrqrrrrrrrryqqry95333333:",
"::*33:55q999009qryyyrqrrrf8d8oo+oO<o0rryyrqaaarrr000999q9594554:",
"5:::ryrrrrrrqqqrqqqrrrqrfff8doooO+O<rqqqqy>iaaatyrrrrrwqq6:35533",
"::55rr99ryyqqqq90yqweerr9ffdhooO+<<Oo5yrqr>aiaarq90ryy0qw05r::;3",
"20wqrrrtuyrrrryq000000rrqwshsd+<o  o+00000>ii>qrrryurrrrry0093::",
":2wq990rqwrrq90reeq9reerw0hddho+<<<+<eee9qi>>wq99qr0rrr09qeer025",
"::5qrrrqrrqqqqq000qtr00qrrhshsoo+<o<<000ttiiirrrtqrrrqqqrq000r3:",
"255ryrrr99wqrruuyqy09999qysdsd<ooj+ +yrrq++ii+yyrrq90qqrruuy522:",
":9qqqrqqqq00yuuyqqqqrrqqqsrshs<ooj<<urqqq++i<+0qrqqqq0quuurqqqq5",
"5qqqq9rwqwr00rrr0wqq9qqqqq.sshs<ojpjr0wq<+ii++q00rwqrr9qrrqq0:::",
":330ryrqr0ttr000rr0qrrq777s..shd+<jp0rrq+>i<<oqryrqqqttq00qrq53:",
":4q9999999wwwwryrrq99q.777777s.ho+<<yrrr+>i<++9999990ewweyyrr42:",
"559qqrrrrrq09500qrqqq.777777s..s.oo900r++>iio0qqtrrrw006600qq964",
"::*0qyyu99qrwqwwq96qw7.7777..7.....77.++<iio0rqqyur99rwwqwe09514",
"33056qrtrrwqqqrtttqr7.77777..77....77<++i>i00qq0rrtrrqqqqrttrq64",
"555qryq9wr999ryr0rqr7777777..7.77..77<+oi>aqqwryy00wq999yrqqr025",
"39wrtttrqqq0qrrr0qr77777777..77....7.7ooi>iqqqttttqqrq0qrrq0q522",
"552qwrryr90rryyrrr97777777...77...77.7o0>ai9yywrryyq9qeryyrrq555",
";34339rqqyyr0qrrtr.7777.77....777777.7.r>a>qrrqqqr0rytq0rrq55;**",
"2545:4qqq99qqqqyrr.7777.77....777777.7.>i>wr00990rr099qqqr5:&&&:",
"53*2334qrrqqqqq000.7777..7....777.77.70ai>q0rryy0qrrqqqqq94::::5",
":*&&5rryr9ryyrrtyy.7777..77....777.7.7yi>>0rrrrrrtyq0yyrrwr55552",
"::6qrrq0q000qq0qrr.77777..7....777...7ri>arrrrrrr0qq000q00rq332:",
"523qryyerrrrqqqrqw.77777..77....777..7q>>ir0rrryyrrrrrwqqwrqq555",
"2:330r00rryqqqq09r.77777..777....777.7rii>irtrrrq0qryy0qq63:33:2",
":455qqrrurrrrryq99.77777...77....777799>ai9qrqqrrrrurrrr95:&&&*:",
":::::2qrrrrrq0qrrr.77777....77....77.rr>i>rrrqq00rrerrq453335334",
"::555qrrryrqqwq999.777777....77......99air990rrrrwrryqq32*&;;&&:",
"143::5rq00wqqqyyyq777.777....77.......ri>q0000yyrqq0qqqqrqq,*=;:",
":*::qrrqqw99yuuurq777.7777...777......>>>wrrqqqrrqqqq9quuyrq0:::",
"4:2290qqqwrqqrrr0q777.7777....777.....ia>00qqqq0qqqqrr0rrq555233",
"2559qyyqq9yyr999rr777.77777...77777...>>9qrr999ryre0qyyq999q05::",
":359q906q0rrrrryr7777..7777....777777.>a>0qrrr009090qrrrr633333:",
"5550qttrrr9995qqq7777..7777....7777.7.ai>qq099qwyrrrq9969q5955::",
"24rqqryy90qreqqqq7777....77......7777.>>9qqqqrqwyyr90rrqqqq9:::4",
"114r9qrytrq900rrr7777....777.....77...i>rrqqqrq9ryyrr09q0rrur:::",
"559qryq9rr009ryrq7777....777..........>qqrqqqwrttqqrq000yr6664:5",
"1456yrrr9qeqqrrr...77....777.........>>rrrq900yrrrq9rqqer5::253:",
"543rrrtyr90qqtyr...77.....7.7.......>>>qqq00yyrrryyq9qqwyy054445",
":55542rqwrrrqrrr...77....7..7.......>>yrqqqrrr990rqrryrrrr3:::::",
":444:9rqqqqqqwqy...77........7......>>rrrrrqqq99qrqqq0rryr3;&&&*",
"9qqrrqqrrrq099eq...7..............9q>>qqqr0qrrrrqrrruruyr54::::5",
"2:&:535yr9wytrwr..................+r>>++qq0qrrrrqryeutrryuq54453",
"::;*;e0qrqqqqqqrrrrXX.............+q><++ryyyryryrqqqqr5:2211221:",
"41:20535wqqqqqqwrrr,X=............+<<<+++yw0rrrtyeq9;12;3:355554",
"3:22:352qqqq990q90&=;;..........+++<<<+++rrrryyrq419qq*:54::55::",
":3553:355qqqrry99*&&&&;.......++++<<<+++999qrqqr6554:13544*&&&*:",
"22:::::qttrqeqqrr;;=;;;.....,,,++<<<+++rqerqq55qqrq2:33::2445442",
"::4441:3550qeqq99&&==&&=..==;;;;+<++X999qw954444::4554;:::&::&*:",
":242::20qq945qrrrq:,:====::,&==;+++;::;;yrqqqq:::253:::54::*&&*:",
"::::112554340yuurqr==;==*@&@$==&&:,u2:;rwq22;::3:2554355543:::::",
"2:;;35:&&:2qqrrqq559q09:,5qr990rwqyyyq954905:-;55*&*:::::4255444",
"352222:&&&&&*;:13q59q59595q3:q9ryr999q953::542222*&&&&&=::2554::",
":155351::::2:::::23593qrrrq3::::qrrr3:2244::35555::::11::::12441",
"45522254:::2111455532459322541::236394553:145322353::113:34555::"
};
