/* XPM */
static char *b58e0b3fc59341579f9cecfd9c937513ijuaPkWUcMskyZH7[] = {
/* columns rows colors chars-per-pixel */
"64 64 47 1 ",
"  c #08090D",
". c #14161E",
"X c #392D24",
"o c #3E332A",
"O c #521D1B",
"+ c #49382F",
"@ c #4C3A30",
"# c #493C32",
"$ c #4E3C31",
"% c #513D32",
"& c #533F35",
"* c #544033",
"= c #534035",
"- c #554035",
"; c #584236",
": c #5A4437",
"> c #5B4539",
", c #5E4639",
"< c #554C3C",
"1 c #5F483B",
"2 c #5B4A3D",
"3 c #60473A",
"4 c #60483B",
"5 c #634A3D",
"6 c #654B3E",
"7 c #664C3E",
"8 c #684D3F",
"9 c #242940",
"0 c #5F1166",
"q c #694E40",
"w c #6B5041",
"e c #6E5243",
"r c #6F5344",
"t c #6F5444",
"y c #715544",
"u c #745746",
"i c #745847",
"p c #775A48",
"a c #746344",
"s c #6D6D6D",
"d c #89744F",
"f c #BBA160",
"g c #DDBF78",
"h c #871C92",
"j c #B937C5",
"k c #EECF84",
"l c #C4C4C3",
/* pixels */
"6677776,,,,6,6,3333,48477qqq44444445444444q577qqq544436,744444,6",
",,;-==-,,66,,:5,::,,3,,;-===;,465,;,,;;,,,774,,>&-,,76,>,5::>,,5",
"776,5,,4,,47,---,,,,4777,5,,6,,07wweyyyqey777eye85,,,65,---,,,,6",
"5775,4766675;,7777wyyewq787qweej05078eyyeyreeey7775567,;5,,,4756",
"74,3-,,,,-34qeyyqeyyyyeyyyiiihejh0jy0wwyyyyyttyiiieee6473,,,,3,6",
"67574;;>,qeyyyiyyywew8yiyeeeijh0j0j0jyyewwqeiieeeyiewe7q65766666",
";333,,6,7q47qeyyiyyryrwyreeyehjh0jhjhi0yyyywyyeeeyqy7474,3,-----",
"5557555,,qq5eeeiyyyyeeeewwwey0hj0hjh0jjyyyeyeewweyyew755555,;;;3",
"77>,,68eeewyreeqqqqerqwyiiyqyh0jhjh0hj0qwyeqyiiiqeyyeeee44,,,,47",
",;-=;;;;ywyiyyyyiiyyeyyyyyyeii##o0hhjh0yyeyyyyyyyyieeyiq7555555,",
",,;55,77eqqqwwqeyiiiyeyyyyyyqo22#o0jhh0iiyeeyyyyywwwqqqeq7q6776,",
"7,,,yiyyyyyyeeeyeeeyyyeyyyiio2Oo#oo0g0heeiyeyyyuiyyyyyree8,57755",
",,77yyqqyiieeeeqwierttyyqeyw2O#Oooog0hhheytyiwwyeqwyiiwerw7y,,>5",
"4wreyyyupiyyyyiewwwwwwyyeryoO22#Oookghhwwwweyeeyyyipyyyyyiwwq5,,",
",4reqqwyeryyeqwytteqyttyrwq#o  o2#gfkfttqettyreqqeywyyywqettyw47",
",,7eyyyeyyeeeeewwweuywweyyy2#222#okggkwwuuwweyyyueyyyeeeyewwwy5,",
"477yiyyyqqreyyppdddwqqqqeii22o2#oofkfkyyeqqqqqiiyyeqweeyyppi744,",
",qeeeyeeeewwippddda<yyeeewy# #loo2gfgfeeeryeeeweyeeeewepppyeeee7",
"7eeeeqyrerywwyyddad<qeeeeeqe22loo2fkfwfeeqwreeewwyreyyqeyyeew,,,",
",55wyiyeywuuywwdaaa<yyewweiulslo2fkff.yewryywweyiyeeeuuewweye75,",
",6eqqqqqqqrrrry<aa<qqerreqqqsl2#gkf..f999qwyrrqqqqqqwtrrtiiyy64,",
"77qeeyyyyyewq7ww<<aeeeewweyu22#ok.f999999.eeeweeuyyyrww88wweeq86",
",,;weiipqqeyrerraaaeryqeyeyipoo.f..f999999.wwyeeipyqqyrrertwq736",
"55w78eyuyyreeey#aaayywewyeeyuu....999.999..wweewyyuyyeeeeyuuye86",
"777eyieqryqqqy2#aaa#yeeryyiyqe.......9....9.eryiiwwreqqqiyeeyw47",
"5qryuuuyeeewey22###2yyeeeuuuye..99....99...9eeuuuueeyeweyyewe744",
"774eryyiyqwyyio2222#qqeiieyypi..999.....9999.iryyiieqetyiiyye777",
">5655qyeeiiywe##22##yetyeeeeew..999.9...9999.yeeeywyiuewyye77>;;",
"4767,6eeeqqeeeeo##2##yeeqqqeyt.9999.9....99...qqwyywqqeeey7,---,",
"75;4556eyyeeeeewoo#2###yiiy...999999......9.9.iiweyyeeeeeq6,,,,7",
",;--7yyiyqyiiyyuaoo#2####..99999999........99.yyyuiewiiyyry77774",
",,8eyyewewwweewea<oo#22###.999999.........999.yyyweewwwewwye554,",
"745eyiityyyyeeeyd<o##2####..999..........9999.yiiyyyyyreeryee777",
"4,55wywwyyieeeewa<aoyo####..9999.......99999..yyeweyiiwee85,55,4",
",677eeyypyyyyyiead<qqqyooo...999999999999999..eyyyypyyyyq7,---;,",
",,,,,4eyyyyyewey<d<wyyyyeo..9.99999999999999..ewwyytyye675557556",
",,777eyyyiyeereq<a<yeqqey...9..999999999999...yyyryyiee54;->>--,",
"365,,7yewwreeeii<adtewwwe...9..999999999999...iiyeeweeeeyee1;:>,",
",;,,eyyeerqqippp<<aeyyeee....9..9999999999....eyyeeeeqeppiyew,,,",
"6,44qweeeryeeyyyd<aeweeee....9...99999999.....eweeeeyywyye777455",
"477qeiieeqiiyqqqa<<qyyeqq.....9...9999999......yiytweiieqqqew7,,",
",57qeqw8ewyyyyya<a<wweyye.....9.....9999...99..wqwqweyyyy855555,",
"777weuuyyyqqq7ed<<eeeyqqw.9...9............99..riyyyeqq8qe7q77,,",
"46yeeyiiqweyteead<7werwer......9..........9.9..riiyqwyyeeeeq,,,6",
"336yqeyiuyeqwwy<a<eyyeeey......99...........9...yiiyywqewyypy,,,",
"77qeyieqyywwqyiyadeyyeeeyy.....9.........9..9...ueeyewwwiy8886,7",
"3678iyyyqeteeyyy<ayyyeqeei9.....9......99...99..yyeqyeety7,,475,",
"765yyyuiyqweeui<<<qeqeeiuyy.....99.........999..yiieqeeriiw76667",
",77764yeryyyeyy<da<wywyyeqq.....9999......9999..wyeyyiyyyy5,,,,,",
",666,qyeeeeeerei<<<yyyeeqqqe.....9999.....9999...yeeewyyiy5>---;",
"qeeyyeeyyyewqqt<d<eyeeeyyyyey.....99999..99999...yyypypiy76,,,,7",
"4,-,757iyqriuyr<ad<rqeeyyyyeii.....9999999999....yitpuyyipe76675",
",,>;>tweyeeeeeey<a<yiiiuuuieeye....9999999999....eeeey7,4433443,",
"63,4w757reeeeeer<<yiuewyyyiieree.....9999999.....teq>34>5,577776",
"5,44,574eeeeqqw<a<qeyyyiuiyeetyyy......99999.....63qee;,76,,77,,",
",5775,577eeeyyi<<d<qqqyyeryeeyiyyry.......9..e..8776,35766;---;,",
"44,,,,,euuyeteey<ad<yyyyqeeeii11>>XXXX#....#;77eeye4,55,,4667664",
",,6663,577weteeq<<<<eqqeyeeey>>>>XXXXX######%%66,,6776>,,,-,,-;,",
",464,,4weeq67eyy<<<iyeeeeyyi-::>XXXXX#22####:;@,,475,,,76,,;--;,",
",,,,33477656wipp<<yeeyeee7q%*::--,14#2#22##$+@@5,4776577765,,,,,",
"4,>>57,--,4eeyye<<7qewq,17e>--->>:112#22###-@++77;-;,,,,,6477666",
"574444,-----;>,3<<7qe7q7q7e5@;-,1,---;####@%%$444;-----:,,4776,,",
",377573,,,,4,,,,<<57q5eyyye5,@@@:>>>%@$$%%@@%7777,,,,33,,,,34663",
"67744476,,,433367<75467q544763,,4585q6775,367544575,,335,56777,,"
};
