/* XPM */
static char *_ac2fbf058664fc7b5783a435efb5abapgE4gODL50C4LzmG[] = {
/* columns rows colors chars-per-pixel */
"64 64 48 1 ",
"  c #08090D",
". c #14161E",
"X c #3E332A",
"o c #521D1B",
"O c #4D3A30",
"+ c #493C32",
"@ c #4E3C31",
"# c #533F33",
"$ c #533F35",
"% c #652723",
"& c #712B28",
"* c #534035",
"= c #554035",
"- c #584236",
"; c #5A4437",
": c #594338",
"> c #5B4539",
", c #5E4639",
"< c #554C3C",
"1 c #5F483A",
"2 c #5B4A3D",
"3 c #60473A",
"4 c #60483B",
"5 c #634A3D",
"6 c #654B3E",
"7 c #664C3E",
"8 c #684D3F",
"9 c #242940",
"0 c #5F1166",
"q c #694E40",
"w c #6B5041",
"e c #6E5243",
"r c #6F5344",
"t c #6F5444",
"y c #715544",
"u c #745746",
"i c #745847",
"p c #775A48",
"a c #746344",
"s c #6D6D6D",
"d c #89744F",
"f c #BBA160",
"g c #DDBF78",
"h c #871C92",
"j c #B937C5",
"k c #EECF84",
"l c #C4C4C3",
"z c gray82",
/* pixels */
"6677776,,,,6,6,3333,48477qqq44444445444444q577qqq544436,744444,6",
",,-=**=,,66,,;5,;;,,3,,-=***-,465,-,,--,,,774,,>$=,,76,>,5;;>,,5",
"776,5,,4,,47,===,,,,4777,5j,6,,h7wweyyyqey777eye85,,,65,===,,,,6",
"5775,4766675-,7777wyyewq78hhweejh5578eyyeyreeey7775567,-5,,,4756",
"74,3=,,,,=34qeyyqeyyyyhjhh0jirejhqyhywwyyyyyttyiiieee6473,,,,3,6",
"67574-->,qeyyyiyyywew8yihjh0jijh00hhyyyewwqeiieeeyiewe7q65766666",
"-333,,6,7q47qeyyiyyrjrwy0hjhj0jh0hj0yiyyyyywyyeeeyqy7474,3,=====",
"5557555,,qq5eeeiyyyyhjhh0hjh0jh0hjh0iyyyyyeyeewweyyew755555,---3",
"77>,,68eeewyreeqqqqerhjjh0h00j0hjh0jjhhqwyeqyiiiqeyyeeee44,,,,47",
",-=*----ywyiyyyyiiyyh00hj022+2X220jhh00yyeyyyyyyyyieeyiq7555555,",
",,-55,77eqqqwwqeyiii0jj002++2+X++20h0yyiiyeeyyyyywwwqqqeq7q6776,",
"7,,,yiyyyyyyeeeyeeeyy0hj2+&X+2+X&X20hhheeidddyyuiyyyyyree8,57755",
",,77yyqqyiieeeeqwiertt00+&ooX+X&ooX0j0iyeddda<wyeqwyiiwerw7y,,>5",
"4wreyyyupiyyyyiewwwwkkgf&X+Xo2%X+Xo00gkgwddad<eyyyipyyyyyiwwq5,,",
",4reqqwyeryyeqwytteqytkgg+  X2X  +fgffttqda<a<eqqeywyyywqettyw47",
",,7eyyyeyyeeeeewwweukgff+222X2X222+fgkwwuda<ayyyueyyyeeeyewwwy5,",
"477yiyyyqqreyyppieiwqqkgX+2X2+2X2+Xffiyye<<aaqiiyyeqweeyyppi744,",
",qeeeyeeeewwippieeeeykeff+++ X +++fgkkeeera2+Xweyeeeewepppyeeee7",
"7eeeeqyrerywwyyywreeqeefg+zX222Xz+gfywree2222+ewwyreyyqeyyeew,,,",
",55wyiyeywuuywwwyyweyyekfXlslslslXfgwyyewXXX+Xeyiyeeeuuewweye75,",
",6eqqqqqqqrrrryiyyeqqek99fXlslslXff.kyyyq2222+qqqqqqwtrrtiiyy64,",
"77qeeyyyyyewq7wweyeeee999..X22+X...9...eeXXX+Xeeuyyyrww88wweeq86",
",,-weiipqqeyrerreq8er9999...2+2...99999.qX++XX+eipyqqyrrertwq736",
"55w78eyuyyreeeyuuueyy99.99........99999..yad<X+wyyuyyeeeeyuuye86",
"777eyieqryqqqyiywyeyy99.99.......999.9....<a<+2iiwwreqqqiyeeyw47",
"5qryuuuyeeeweyyyweyyy99.999......99.9..99.<ad+2uuueeyeweyyewe744",
"774eryyiyqwyyiiyyyqe999..9999...99....999.<ad++yyiieqetyiiyye777",
">5655qyeeiiyweyyuyye999..999999999.9..99..d<a+Xeeywyiuewyye77>--",
"4767,6eeeqqeeeeiyyyy999...9999999.9..99...a<a+Xqwyywqqeeey7,===,",
"75-4556eyyeeeeewwwwe999...9999999.9.999..Xad<Xiiweyyeeeeeq6,,,,7",
",-==7yyiyqyiiyyuiity9999...99999.9..999.XX<d<Xyyyuiewiiyyry77774",
",,8eyyewewwweeweyyi999.9....9999.9..999.XX<a<Xyyyweewwwewwye554,",
"745eyiityyyyeeeyerr999.9........9...999.++<adXyiiyyyyyreeryee777",
"4,55wywwyyieeeewqye999.99......99..9999.X+<<ayyyeweyiiwee85,55,4",
",677eeyypyyyyyieqqq999..99....99.9.999...Xd<aeeyyyypyyyyq7,===-,",
",,,,,4eyyyyyeweyyye999..999...9..9.999....a<<eewwyytyye675557556",
",,777eyyyiyeereqqqw999...999999.9..999....<a<yyyyryyiee54-=>>==,",
"365,,7yewwreeeiiiei999...99999..9..999...a<<wwiiyeeweeeeyee1-;>,",
",-,,eyyeerqqipppyee999....999..9..9999...dd<eeeyyeeeeqeppiyew,,,",
"6,44qweeeryeeyyywee.99.....9...9..9999...aa<eeeweeeeyywyye777455",
"477qeiieeqiiyqqqyyq.99........9..99999...<ad<qqyiytweiieqqqew7,,",
",57qeqw8ewyyyyyiyye.99........9..99999....<aaywwqwqweyyyy855555,",
"777weuuyyyqqq7eeeye..99..........99999....<<aqeriyyyeqq8qe7q77,,",
"46yeeyiiqweyteeeew7..99..........99.99...aaa<yeriiyqwyyeeeeq,,,6",
"336yqeyiuyeqwwyyyye..99..........99.9.9.<<<<ayeqyiiyywqewyypy,,,",
"77qeyieqyywwqyiyeye..99.........999.9.9.<dd<<ryuueeyewwwiy8886,7",
"3678iyyyqeteeyyyeyy...9.........999...9..aad<wiyyyeqyeety7,,475,",
"765yyyuiyqweeuiyeeq....9........999...9..<<a<iyyyiieqeeriiw76667",
",77764yeryyyeyyyyiyw...9........999...9..e<<<yqqwyeyyiyyyy5,,,,,",
",666,qyeeeeeereiyyyy...9........999......ya<eeqqeyeeewyyiy5>===-",
"qeeyyeeyyyewqqteeeeye..........9999......yaa<yyyeyyypypiy76,,,,7",
"4,=,757iyqriuyryyyerq..........9999......e<aayyyeyitpuyyipe76675",
",,>->tweyeeeeeeyyyyyi..........999.......i<<<iyiyeeeey7,4433443,",
"63,4w757reeeeeeryyyiue........9999.......i<<<yyuiteq>34>5,577776",
"5,44,574eeeeqqweqwqeyyy........999...q...y<<yiiye63qee-,76,,77,,",
",5775,577eeeyyiqqeqqqqyye...XX.....XX7e.qq<<yeey8776,35766-===-,",
"44,,,,,euuyeteeyyyteyyyyqeeeX2X..XXXXyy.et<<e77eeye4,55,,4667664",
",,6663,577weteeqqqweeqqeyeeeX2XXyyXXqqqqer<<6666,,6776>,,,=,,=-,",
",464,,4weeq67eyyyeyiyeeeeyyiX2XXqqwyyyyyiye<ee,,,475,,,76,,-==-,",
",,,,33477656wippyeyeeye2+2+22XX2=,144,yyre4<>,,5,4776577765,,,,,",
"4,>>57,==,4eeyyee77qew=2+++++2X2>;111;=76qw7,:>77-=-,,,,,6477666",
"574444,=====->,35e7qe#=*2222+X2X1,===-=#5,,764444-=====;,,4776,,",
",377573,,,,4,,,,,457=#;>>2+XXXXX;>>>#O@@66,O57777,,,,33,,,,34663",
"67744476,,,433367775@##=#@++++XX@#=#=#==5,O#=544575,,335,56777,,"
};
