/* XPM */
static char *f9ddd19edf8f46dfc776b6d0e969bc38rl3SaVOWYwtncLXM[] = {
/* columns rows colors chars-per-pixel */
"64 64 46 1 ",
"  c #08090D",
". c #14161E",
"X c #322B24",
"o c #3E332A",
"O c #46362D",
"+ c #4B3A30",
"@ c #4C3A30",
"# c #493C32",
"$ c #4D3C31",
"% c #533F33",
"& c #533F35",
"* c #544033",
"= c #534035",
"- c #554035",
"; c #584236",
": c #5A4437",
"> c #594338",
", c #5B4539",
"< c #5E4639",
"1 c #554C3C",
"2 c #5F493A",
"3 c #5B4A3D",
"4 c #60473A",
"5 c #60483B",
"6 c #634A3D",
"7 c #654B3E",
"8 c #664C3E",
"9 c #684D3F",
"0 c #242940",
"q c #5F1166",
"w c #694E40",
"e c #6B5041",
"r c #6E5243",
"t c #6F5344",
"y c #6F5444",
"u c #715544",
"i c #745746",
"p c #745847",
"a c #775A48",
"s c #746344",
"d c #89744F",
"f c #BBA160",
"g c #DDBF78",
"h c #871C92",
"j c #B937C5",
"k c #EECF84",
/* pixels */
"7788887<<<<7<7<4444<59588www55555556555555w688www655547<855555<7",
"<<;-==-<<77<<:6<::<<4<<;-===;<j76<;h<;;<<<885<<,&-<<87<,<6::,<<6",
"887<6<<5<<58<---<<<<5888<6<<7<hh8eejhuuwru888rur96<<<76<---<<<<7",
"6886<5877786;<8888euurew89hjhhqjw66jhruhrutrrru8886678<;6<<<5867",
"85<4-<<<<-45wruuwruuuuruuupphjhqjwjhqqhhuuuuyyuppprrr7584<<<<4<7",
"78685;;,<wruuupuuuere9upjrrrqhjhjqjhqhjqeewrpprrruprer8w76877777",
";444<<7<8w58wruupuututeuhjhhqhjhqjhqhjhquuueuurrruwu8585<4<-----",
"6668666<<ww6rrrpuudddrrrehjjhqhqqjqhjhqjjhhurreeruure866666<;;;4",
"88,<<79rrreutrrww1sdddeuhqqhjq33#3o33qjhhqqwupppwruurrrr55<<<<58",
"<;-=;;;;ueupuuuup1dsdduuqjjqq3##3#oo#3qhqruuuuuuuuprrupw8666666<",
"<<;66<88rwwweewru1s1sduuuqhj3#oooooooo3qhhhruuuuueeewwwrw8w7887<",
"8<<<upuuuuuurrrurrs1sdruuuqq#oo     oooqjquruuuipuuuuutrr9<68866",
"<<88uuwwupprrrrwe@s1s1uukgqqoo ..... oofgkkupeeurweupperte8u<<,6",
"5etruuuiapuuuupre3ss1Ouurffgo ......  ggkeerurruuupauuuuupeew6<<",
"<5trwweurtuurweuy3s3s#yutkgfo .....   #ffgkyutrwwrueuuuewryyue58",
"<<8ruuuruurrrrree#o#soeruuffo .       ogkieeruuuiruuurrrureeeu6<",
"588upuuuwwtruuaap###sowwrkkgf        #ffrkwwwwppuurwerruuaap855<",
"<wrrrurrrreepaapro#osorrreufg        #gfrturrrerurrrreraaaurrrr8",
"8rrrrwutrtueeuuuet#3oXrrrrwgfo       ofkrwetrrreeutruuwruurre<<<",
"<66eupurueiiueeeuu33#ureerk.ff      ofurktuueerupurrriireerur86<",
"<7rwwwwwwwttttupuu#3#o.000.....     ..uuwweuttwwwwwweyttyppuu75<",
"88wrruuuuurew8eer1o#3.0000.00...   ...0rrrrrrerriuuutee99eerrw97",
"<<;erppawwrutrttr1do.000000000........0.wyueeurrpauwwuttrtyew847",
"66e89ruiuutrrruii1so.00.00000000.......0.ueeerreuuiuurrrruiiur97",
"888ruprwtuwwwupue1s..00.0000000000....0000trrtuppeetrwwwpurrue58",
"6wtuiiiurrreruuuer1.00.0.00000000000000000urrriiiirrureruurer855",
"885rtuupuweuuppuuu1.00.0.000000000000000000wpptuupprwryuppuur888",
",6766wurrppueruuiu1s.0.0.000.00000000000000ruurrrueupireuur88,;;",
"5878<7rrrwwrrrrpu1ds.0.00.00000000000000000ueewweuuewwrrru8<---<",
"86;5667ruurrrrree1s1.0..0.00..0000000000000euupperuurrrrrw7<<<<8",
"<;--8uupuwuppuuip1s1.00.0.00..00000000000.0uuuuuuipreppuutu88885",
"<<9ruurereeerreruu11.00...00..00000000000000uuuuuerreeereeur665<",
"856ruppyuuuurrrurt1s.00...00..0000000000..00uuuppuuuuutrrturr888",
"5<66eueeuuprrrrewur1.00...00...000000000.000iuuurerupperr96<66<5",
"<788rruuauuuuuprwww1d.....00....0000000...00urruuuuauuuuw8<---;<",
"<<<<<5ruuuuureruuur1s.....00....0000000...00urreeuuyuur786668667",
"<<888ruuupurrtrwww1ds..0...0.....00000..0.00euuuutuuprr65;-,,--<",
"476<<8ureetrrrppprss1..0...0.....0000...0.00eeppurrerrrrurr2;:,<",
"<;<<ruurrtwwpaaaurs11..0...0.....0000...0.00rrruurrrrwraapure<<<",
"7<55werrrturruuuer1ss..0...0.....0000...0.0.rrrerrrruueuur888566",
"588wrpprrwppuwwwuus111.00..0......000...0.0.wwwupuyerpprwwwre8<<",
"<68wrwe9reuuuuupuu11dd.00..0......000...0.0.uueeweweruuuu966666<",
"888eriiuuuwww8rrru1dss.00....0.....000..00..wwrtpuuurww9wr8w88<<",
"57urruppweruyrrrre1s11.00....0.....000..00..rurtppuweuurrrrw<<<7",
"447uwrupiurweeuuuu111r.000...00.....00..00..rurwuppuuewreuuau<<<",
"88wruprwuueewupurur1sr.000...000....00..00..rtuiirrureeepu9997<8",
"4789puuuwryrruuuru1ssr.000...000....00..00..eepuuurwurryu8<<586<",
"876uuuipuwerripurrss1r.0000..000.....0..0...ppuuupprwrrtppe87778",
"<88875urtuuuruuuup111e.0000...00.....0..0..uuuwweuruupuuuu6<<<<<",
"<777<wurrrrrrtrpuu111u.00000..00........0..rrrwwrurrreuupu6,---;",
"wrruurruuurewwyrrrr11r.0000.0000..........eruuuuruuuauapu87<<<<8",
"5<-<868puwtpiutuuur11rr.000.0000..........eruuuurupyaiuupar87786",
"<<,;,yerurrrrrruuuu11ppi.00..000.....0....ppupupurrrru8<5544554<",
"74<5e868trrrrrrtuuu11reuu....0000...0....pteuuuipyrw,45,6<688887",
"6<55<685rrrrwwerwew1uuupip...000........euuuuppur74wrr;<87<<88<<",
"<6886<688rrruupwwrw1wwuurtoo.....oo...rewwwrurru9887<46877;---;<",
"55<<<<<riiuryrruuuyruuuuwroooo..o#oruuuuryurr88rrur5<66<<5778775",
"<<7774<688eryrrwwwerrwwrurroouyoo#orwwwwrtw87777<<7887,<<<-<<-;<",
"<575<<5errw78ruuurupurrrr<<2-::oo#oo<<,,2urrrr<<<586<<<87<<;--;<",
"<<<<44588767epaauru::,rr;%-%*::###oo5<,,,:55,<<6<5887688876<<<<<",
"5<,,68<--<5rruurr8%-:ew+$-:,---o###o2:-%%--8<>,88;-;<<<<<7588777",
"685555<-----;,<46r8wr8w=--:%@;-#33oo-;-%%@@875555;-----:<<5887<<",
"<488684<<<<5<<<<<568w6r,,<;%@@@ooooo%@$$%%@<68888<<<<44<<<<45774",
"78855587<<<544478886578w%$$%%@@oooo%-%--%@478655686<<446<67888<<"
};
