/* XPM */
static char *d0b017e455804b5efe9ad497e244749csyvFDGe2Uck2qHmK[] = {
/* columns rows colors chars-per-pixel */
"64 64 44 1 ",
"  c #08090D",
". c #14161E",
"X c #3E332A",
"o c #46362E",
"O c #49382F",
"+ c #4C3A30",
"@ c #493C32",
"# c #513D32",
"$ c #533F35",
"% c #544033",
"& c #534035",
"* c #554035",
"= c #584236",
"- c #5A4437",
"; c #594338",
": c #5B4539",
"> c #5E4639",
", c #554C3C",
"< c #5E4839",
"1 c #5B4A3D",
"2 c #60473A",
"3 c #60483B",
"4 c #634A3D",
"5 c #654B3E",
"6 c #664C3E",
"7 c #684D3F",
"8 c #242940",
"9 c #5F1166",
"0 c #694E40",
"q c #6B5041",
"w c #6E5243",
"e c #6F5344",
"r c #6F5444",
"t c #715544",
"y c #745746",
"u c #745847",
"i c #775A48",
"p c #746344",
"a c #89744F",
"s c #BBA160",
"d c #DDBF78",
"f c #871C92",
"g c #B937C5",
"h c #EECF84",
/* pixels */
"5566665>>>>5>5>2222>37366000333333343333330466000433325>633333>5",
">>=*&&*>>55>>-4>-->>2>>=*&&&=>g54>=f>==>>>663>>:$*>>65>:>4--:>>4",
"665>4>>3>>36>***>>>>3666>4>>5>ff6qqgftt0wt666wtw74>>>54>***>>>>5",
"4664>3655564=>6666qttwq067fgff9g044gfwtfwtewwwt6664456>=4>>>3645",
"63>2*>>>>*230wtt0wttttwtttuufgf9g0gf99ffttttrrtuuuwww5362>>>>2>5",
"56463==:>0wtttutttqwq7tugwww9fgfg9gf9fg9qq0wuuwwwtuwqw6054655555",
"=222>>5>60360wttutteteqtfgff9fgf9gf9fgf9tttqttwwwt0t6363>2>*****",
"4446444>>004wwwuttttwwwwqfggf9f99g9fgf9ggfftwwqqwttwq644444>===2",
"66:>>57wwwqteww0000we0qtf99fg911@1X119gff990tuuu0wttwwww33>>>>36",
">=*&====tqtuttttuuttwttt9gg991@@1@XX@19f9wttttttttuwwtu06444444>",
">>=44>66w000qq0wtuuutwttt9fg1@XXXXXXXX19fffwtttttqqq000w0605665>",
"6>>>tuttttttwwwtwwwaaawttt99@XX     XXX9g9twtttyuttttteww7>46644",
">>66tt00tuuwwww0qu,paaathd99XX ..... XXsdhhtuqqtw0qtuuqweq6t>>:4",
"3qewtttyiuttttuwqq,apaatwssdX ......  ddhqqwtwwtttuitttttuqq04>>",
">3ew00qtwettw0qtrr,p,patehdsX .....   @ssdhrtew00wtqtttq0wrrtq36",
">>6wtttwttwwwwwqqqwp,p,wttssX .       Xdhyqqwtttywtttwwwtwqqqt4>",
"366tuttt00ewttiiuw+p,p,0whhds        @sswh0000uuttw0qwwttiiu633>",
">0wwwtwwwwqquiiuww@pp,owwqtsd        @dswetwwwqwtwwwwqwiiitwwww6",
"6wwww0tewetqqtttqOXp1p@www0dsX       Xshw0qewwwqqtewtt0wttwwq>>>",
">44qtutwtqyytqqqtO@X@pXqqwh.ss      Xstwhettqqwtutwwwyywqqwtw64>",
">5w0000000eeeetutOX@@pXew......     ..tt00qtee000000qreeruutt53>",
"660wwtttttwq06qqwt@@XpXq.8888...   ...8wwwwwwqwwyttteqq77qqww075",
">>=qwuui00wteweew01@@...888888........8.0rtqqtwwuit00teewerq0625",
"44q67wtyttewwwtyyy@@...88888888.......8.8tqqqwwqttyttwwwwtyytw75",
"666wtuw0et000tutqt@.88.8888888888....88888ewwetuuqqew000utwwtq36",
"40etyyytwwwqwtttqw@.8.8.888888888888888888twwwyyyywwtwqwttwqw633",
"663wettut0qttuuttt0..88.88888888888888888800uuettuuw0wrtuuttw666",
":45440twwuutqwttytt..88.888888888888888888wwttwwwtqtuywqttw66:==",
"3656>5www00wwwwuttt.8.88.88888888888888888.tqq00qttq00wwwt6>***>",
"64=3445wttwwwwwqqqq.8..8.88888888888888888.qttuuqwttwwwww05>>>>6",
">=**6ttut0tuuttyuur.8..8.888888888888888.8.ttttttyuwquuttet66663",
">>7wttwqwqqqwwqwttua8....8888888888888888..ttttttqwwqqqwqqtw443>",
"634wtuurttttwwwtweep.8...88.88888888888....qtttuutttttewwetww666",
"3>44qtqqttuwwwwq0twp.8...88...888888888.8.8.ytttwqwtuuqww74>44>3",
">566wwttitttttuw000,.8...88....8888888....8.twwttttitttt06>***=>",
">>>>>3wtttttwqwtttw,.8...88....8888888...88.twwqqttrttw564446445",
">>666wtttutwwew000qt.88...8.....88888..8.88..ttttettuww43=*::**>",
"254>>6twqqewwwuuuwur.88...8.....8888...8.88..quutwwqwwwwtww<=-:>",
">=>>wttwwe00uiiitwww.88...8.....8888...8.88..wwttwwww0wiiutwq>>>",
"5>330qwwwetwwtttqww,a.88..8......888...8.88..wwqwwwwttqttw666344",
"3660wuuww0uut000tt0pp.88..8......888...8.88..00tutrqwuuw000wq6>>",
">460w0q7wqtttttuttwp,.88....8.....888..8888.ttqq0q0qwtttt744444>",
"666qwyyttt0006wwwtwp,.88....8.....888..8888.00weutttw0070w6066>>",
"35twwtuu0qwtrwwwwq6,,.888...88.....88..8888.wtweuut0qttwwww0>>>5",
"225t0wtuytw0qqttttw,a.888...888....88..888..wtw0tuuttq0wqttit>>>",
"660wtuw0ttqq0tutwtw,p.888...888....88..888..wetyywwtwqqqut7775>6",
"2567uttt0wrwwtttwtt,,.8888..888.....8..8.8.0qqutttw0twwrt6>>364>",
"654tttyut0qwwyutww0w,.8888...88.....8..8..qquutttuuw0wweuuq65556",
">66653twetttwttttut,p.88888..88........8.wwttt00qtwttutttt4>>>>>",
">555>0twwwwwwewutttpp.888888.888.........ttwww00wtwwwqttut4:***=",
"0wwttwwtttwq00rwwww,,,8888.8.8888.......wtqwttttwtttitiut65>>>>6",
"3>*>646ut0euytetttw,,,8888.8..8.......twwwqwttttwturiyttuiw65564",
">>:=:rqwtwwwwwwttttt,,8888.8..8..w@@@ttttuuutututwwwwt6>3322332>",
"52>3q646ewwwwwwetttu,,.8...8....ww@@@@ttyueqtttyurw0:23:4>466665",
"4>33>463wwww00qw0q0w,,t..XX....>:*@@@@***ttttuutw520ww=>65>>66>>",
">4664>466wwwttu00w00,,tt-XX...<>:@111@@***0wtwwt7665>24655=***=>",
"33>>>>>wyytwrwwtttrw,tt:XX@@<<<<:@@@@1@@-::ww66wwtw3>44>>3556553",
">>5552>466qwrww000q-,*0-@@@1::::::-@@@@*-:*65555>>5665:>>>*>>*=>",
">353>>3qww056wtttw><>---X@11*--:***:>>::<>-www>>>364>>>65>>=**=>",
">>>>22366545quiitwt--:wwXX@#%--**><33>:::-33:>>4>3665466654>>>>>",
"3>::46>**>3wwttww660wq0><*-:***::-<<<-*##0q6>;:66=*=>>>>>5366555",
"463333>*****=:>24w60w60606w4>w0tut000w064>>653333=*****->>3665>>",
">266462>>>>3>>>>>34604wtttw4>>>>wttt4>3355>>46666>>>>22>>>>23552",
"56633365>>>3222566643560433652>>347405664>256433464>>224>45666>>"
};
