/* XPM */
static char *e6ccc9830882453cd58f3254ae0146091itJGiiWSIWSijsc[] = {
/* columns rows colors chars-per-pixel */
"64 64 47 1 ",
"  c #08090D",
". c #14161E",
"X c #3E332A",
"o c #521D1B",
"O c #4B3A30",
"+ c #4D3A30",
"@ c #493C32",
"# c #4E3C31",
"$ c #533F33",
"% c #652723",
"& c #712B28",
"* c #534034",
"= c #564136",
"- c #594337",
"; c #5A4437",
": c #5B4438",
"> c #5E4639",
", c #554C3C",
"< c #5F483A",
"1 c #5B4A3D",
"2 c #60473A",
"3 c #60483B",
"4 c #634A3C",
"5 c #654B3E",
"6 c #674D3F",
"7 c #684D3F",
"8 c #242940",
"9 c #5F1166",
"0 c #694F40",
"q c #6B5041",
"w c #6D5242",
"e c #6F5344",
"r c #6F5444",
"t c #705444",
"y c #745746",
"u c #755947",
"i c #775A48",
"p c #746344",
"a c #6D6D6D",
"s c #89744F",
"d c #BBA160",
"f c #DDBF78",
"g c #871C92",
"h c #B937C5",
"j c #EECF84",
"k c #C4C4C3",
"l c gray82",
/* pixels */
"4444443>>235>43>>>>>36244444>>>332343>>>>>7464444>>>334>53>>>>>5",
">>:====>>53>>=:===>>>>>>-h==>>g42>=--==>>>33>674=->>63>-=:==->>2",
"666>4>443346:-==>>3550062gg264hg60qwtyuwwu000www0633364:==->>3>6",
"3666>4643366:4wwwwwttghgg9hwwqhgwqgwwwttwtw0qquwq633464:52>>3653",
"64>2=;::;-34qttt0wwrwtwghg9huhg99ggttqqwwweetttyuitww5303>333336",
"46564>:34wrttttttuwhw0t9ghgh9hg9gh9tttutwwwttt00qttwwt0446633333",
"-333>26>66250wwtyttghgg9ghg9hg9ghg9wtutttttqwwwwwt0t6>63>3>=====",
"53:6533>-qw700wtttttghhg9g99h9ghg9hhggttttqtwwwwwttwww55532>>>:4",
"54-->46wtwwtttwqww0g99gh911@1X119hgg99w0qww0tyuu0ttwwttw23333346",
">>-=====twttttttttt9hh991@@1@X@@19g9ttttttyutututttwwttw0333333>",
"3>-466q0w000qq0wtyui9gh1@&X@1@X&X19gggtuutwwtttttwqq000w06066663",
"6>>>tttttttt00qt000tt99@&ooX@X&ooX9h9q00wttwtuutttttttw00q>36633",
">200tt00tuuwttt0qtwjjfd&X@Xo1%X@Xo99fjfwwwwryqqtw0wtuuqttw6t>:;4",
"3ww0tttuiuyttttwwwwwwjff@  X1X  @dfddwwwwwwrtqqttyuiutttttwww04>",
">>wr00qtwtttw0qwwwwjfdd@111X1X111@dfjwww0wwwwtw00wtqtttq0wwwwq>5",
">>6wtytwttw00wrwwwtutjfX@1X1@1X1@Xddwwwwuuwwwtttuwtttq00twwwwtq>",
"200tuttt00wwttiiuwyqjqdd@@@ X @@@dfjjuttwsss00uuttw0qwwttiiu744>",
"2000qtw00wwwtiitw000twdf@lX111Xl@fdiut00sssp,00wtq00rwwuiitq0006",
"6wwwwwttewtwwwwwqtww0wjdXkakakakXdfwwqtwssps,wwwwttwwtwwwwwww3>>",
">36wtttqywtttwwwytwwtj88dXkakakXdd.jwttwsp,p,wetttwtwttwwwttw652",
"36wq0qq000wwwwtuttw00.88..X11@X...8.uttt,p,pww00w000qwwwwyytt64>",
"660qqtttttwww600qt000888...1@1...888.0tq0,ppww0wttttrww0700ww545",
">>>qwtuiq0wewwttw00wt8.88.......88888.00qp1@Xtrwuiu00twrwttq0045",
"55740rttttrwwwtuuuqt.8.88.......888888.w1111@wrwtttttwwrwyuutw45",
"560etuw0wr000tytqtwt.8.888.....888.8888.XXX@Xwtuyqqww000utwwtq35",
"5qrttuutwrw0qttt0wtt.8.8888888888888....1111@wtuuurwtq0wttw0w424",
"663qwwtut0wttyuttt0..8..88888888888...8.XXX@Xuwwwyuw0tttuuttt655",
"-3333qtqwuut0wttutt..8..88888888.8....888@@XX@wwwt0tutw0ttq>>-==",
"354635www00wwwwuttt..8..8888888..8...888.ps,X@00qttq00wwwt6>===>",
"65;>356wttqwwww000...88..8888...8....88..,p,@1uu0wttwwwww63>>>26",
">-=:7ttut0tuyttyuu....8........88...88...,ps@1ttttuwqyutttt05552",
">>qwttw0w000qq0wty....8.......88....88..X,ps@@tttqqq000w00tq554>",
"623wtuytttttwwwtww.8..88.....888...888.XXs,p@Xtuutttttrwwttww655",
"2>557t00tyuwwww0qt.8..888...888...8888.X@p,p@Xwtw0qtuuqww6>>33>4",
">555wwttitttttuw00.8..8888.8888...888...@ps,Xwwttttitttt05>::::>",
">>>>>4wtttttw0qttt.8..888888.8...8888...X,s,Xww00ttwttq355336335",
">>666wtetyrwwrw000.8...8888..8...888.....,p,Xttttwttyww53-=;-==>",
"253>>7te00rwwruuuw.88..888..8....888.....,psX0uutww0qwwwttt4:>>>",
">-::wtrwwr00uiiurw.88..8....8...8888.....,,pwwwrtwwww0wiiutwq333",
"5244q0rwwrtqwtttqw.88...........8888.....s,pwwwqqwwwtt0ttw066333",
"2560wuywt0uut000tt.88...........8888.8...p,,000tutwwwuuw000w063>",
">460q007q0tttttuttw888.........88888.8..p,p,tt000000qtttt634533>",
"667qwyyttt0006wwwtw888.........8888..8..s,,q00wrutttw0070w6q55>2",
"25twwyuu00wtrwwww06888.........8888..8..ps,qqtwruut00ttwwww7>>>5",
"335t0wtuytw0qqttttw888........88888..8..,p,wwrw0tyuttq0wqttit>>2",
"667wtuw0tt000tutwtw888........8888...8...ps,wrtyyqqtw000ut666626",
"3550uttt0wrwwtttwrt88.8......88888.......,ppqqutttw0twwrt6>>2542",
"664ttttut0qwwyutwr088.8......8888...8...p,,puutttuuw0wwruuw65556",
">55543twwtttwrtttut88.8.....88888...8..,,pp,tt00qtwttutttt4:>>>:",
">55520twwwqwwrwuttt88......88888....8..,s,,pqq00qtwww0tyut4:===-",
"0wqttwwtttwq00rwwww888...888.888....8...ps,,ttttwtttitiut763>>>6",
"3:=>636ut0tuytetttw888.......88.........,ps,ttttwtuwitttuiw65564",
">>;->tqwrwwwwwwrtttt88......X.8.........t,p,tututwwwwt6>2222332>",
"52>30546rwwwwwwrtttuywqt...XXX.....@@t..t,,,tttyutw0:23-4>366665",
"4>33>463wqww00qw0w0wtttutut@XXXtt@@@@0.0qp,ttyytw527ww->55>>55>>",
">4664>467wwwttuq0w0000ttwe@@@XXXt@@@@6w00pp,twwt0665>23655;===->",
"22>>>>>wtttwrwwtttrwtttt0@@@@@XXt@@@@tttw,ppw66wwtw3243>>3556553",
">>5552>466qwrww000qww00@@@@@@@@tt@@@@000w,,,5555>>6665:>>:=>>==>",
">352>>3qww756wtttwtytw@@@@@@@@@:=@@@@tttu,,,ww>>>364>:>65>>-==->",
">:>>22366645quiitwtww>;@@@@@@@@==@@@3>tte,,3:>>4>3665466654>>>>>",
"3>::46>==>3wwrtww660;==O#=;:===::;<<>;=65,,6>::66-=->>>>>5366555",
"463333>=====-:>24w6=;$=*==;$O==><>===-=64,,653333-=====;>>3665>>",
">266462>>>>3>>>>>34==$-::>-$++++;:::$+#35,,>46666>>>>22>>>>23552",
"56633365>>>322256664#$$=$##$$+++#$=$=$664+,56433464>>224>45666>>"
};
