/* XPM */
static char *_8018e2d9e91457fc5280cd74323809abQeoPN5bPoPRO0SD[] = {
/* columns rows colors chars-per-pixel */
"64 64 46 1 ",
"  c #08090D",
". c #14161E",
"X c #392D24",
"o c #3E332A",
"O c #521D1B",
"+ c #4D3A30",
"@ c #493C32",
"# c #4D3C31",
"$ c #533F33",
"% c #533F35",
"& c #534035",
"* c #554035",
"= c #584236",
"- c #5A4437",
"; c #594338",
": c #5B4539",
"> c #5E4639",
", c #554C3C",
"< c #5F493A",
"1 c #5B4A3D",
"2 c #60473A",
"3 c #60483B",
"4 c #634A3D",
"5 c #654B3E",
"6 c #664C3E",
"7 c #684D3F",
"8 c #242940",
"9 c #5F1166",
"0 c #694E40",
"q c #6B5041",
"w c #6E5243",
"e c #6F5344",
"r c #6F5444",
"t c #715544",
"y c #745746",
"u c #745847",
"i c #775A48",
"p c #746344",
"a c #6D6D6D",
"s c #89744F",
"d c #BBA160",
"f c #DDBF78",
"g c #871C92",
"h c #B937C5",
"j c #EECF84",
"k c #C4C4C3",
/* pixels */
"5566665>>>>5>5>2222>37366000333333343333330466000433325>633333>5",
">>=*&&*>>55>>-4>-->>2>>=*&&&=>354>=>>==>>>663>>:%*>>65>:>4--:>>4",
"665>4>>3>>36>***>>>>3666>4>>5>>96qqwttt0wt666wtw74>>>54>***>>>>5",
"4664>3655564=>6666qttwq06760qwwh94967wttwtewwwt6664456>=4>>>3645",
"63>2*>>>>*230wtt0wttttwtttuuugwhg9ht9qqtttttrrtuuuwww5362>>>>2>5",
"56463==:>0wtttutttqwq7tutwwwuhg9h9h9httwqq0wuuwwwtuwqw6054655555",
"=222>>5>60360wttutteteqtewwtwghg9hghgu9ttttqttwwwt0t6363>2>*****",
"4446444>>004wwwuttttwwwwqqqwt9gh9ghg9hhtttwtwwqqwttwq644444>===2",
"66:>>57wwwqteww0000we0qtuut0tg9hghg9gh90qtw0tuuu0wttwwww33>>>>36",
">=*&====tqtuttttuuttwttttttwuu@@o9gghg9ttwttttttttuwwtu06444444>",
">>=44>66w000qq0wtussswtttttt0o11@o9hgg9uutwwtttttqqq000w0605665>",
"6>>>tuttttttwwwtwsssp,wtttuuo1Oo@oo9f9gwwutwtttyuttttteww7>46644",
">>66tt00tuuwwww0qssps,tt0wtq1O@Oooof9gggwtrtuqqtw0qtuuqweq6t>>:4",
"3qewtttyiuttttuwqsppp,ttwetoO11@Ooojfggqqqqwtwwtttuitttttuqq04>>",
">3ew00qtwettw0qtr,pp,rrteq0@o  o1@fdjdrr0wrrtew00wtqtttq0wrrtq36",
">>6wtttwttwwwwwqqq,,pqqwttt1@111@ojffjqqyyqqwtttywtttwwwtwqqqt4>",
"366tuttt00ewttiiuwppp000wuu11o1@oodjdjttw00000uuttw0qwwttiiu633>",
">0wwwtwwwwqquiiuw@ppptwwwqt@ @koo1fdfdwwwetwwwqwtwwwwqwiiitwwww6",
"6wwww0tewetqqttt1@ppp@wwww0w11koo1djdqdww0qewwwqqtewtt0wttwwq>>>",
">44qtutwtqyytqqq11@@@1wqqwuykako1djdd.twqettqqwtutwwwyywqqwtw64>",
">5w0000000eeeetuo1111@eew000ak1@fjd..d8880qtee000000qreeruutt53>",
"660wwtttttwq06qq@@11@@wqqwty11@oj.d888888.wwwqwwyttteqq77qqww075",
">>=qwuui00wteweewo@@1@0wtwtuioo.d..d888888.qqtwwuit00teewerq0625",
"44q67wtyttewwwtyyyoo@1@qtwwtyy....888.888..qqwwqttyttwwwwtyytw75",
"666wtuw0et000tutqtpoo@@@ttut0w..88...8....8.wetuuqqew000utwwtq36",
"40etyyytwwwqwtttqwp,oo1@@.88.w..8888..88...8wwyyyywwtwqwttwqw633",
"663wettut0qttuuttts,o@@1@@.888.88.88....8888.uettuuw0wrtuuttw666",
":45440twwuutqwttytp,po@11@.8888888.888...888.twwwtqtuywqttw66:==",
"3656>5www00wwwwuttps,to@@@.8888888........8...00qttq00wwwt6>***>",
"64=3445wttwwwwwqqq,s,qw@@o..888888............uuqwttwwwww05>>>>6",
">=**6ttut0tuuttyuu,p,wttoo...8888.8.........8.tttyuwquuttet66663",
">>7wttwqwqqqwwqwtt,pstttt....88888.8..........tttqwwqqqwqqtw443>",
"634wtuurttttwwwtwe,,ptqtt.....88888.8.........tuutttttewwetww666",
"3>44qtqqttuwwwwq0ts,pttyw......8888........8..ttwqwtuuqww74>44>3",
">566wwttitttttuw00p,,0ttw.......8888.......8..wttttitttt06>***=>",
">>>>>3wtttttwqwttp,p,tttw.......888888....8...wqqttrttw564446445",
">>666wtttutwwew00s,,w00wt....8...8888888888...tttettuww43=*::**>",
"254>>6twqqewwwuuups,wqqqw.8..8....888888888...uutwwqwwwwtww<=-:>",
">=>>wttwwe00uiiit,p,ttwww....8.....8888888....wttwwww0wiiutwq>>>",
"5>330qwwwetwwtttqwpsqwwww....8.....8888888....wqwwwwttqttw666344",
"3660wuuww0uut000tt,pttw000...8......88888.....0tutrqwuuw000wq6>>",
">460w0q7wqtttttut,,,qwttww8...8......888...8..qq0q0qwtttt744444>",
"666qwyyttt0006www,sp,t00qw8...8.......8....8..weutttw0070w6066>>",
"35twwtuu0qwtrwwwwq,,,eqwew8...8...........88..weuut0qttwwww0>>>5",
"225t0wtuytw0qqttt,s,twwwtq8...8............8..w0tuuttq0wqttit>>>",
"660wtuw0ttqq0tutw,ps,wwwtt8....8.........8.8..tyywwtwqqqut7775>6",
"2567uttt0wrwwtttwt,p,w0wwut....88......88..8..utttw0twwrt6>>364>",
"654tttyut0qwwyutww,,0wwuytt.....88.........8..tttuuw0wweuuq65556",
">66653twetttwtttt,p,tqttw00w....8888......88..00qtwttutttt4>>>>>",
">555>0twwwwwwewut,,s,tww000w.....8888.....8...00wtwwwqttut4:***=",
"0wwttwwtttwq00rwww,ps,wttttw.....888888..88...ttwtttitiut65>>>>6",
"3>*>646ut0euytettt,,,,wttttwuu....888888888...ttwturiyttuiw65564",
">>:=:rqwtwwwwwwttt,,,uuyyyuwwt....88888888....tutwwwwt6>3322332>",
"52>3q646ewwwwwwett,,ywqtttuuwe.....888888.....tyurw0:23:4>466665",
"4>33>463wwww00qw0q,,tttuyutwwr......88888.....utw520ww=>65>>66>>",
">4664>466wwwttu00w,,00ttwetwwtu@.....888......wt7665>24655=***=>",
"33>>>>>wyytwrwwttt,,tttt0ww-<<<1@@....8....X.66wwtw3>44>>3556553",
">>5552>466qwrww000q,w00wtw--:::11@--......XXX555>>5665:>>>*>>*=>",
">353>>3qww056wtttwt,twwww>><*-111@*:>X..XXXXww>>>364>>>65>>=**=>",
">>>>22366545quiitwtwwtww=$*$1111@@@33>XXXX##:>>4>3665466654>>>>>",
"3>::46>**>3wwttww6$*-*0>#11111@@1@@<<-*$$***>;:66=*=>>>>>5366555",
"463333>*****=:>24w6*-60611@111@@@@***=*$$++653333=*****->>3665>>",
">266462>>>>3>>>>>34604wttt=$++++-:::$+##$$>>46666>>>>22>>>>23552",
"56633365>>>3222566643560433652>>347405664>256433464>>224>45666>>"
};
