/* XPM */
static char *_2e889ac92594fcea5da9f74ef97d1c0XNSyjTn0RMI7Msue[] = {
/* columns rows colors chars-per-pixel */
"64 64 55 1 ",
"  c #37382A",
". c #38382A",
"X c #3A3A2C",
"o c #3D3D2E",
"O c #3F3F30",
"+ c #403F2F",
"@ c #403F30",
"# c #3F4030",
"$ c #424232",
"% c #444333",
"& c #454433",
"* c #454434",
"= c #494334",
"- c #4F4335",
"; c #484635",
": c #4E4536",
"> c #484836",
", c #4C4A37",
"< c #4B4B38",
"1 c #4D4A38",
"2 c #4F4E3A",
"3 c #534336",
"4 c #564136",
"5 c #514737",
"6 c #544537",
"7 c #584337",
"8 c #5A4437",
"9 c #524738",
"0 c #564739",
"q c #5B4438",
"w c #5E4639",
"e c #504938",
"r c #564839",
"t c #524F3B",
"y c #564C3B",
"u c #594A3B",
"i c #5C4A3B",
"p c #5F4A3C",
"a c #5E4D3D",
"s c #51503B",
"d c #51513C",
"f c #56533E",
"g c #55543E",
"h c #5A513E",
"j c #60473A",
"k c #60483B",
"l c #634A3C",
"z c #644B3D",
"x c #614C3D",
"c c #674D3F",
"v c #575540",
"b c #585741",
"n c #5C5741",
"m c #5B5942",
"M c #5E5842",
/* pixels */
"llllllkwwjkzwlkwww744ljlllllqwwkkjllkkzzlwcjzllllwwwkklwlwwwwwwz",
"wwq4444wwzkww4q44llwwwwwwlllqwkljl77qq44lwczlq4447wwckw77wwwwwwj",
"cccwlwllkklcqq7lk4444444444qz7w7l7q44444w4447lwlllljkclww7wwwkwc",
"kcccwlclkkcc7744444445ee444w4444444w4447444444744447lcl47wwwkczk",
"clwjqllkwwk444r6-gbbg**$,,tarrrr53,gbbbbg,,-rau444444444kwkkkkkc",
"lczclwwklq44eh<*$$$;2mb1$$*<<<<<*$$$$$$$;$$$<<*,5444w444wcckkkkk",
"7kkk47k743rg$**>mm,$*$OO,,o%*>2bg*&>2bbbb2&gg<&$>2b96rrr47w44444",
"zkqczwq40m>;>**$$$$$*$O*bb;oooX$$&$,,,XXXXXX&<&>bbf&*<<tn074444k",
"zl77wl4it>$&$$,,o****$$$O$$$oX..........XXX..o$O**#d>$$$&v0wqqlc",
"ww74440f,$&;$$$$$+ooo.OO$X...Xoo$$$$X$$$$oo$..X$>o&Xo$$$o&y4ckkw",
"kw7lcw31d$$*$$oX$$$$.ooo$X...X.oX$&X..$$$XXX$...$$*;oo;&$$t4qkck",
"cwwwc7r>$$*$$oX$$.X.X$OOO$$X.XX*$oo...o$$$$$$$...oXo%;$*>$m34lkk",
"wjcc74b$$$$$o.$XX.XXX$.o$$$$o..X..X$$O......oo...o.XX$;o$$v6478l",
"jwqw4h>$$o$oooX.X..o...........X$$$$Oo$$$$o..o$$$o.X$$$;$$<r4wlw",
"wwk44n,$$$$X.$.XXXXXo$$$$$$Xo@.X..X$$$o.o.O$$$OO...o.oo;&$<r4wwz",
"wwc402&$$$X..$.XXXo$$$XXXoO$$$$$$$$OXo...oO$$$OOo..>.&;$,$*6474w",
"jlw4u<,$$o...........X......oXXXX.....$$OO$$,+o$$$$$$O$$>$&1w47w",
"ww44i*&$$o....o...o..X..XX...XXXX.$$..o$OO.XXXXXXXX..oo$*%$gw4zz",
"clcqv&$$$XXXX.OO$X...XXX.XXXXXX.....+,;OOO......XXXX.X.o1*$b7www",
"wkcq,$$XO*;X$$OOO$$$o@XX.XXXX$$.X$$$$$$*OOo..@$$$oXX.X..**$24lzj",
"icc7b$*oo.$X.o$$.......XXXOO$XXXXXX.X$$$$oXXXXooXXooX;,+&*$$3www",
"ccc7m&&$$o.......o$$$$.Xo$OOO$XX$$$$$X...Xooo$$$$o$*$$$>$,$$ewwl",
"ww44m*$&....$$$OOO....oo.X..OO$X.oOOOOo...........o.....$,$,n4wl",
"zzlwb&$&.......oOO$$;;**oX.&OOO$..OOOO$;....$$$$$oo..&$$X,$,n4wl",
"zccle**%$........XX$$$$OOOOOOOOOo....XXX**$$$$o.X$OOOO$oX$&$e4kz",
"zkkku<*o$$$$$$$$oXXXXX.oOOOOOOOOO$$$$$o$**$$X...X$OOOO.$..>$e4ql",
"ccwkl=$oo..o$$$oo>$oXX..$$$$.$$$$$**$XXXXXXX..oXXXXX$$$$o.*O,47z",
"4q74le$$.....XX$$$$XXX.......X...XXXX.XX$XXX...XX;........OO*544",
"kzk7le&&,XO$$$XX.....XX&>$$O$o..o#$$$X........XX$XXX$$$$XX*$*64w",
"cz8wlh$$,X&.XXXX....$,O&$oo$O$..oo.XXX.o$$$$o.XXXXX$$$$$$X>$sr4l",
"w74l7n$o,X..XXXXXX$$$$o.....>o.XXXX$$$$$$O...&;XXXXXX.X...,$sr7k",
"wwz70f$$,X..XXXXXXX.......oo...XXXXXXXX..o.o$Oo$$$$XX.o$.&+$*64w",
"cjk4r>$$;&&...X$O$..Xo$oXXX....XXXX..............X.......>$$*37z",
"jwk4,$;X; ..oo$OO$$$X.XXXXX....X$$$$$$o.....X$$$$o.......o>%*34l",
"wz442$$,$.X$$O$oXXXXo$O$$$$$Xo..$XX...X$$OO$$Oo.o$$$$>XXX.>$*6qw",
"w744b$$,$.XX.ooXXXX$X.$XXXX$$*$$$$X......oo.X$o.XX.XXXX$X.$*srwz",
"ww4ng&$,$.X$o*o.XXXXXXX.XX...o......$$$$$$$$$$$$$$o.....X$X,dr44",
"jlwuf,$,OoXXX$*$$$$$XXX...X$$O$$$$...X........X....&>o..X$X*dr4w",
"w774b,$X$.Xo..OOoX$$$X.$XXXXXXXXXXooo..$X.XXXXX;>$$oXXXXX$,$137k",
"zjl7b,$X$.o$$$OO$$$$..$$$$$$o$$$$$$$o$$$$XXXX;o$$$$oXXXXX$,$*34w",
"jzk4b$$X$XX;*oX......o..........$XX$$$o...XXXXXXX.XoXX..X$,$<r4w",
"wlcq2$$X$X$$*o$.X$$;....$$$$$X..o$$XX.O$$$$$$$XXX..X$$..X$>$<r4w",
"cccwr<*XO.XXXXXX,,>$$$$$$$X...$$$$$XXXXX.XXXo$$XX.XXXo@.o$,$<r4w",
"jjk7r<,X*.ooX$$$$XX..XXXXXXo..XX>$$$XXXX.XXXXXXXX.$$$O..$X,$*64z",
"kkjqr<>X&..oo...X$o..XXXX.$$.XXXX.X$o...XXXXo$$XOOXXXXXo$,$$*3wj",
"cwcc6*$XXX..o..o$X...XXXX....XXXX...X$$$;XXXXXXoOOXXX;X.$&$>*3jc",
"kzqq4t$$Xo..o....XXXXX.o$o$$$$$$$oXXX.....o$X...........$$$$;4lj",
"cckk7n$$Xo.o$$$$$$XXXX...o..XXXX.XXXo$$X..oOX....o$$$$$$$>$$ekzc",
"wzllwh&$o,.....ooXX..XXXX..............o$$$$$$$$o...$$$$$$$>54wq",
"wzw4lh&$$&&..o$*oXo$oXXXX.X$$X..$$$$$X...XXXXXX...oo..$$$$$b4447",
"ck7lkn$>$$&,o..XX...o$XXX.ooXXXX..$$.......o.XXXXXXo.$;*$X$g447c",
"kq44ju$$;.$$*;&Xo$$$.oXXo$**$$XX....X$$$oo#&$$$oX$X.$>*oXo>r7zcl",
"ww87wk2$;.o..OO$oXXoOOO$o......XX...X$o......X.XoX.$$$$oX$;0kkjw",
"zjwkccm,$$.&$;&..$$OOO$X..$$$X.XX.......X$$X.XX$Xo$o.;&.$$hlcccz",
"lwkkwzrd$&$$$$O;;X..Xo..OOooo$**%o..o..$$X.XXX$oo;,+$*$O$tezzzww",
"wlcclz4e>&>$$*o%X$O*O&$$OO***$****o&o$$oX&$,+,12*$&,;o$O*dxc447w",
"jjwwwlzh,$&,*$$oX.,,>oX.........;oo$$.o$$*&O$$$$$X+$$$$*t0ccczzk",
"wwzzzjlz4f>$*>,,$$$Xo$XoX$$$$$$$O$$$$;,&$*&O$$$o;$$+>$tduccw744w",
"wkzjwwkczqMt;<>$$$$$*o$$$&*$,>>>yyyyy5:&;2**o>+$$$$%:nrqcq47w77w",
"wqwwjjkczq7wwurfb2$$*$11,1*$4pppccccclixx:****&>3uplccccczkq7www",
"kwqqlcw444447zcczqhe:=::5zccz7www4qkkwcc4wzccccccc4447wwwzkczwjz",
"lckkwq7444qw7jkkkkkkkwclkkwk444444744kcck44zzkkkk7444448wwkcczww",
"wjccwqjwwwwkwwwwwkkzlwwcclclwwwwwq84wwkkzl4wlccccwwwwj77wwwjkzzq",
"zcckkkczwwwkjjjzcccjwlcckkkczjwwwqlwzzcclwwzclkklclwwjwkwlzcccww"
};
