/* XPM */
static char *e62aef103ad84c73fb828bb3ba0cbe05qJKHks598jg2dYid[] = {
/* columns rows colors chars-per-pixel */
"64 64 101 2 ",
"   c #4F3B31",
".  c #543E33",
"X  c #564136",
"o  c #5A4337",
"O  c #5D4639",
"+  c #5F483B",
"@  c #60473A",
"#  c #644A3D",
"$  c #684E3F",
"%  c #694F40",
"&  c #645345",
"*  c #6D5243",
"=  c #645548",
"-  c #6C564A",
";  c #625C4F",
":  c #6C5B4C",
">  c #715545",
",  c #755947",
"<  c #71574A",
"1  c #755A49",
"2  c #66575A",
"3  c #6F5D5E",
"4  c #705B55",
"5  c #666053",
"6  c #6B6355",
"7  c #6A6658",
"8  c #6B6B5C",
"9  c #736353",
"0  c #746C5D",
"q  c #786F5E",
"w  c #7A715F",
"e  c #6B5D63",
"r  c #6E6F60",
"t  c #6C626B",
"y  c #716163",
"u  c #726F60",
"i  c #6F7162",
"p  c #727363",
"a  c #7A7564",
"s  c #7C7967",
"d  c #777968",
"f  c #7B7D6B",
"g  c #6E6570",
"h  c #736A74",
"j  c #726D7B",
"k  c #767976",
"l  c #79747E",
"z  c #817663",
"x  c #7F816F",
"c  c #81826F",
"v  c #838572",
"b  c #8C8474",
"n  c #868975",
"m  c #898B77",
"M  c #8B8E79",
"N  c #8E917C",
"B  c #91937E",
"V  c #747383",
"C  c #777789",
"Z  c #7A7C8D",
"A  c #7F828D",
"S  c #7F8394",
"D  c #86888C",
"F  c #8A8E8E",
"G  c #8C9087",
"H  c #8D918A",
"J  c #949781",
"K  c #969983",
"L  c #989B86",
"P  c #9B9E8A",
"I  c #808193",
"U  c #828690",
"Y  c #808697",
"T  c #858496",
"R  c #868A92",
"E  c #838895",
"W  c #858994",
"Q  c #888C90",
"!  c #838798",
"~  c #838898",
"^  c #848899",
"/  c #878A9C",
"(  c #888B9D",
")  c #8B8E9F",
"_  c #9DA08C",
"`  c #A0A38F",
"'  c #A0A390",
"]  c #A2A592",
"[  c #A4A794",
"{  c #A6A996",
"}  c #A7AA98",
"|  c #A8AB98",
" . c #A9AC9B",
".. c #9091A3",
"X. c #9293A5",
"o. c #9394A5",
"O. c #9495A6",
"+. c #9797A9",
"@. c #9898AA",
"#. c #9B9AAC",
"$. c #9C9BAD",
/* pixels */
"# # # # # # @ O O @ @ # O # @ O O O O O @ $ @ # # # # # O O O @ @ @ @ # @ O O O O O $ # $ # # # # O O O @ @ # O # @ O O O O O # ",
"O O o X X X X O O # @ O O X o X X X O O O O O O o X X X O O 2 t t e X o o X X O O O @ @ O $ $ # X o O O $ @ O o X o X X o O O @ ",
"$ $ $ O # O # # @ @ # $ o o X X O O @ # # % % $ @ # O # t V Z S Y S V j < , , * * , % % % * * * % $ @ @ @ $ # o X X o O O @ O $ ",
"@ $ $ $ O # $ # @ @ $ $ o # * * * * * > > * % * % > * h Z Y ) X.X.X.o.Y j * > > * > * % * * , * * $ @ @ # $ # o # @ O O @ $ # @ ",
"$ # O @ X o o o o o @ # * > > > % * * * * > * > > > h C ^ @.#.#.#.#.#.+.Y j * * * * * * > > > , , 1 > * * # @ % @ O @ @ @ @ @ $ ",
"# $ # $ # O o @ # * * > > > > > > , * * * % > > > g T ^ @.#.#.#.#.#.#.@.( Z h > * * * > > > % % * > > * * > % # # $ $ @ @ @ @ @ ",
"o @ @ @ O @ $ O $ $ @ # % * * > , > > > > > * * - C ..#.#.#.#.#.#.#.#.#.) Y S 4 > > > * * * * * * > % > $ O $ @ O @ O X X X X X ",
"# @ o $ # @ @ O o * * $ % % * > > > > > * * * * h ! @.#.#.#.#.#.#.#.#.#.) Y S Z 4 > * > * * * * * > > * * * # # # @ @ O O O o # ",
"# # o o O # $ * > * * > > > * * * * % * * * * < Z @.#.#.#.#.#.#.#.#.#.#.) Y Y S t * * % > , , , % > > * * > > * @ @ @ @ @ @ # $ ",
"O O o X X X X X > * > > > > > > > > > > > , , h S @.#.#.#.#.#.#...@.#.#.) Y Y Y C > , , > , > , > > > * * > > * % @ @ @ @ @ @ O ",
"@ O o # $ $ * % * % % % * * % * > , , 1 > * * V o.#.#.#.#.#.#.#.#.#.#.#.) Y Y Y Y j * * > > > > > * * * % % % * % $ % $ $ $ $ @ ",
"$ O O O > > > > > > > > % % * > % % % > > > 3 I $.#.#.#.#.#.#.) #.@./ +.~ Y F Y Y j > * > , , > > > > > > > * % % * O @ $ $ @ @ ",
"O @ % % > > % % > , , * > > > % * > * * * * l ~ #.#.#.#.#.#.#.@.O.X.Y Y Y Y F R Y S 3 * , * * > * % * > , , * > > * $ > O o o # ",
"@ * * % > > > , 1 , , > > > > * * * * * * - Z ~ #.#.#.#.../ / / / Y Y Y Y Y Y J Y U 9 * > * * > > , , 1 , > > > > > * * * % # O ",
"O O * * % % * > * > > > * % * * * * * % * D W ~ o.@.+.X.Y Y Y Y Y Y Y Y Y Y Y R Q Y k * * > * % % * > * > > > * % * * * * * O # ",
"O O $ * > , > * > > * % % * * * * * > , y J F Y X.@.~ Y Y Y Y Y Y Y F Y Y Y Y R Q Y G 6 * > > > , * > > > * % % > * * * * > * O ",
"@ % % > , > > > % % * * > > 1 1 , * , e A J F Y Y F F Y W F F Y Y Y H Y Y R F E R Y F c % % , , > > * % * * * > > 1 1 , $ # # O ",
"@ % % % * > * % % * * * > 1 1 > * % w U J R F E Y J F E F J F Y Y Y H Y Y R F Y Y Y Y m - % % * > * % % * * * , 1 1 > * % % % $ ",
"$ * * * * * > > * * > * * * * * * > M H J E K Y Y J R E F J R W F Y H J Y R H Y R J R n 9 * * * * > > * * > * * * * * * * @ O O ",
"O @ $ * > > > * > * > > > * * * , M ' J F J J Y Y J Y E F E Y W F Y H J Y Y H H H J J B p * * > > > * > * > > * * * > > * $ # @ ",
"@ $ * * % * * % % % * * * * > , z _ P J R J J E Y F Y F R Y Y W F Y R J F Y H J H J J J n : % % * % % % * * * * * , , > > $ # O ",
"$ $ % * * > > > > > * * * $ % : P | J J J J H Y F E Y J F Y Y R F Y H J F Y H J H J J J J f : * > > > > * * * % $ % % * * # # # ",
"O O O * * > , 1 * % * * * * 9 P  .| J J _ K F E J J ! J F Y Y J H Y H J F Y Q J J J n J J B d : , 1 , % % > * * * > > * % % # # ",
"# # $ # % * > > > > * * * * b  . .| J {  .K Y E J J F J F Y Y J J Y H J F Y Y B N J n n J v x f 1 > > > > * * * * , , , > * # # ",
"# $ % * > , * % * * % % % 1 ]  . .| [  ._ J J H m J F J F Y H J J Y H J N F ! J N J N x x v m m v : * * * % % % , > * * > * @ # ",
"# * * > > , , > * * * % * 9  . . .| `  ._ J _ K m J J J F Y H J J Y H J m J J L J n J N v B J K J a * * > * % * > > * % * # @ # ",
"$ $ @ * * * > , > % * > > B ]  . . . ._ J K { { m J P v K H J B B H J L L m J J P J n M M M J ` K f 1 * % > > > , , > > > $ # # ",
"o @ @ @ @ * > * * , , > % N P  . . . .} _ |  .{ m J ' n J J J ] m J J L _ v J J J L N v B P | K n f - > , > * % > > * O O o X X ",
"@ # # $ @ # * * * % % * * v J {  . . . . . . ._ J ` { N N J P { m J J L [ m n m M K ` B }  .] J n u * * % % * * * > $ O X X X O ",
"$ # o O @ # $ * > > * * * 7 n {  . . . . . . .| _ { ` J m J ' } m v m P  .J v v N K [ |  .{ L N f 6 > > * * * * * $ @ O O O @ $ ",
"O o X o $ > > , > % > , , > d P ]  . . . . . . . . .{ ] K K { _ P M B  . .| ] ] ]  . . .' J J B i > , * * , , > > > > % # # # @ ",
"O O * * > > * % * % % % * * : f J [  . . . . . .}  . . . . ._ |  .| |  . . . . . . .{ ] J J B f : * * * % % % * % % > * # # # O ",
"$ @ @ * > , , > > > > > * * * : f J P P ]  . .} _  . . . . . . . . . . . .{ [ _  .P K J J n f 1 , > > > > > * * * > > * * $ # # ",
"@ O # # $ > % % > , , * * * * % : s n B J K { { _ |  . . . . . . .{ { { { { { ] J J J B v a : > * % * > , , * * * $ O O @ @ O # ",
"O # # # * * > > 1 > > > > > , * % % : p v n J J L P P P P P P P P J J J J J J J J B n p 1 * * > > > > 1 > > > > % # O o o o o O ",
"O O O O O # * > > > > > * % * > > > * % > 7 s f B B B B B B B B B B B B B B B N M a > > > * * % % > > * > > * @ # # @ @ $ @ @ # ",
"O O $ $ $ * > * > , * * * * * % % % * > > % % : 9 9 0 p p p p p p p p p 6 6 6 : > > % % * > * > > * > > , * * # @ o X o o X X O ",
"@ # @ O O $ > * % % * * * * , , , * , * * % % % * , 9 p 8 i 8 8 8 8 8 8 9 , > > > * % % % % , , > * * % * * * * > > > # o O O O ",
"O o o o * > * * * * % % , 1 1 , * * * * > > * * * * q x d f p f p 8 8 8 9 > * * * * > * * * * * > * * * * % * 1 1 , > * * @ @ @ ",
"# @ # # * % * * * * > * * > > > * * * * % * * * * * 0 v v r v r v p r i 8 * * * * * * * * * * * * * * * > > % > > * % $ $ @ @ @ ",
"@ # $ % * , , * > % , , > % % % > > % % > > * % % * 1 c J f f f v f d x p > > * % * > > % % % > , > * * * , , * % % % * % $ @ O ",
"O # $ % * % % $ * % > > > > > , > > * % % * > > * * % B m B n n v n f B x < > > % % * > > > % % % % % % * > > > > $ @ # # @ @ O ",
"$ $ $ * * , , > > > % % % $ * * * > * * * * % % * * > B m J m J n f J B x * > * * * * * % % * * , > > > * % % $ % * $ * # # O @ ",
"@ # > * * , , , % % * > * * * * * % $ * * * % * * * > B m J m J K d B f f 8 % $ % * * * * > * * , , > % % > > * * * * $ O O O # ",
"@ @ # > % * > , , > * % * * > > > > * > > * * * > * * B B J J n J M n v p 8 > * > > * * * * * % > , , > > * % * * > > 1 > O O @ ",
"$ $ $ * > , * % > > % % % > , > * > * > > * * * > > , B J J J m J J d B d 8 < * * > * * * * > , , * * > * % % % , > $ $ $ $ @ $ ",
"@ # # % , > > > % * * * * > > > * * > > > * % * * , > v J J J J J J n d n 8 : > > > * % * * , > > > * % > * * * > $ O O @ # # @ ",
"$ $ # > > > > , > % * * * , , > * * % * % * * , , > > 1 J J J J J J K d m f 6 * * * % % , , > > > , , * % * * * , , * $ # # # $ ",
"O # # # # @ > * * > > > * * > > > , > * > * > > * % % < M J K J J J J N d f p > * * * > > > % % * > * > > , > > > > # o O O O o ",
"O # # # @ % > * * * * * * * * , > > > > > > * * % % % < m J J J B J J J N d d : > > > * * * % % * > * * * % > , , > # o X X X o ",
"% * * > > * * > > > * * % % * * * * * * * * * > > > > < v J J B m J J n J N d 7 * * * * * > > > * * > > 1 > 1 , > $ $ @ O O O $ ",
"@ o X O $ @ $ , > % > , , > * > > > * * % * * > > > > * s J J J m J J B n J K n 7 @ @ # $ $ * > * > , * 1 > > > , 1 * $ # # $ # ",
"O O o o O > * * * * * * * * * * > > > > , , , , , , , * q v J J m B J J f B J B p * * * $ * $ * * * * * * > $ O @ @ @ @ @ @ @ O ",
"# @ O @ % # # $ * * * * * * * * > > > , , * * > > > , , w v K J K v J J v f N J n p & @ $ $ $ $ * $ * % o @ @ o # O @ $ $ $ $ # ",
"# O @ @ O # $ @ * * * * % % * * % * % * > > > , > , > * * f M J J v J J J v J n n x p $ $ $ $ $ @ o X $ * * o O # # O O # # O O ",
"O # $ $ # O # $ $ * * * > > , * % * % % % % > > * * > * $ x M B M f n J J J m m m x x # $ # # $ O o O O O @ @ $ # # o X X X o O ",
"@ @ O O O O O * > > > * * * * > > > * * > > > > % * * * * 8 c B m v d B J J J p c x x 7 @ O O @ @ $ @ X O # @ O O @ # # $ # # @ ",
"O O # # # @ O # $ $ * * * * * % % % * * * % % * > * * * $ & x J N n f d B J J m p x c 7 O o o o . . o O # # o O O o X O O X X O ",
"O @ # @ O O @ * * * $ # $ * > > > * > , > * * * * > > , @ & f v B B x p x v B N x r 8 $ @ @ . . X o O o o o O $ # O O o X X o O ",
"O o O O @ @ @ $ $ $ # # * , 1 1 > * > * * > * * * $ % # @ # 6 d x n x f i x x x x p ; X . . . o X o O O # # $ $ $ # # O O O O O ",
"@ O o o # $ O X X O @ * * * > * * $ $ % * * % O + $ * > % @ @ 7 8 f f 8 8 r f 7 7 5 @ O . . . O O .   o O O O O O # @ $ $ # # # ",
"# $ @ @ @ @ O X X X X X o o O @ # * $ % * $ % $ % $ * # O * $ $ & : = = = = = O o . . o o o o X O X X X X X X o O O @ $ $ # O O ",
"O @ $ $ # $ @ O O O O @ O O O O O @ # $ % # * > > > * # O O O O * $ $ $ O X o o O O X X o O # $ $ O O O O @ @ O O O O @ @ # # @ ",
"# $ $ @ @ @ $ # O O O @ @ @ @ # $ $ $ # @ # $ % # @ @ $ # @ O O @ # $ # % # $ $ # O @ # $ # @ @ # $ # O O @ @ # O # # $ $ $ O O "
};
