/* XPM */
static char *_7c8dd8c80c941bbf6d3a0fbaf118ea0k7KzEmbN5tACN5tX[] = {
/* columns rows colors chars-per-pixel */
"64 64 107 2 ",
"   c None",
".  c #636457",
"X  c #656659",
"o  c #67685A",
"O  c #6A6B5D",
"+  c #6E6F60",
"@  c #6F7162",
"#  c #727364",
"$  c #777968",
"%  c #7B7D6B",
"&  c #767976",
"*  c #7F816F",
"=  c #80826F",
"-  c #828472",
";  c #868975",
":  c #898B77",
">  c #8B8E79",
",  c #8E917C",
"<  c #91937E",
"1  c #716E80",
"2  c #747284",
"3  c #767688",
"4  c #7A7D8E",
"5  c #7C7F91",
"6  c #7F828D",
"7  c #7E8293",
"8  c #8A8E8E",
"9  c #8C9087",
"0  c #8D918A",
"q  c #949781",
"w  c #959883",
"e  c #989B86",
"r  c #9B9E8A",
"t  c #808491",
"y  c #828691",
"u  c #808294",
"i  c #838795",
"p  c #808596",
"a  c #818596",
"s  c #808697",
"d  c #818697",
"f  c #828696",
"g  c #828796",
"h  c #858496",
"j  c #868B91",
"k  c #878B91",
"l  c #858993",
"z  c #858A93",
"x  c #868A92",
"c  c #868B92",
"v  c #838895",
"b  c #848894",
"n  c #848994",
"m  c #858994",
"M  c #888C90",
"N  c #808598",
"B  c #838798",
"V  c #838898",
"C  c #838899",
"Z  c #848899",
"A  c #84899A",
"S  c #878A9C",
"D  c #878B9C",
"F  c #888B9D",
"G  c #8B8E9F",
"H  c #9DA08C",
"J  c #9EA18D",
"K  c #9EA18E",
"L  c #9FA28E",
"P  c #9FA28F",
"I  c #A0A38F",
"U  c #A0A390",
"Y  c #A1A490",
"T  c #A1A491",
"R  c #A2A591",
"E  c #A2A592",
"W  c #A2A593",
"Q  c #A3A693",
"!  c #A4A794",
"~  c #A4A795",
"^  c #A5A895",
"/  c #A5A896",
"(  c #A6A896",
")  c #A6A996",
"_  c #A6A997",
"`  c #A7AA97",
"'  c #A7AA98",
"]  c #A8AB98",
"[  c #A8AB99",
"{  c #A9AC99",
"}  c #A9AC9A",
"|  c #A9AC9B",
" . c #AAAD9B",
".. c #9091A3",
"X. c #9092A3",
"o. c #9192A4",
"O. c #9293A4",
"+. c #9293A5",
"@. c #9394A5",
"#. c #9495A6",
"$. c #9797A9",
"%. c #9898AA",
"&. c #9998AA",
"*. c #9999AB",
"=. c #9A99AB",
"-. c #9B9AAC",
";. c #9C9BAD",
/* pixels */
"                                                                                                                                ",
"                                                              1 1 1                                                             ",
"                                                        1 2 4 p p 7 2 2                                                         ",
"                                                      2 4 p G +.+.+.@.p 3                                                       ",
"                                                    2 3 Z %.-.-.-.-.-.$.p 2                                                     ",
"                                                  1 h Z %.-.-.-.-.-.-.%.F 4 1                                                   ",
"                                                  3 ..-.-.-.-.-.-.-.-.-.G p 7                                                   ",
"                                                5 B %.-.-.-.-.-.-.-.-.-.G p 7 4                                                 ",
"                                                4 %.-.-.-.-.-.-.-.-.-.-.G p p 7                                                 ",
"                                              2 7 %.-.-.-.-.-.-...%.-.-.G p p p 3                                               ",
"                                              2 @.-.-.-.-.-.-.-.-.-.-.-.G p p p p 1                                             ",
"                                              u ;.-.-.-.-.-.-.G -.%.S $.V p 8 p p 2                                             ",
"                                            7 V -.-.-.-.-.-.-.%.#.+.p p p p 8 x p 7                                             ",
"                                            4 V -.-.-.-...S S S S p p p p p p q p y                                             ",
"                                          M m V @.%.$.+.p p p p p p p p p p p x M p &                                           ",
"                                          q 8 p +.%.V p p p p p p B 8 p p p p x M p 9 O                                         ",
"                                        6 q 8 p p 8 8 p m 8 8 p p p 0 p B x 8 v x p 8 :                                         ",
"                                      y q x 8 v p q 8 v 8 q 8 p p p 0 p p x 8 p p p p >                                         ",
"                                    r 0 q v w p p q x v 8 q x m 8 p 0 q p x 0 p x q x ;                                         ",
"                                  w U q 8 q q p p q p v 8 v p m 8 p 0 q p p 0 0 0 q q < #                                       ",
"                                  H r q x q q v p 8 p 8 x p p m 8 p x q 8 p 0 q 0 q q q ;                                       ",
"                                H ] q q q q 0 p 8 v p q 8 p p x 8 p 0 q 8 p 0 q 0 q q q q %                                     ",
"                              H | ] q q H w 8 v q q B q 8 p p q 0 p 0 q 8 p M q q q ; q q < $                                   ",
"                              | | ] q ) | w p v q q 8 q 8 p p q q p 0 q 8 p p < , q ; ; q - * %                                 ",
"                            W | | ] ! | H q q 0 : q 8 q 8 p 0 q q p 0 q , 8 B q , q , * * - : : -                               ",
"                            | | | ] I | H q H w : q q q 8 p 0 q q p 0 q : q q e q ; q , - < q w q %                             ",
"                          q W | | | | H q w ) ) : q r - w 0 q < < 0 q e e : q q r q ; > > > q I w %                             ",
"                          q r | | | | ' H ] | ) : q U ; q q q W : q q e H - q q q e , - < r ] w ; %                             ",
"                          : q ) | | | | | | | H q I ) , , q r ) : q q e ! : ; : > w I < ' | W q ; #                             ",
"                          O ; ) | | | | | | | ] H ) I q : q U ' : - : r | q - - , w ! ] | ) e , % O                             ",
"                            $ r W | | | | | | | | | ) W w w ) H r > < | | ] W W W | | | U q q < @                               ",
"                              % q ! | | | | | | ' | | | | | H ] | ] ] | | | | | | | ) W q q < %                                 ",
"                                % q r r W | | ' H | | | | | | | | | | | | ) ! H | r w q q ; %                                   ",
"                                  % ; < q w ) ) H ] | | | | | | | ) ) ) ) ) ) W q q q < - %                                     ",
"                                      # - ; q q e r r r r r r r r q q q q q q q q < ; #                                         ",
"                                          O - % < < < < < < < < < < < < < < < < q -                                             ",
"                                                    # # # # # # # # # # #                                                       ",
"                                                    # # O @ O O O O O O                                                         ",
"                                                    * * # % # % # O O O                                                         ",
"                                                    * - - + - + - # + @ O                                                       ",
"                                                      - q % % % - % $ * #                                                       ",
"                                                      < : < ; ; - ; % < *                                                       ",
"                                                      < : q : q ; % q < *                                                       ",
"                                                      q : q : q w $ < % % O                                                     ",
"                                                      q < q q ; q > ; - # O                                                     ",
"                                                      q q q q : q q # < $ O                                                     ",
"                                                      ; q q q q q q ; $ ; O                                                     ",
"                                                        q q q q q q w $ : % O                                                   ",
"                                                        > q q q q q q , # % #                                                   ",
"                                                        : q q q < q q q , # #                                                   ",
"                                                        - q q < : q q ; w , # O                                                 ",
"                                                        * q q q : q q < ; q w ; O                                               ",
"                                                        * - q q : < q q % < q < #                                               ",
"                                                        * - w q w - q q - % , w ; #                                             ",
"                                                          * > q q - q q q - q ; ; * #                                           ",
"                                                          * > < > % ; q q q : : > * *                                           ",
"                                                          O = < : - $ < q q q # = * * o                                         ",
"                                                            * q , ; % $ < q q : # * = o                                         ",
"                                                            * - < < * # * - < , * + O                                           ",
"                                                            O # * ; * % @ * * * * # .                                           ",
"                                                              o O % % O O + % O O X                                             ",
"                                                                                                                                ",
"                                                                                                                                ",
"                                                                                                                                "
};
