/* XPM */
static char *_32611c1e42b4bebf070b0eb8b37d17ffUNf11K8fWeTLgFy[] = {
/* columns rows colors chars-per-pixel */
"64 64 115 2 ",
"   c #4D4526",
".  c #4D432C",
"X  c #514727",
"o  c #52462B",
"O  c #554C2B",
"+  c #594F2B",
"@  c #5C532D",
"#  c #4E4333",
"$  c #534435",
"%  c #594337",
"&  c #544937",
"*  c #5A4E34",
"=  c #5D4639",
"-  c #554939",
";  c #5A4E3C",
":  c #5E5334",
">  c #575139",
",  c #5E513F",
"<  c #5D583D",
"1  c #61572F",
"2  c #65592F",
"3  c #60473A",
"4  c #644A3D",
"5  c #684E3F",
"6  c #615533",
"7  c #655A31",
"8  c #6A5D33",
"9  c #62523E",
"0  c #68513F",
"q  c #6E6135",
"w  c #736536",
"e  c #776836",
"r  c #7A6A36",
"t  c #7C6C38",
"y  c #5F5240",
"u  c #674E40",
"i  c #694F40",
"p  c #605340",
"a  c #6D5242",
"s  c #6B5543",
"d  c #6E5442",
"f  c #6F5444",
"g  c #665842",
"h  c #695A43",
"j  c #6A5B44",
"k  c #6B5C44",
"l  c #6D5D44",
"z  c #705444",
"x  c #715645",
"c  c #735746",
"v  c #755947",
"b  c #755D45",
"n  c #775A48",
"m  c #785B48",
"M  c #64614A",
"N  c #726146",
"B  c #746347",
"V  c #756447",
"C  c #786246",
"Z  c #786446",
"A  c #776B42",
"S  c #786D47",
"D  c #766548",
"F  c #786649",
"G  c #7C6449",
"H  c #7A6849",
"J  c #7E6949",
"K  c #7F6C4B",
"L  c #646250",
"P  c #6A6752",
"I  c #6A6956",
"U  c #757053",
"Y  c #7A7252",
"T  c #777359",
"R  c #797458",
"E  c #6F6F60",
"W  c #747564",
"Q  c #7B7E6D",
"!  c #806F39",
"~  c #85733B",
"^  c #89763C",
"/  c #8E7A3D",
"(  c #917D3E",
")  c #80684B",
"_  c #806D4B",
"`  c #816E4C",
"'  c #846F4D",
"]  c #8C7A42",
"[  c #87724E",
"{  c #88734F",
"}  c #89744F",
"|  c #917F46",
" . c #8B7550",
".. c #96813F",
"X. c #978240",
"o. c #9B8541",
"O. c #9F8942",
"+. c #938149",
"@. c #9E8B4D",
"#. c #A18A42",
"$. c #A18C4B",
"%. c #80806A",
"&. c #968F6D",
"*. c #858877",
"=. c #898974",
"-. c #8A8D7A",
";. c #918F78",
":. c #8E917D",
">. c #95957F",
",. c #939682",
"<. c #959883",
"1. c #979A8A",
"2. c #9A9D8B",
"3. c #9FA18D",
"4. c #A3A593",
/* pixels */
"4 4 4 4 4 4 3 = = 3 3 4 = 4 3 = = = = = 3 5 3 4 4 a a a 5 5 5 0 0 0 0 0 0 5 3 = = = 5 4 5 4 4 4 4 = = = 3 3 4 = 4 3 = = = = = 4 ",
"= = % $ $ $ $ = = 4 3 = = $ % $ $ $ = = d B B B Z } } } } } } } } } } } } } K D l ; ; 4 = 5 5 4 $ % = = 5 3 = % $ % $ $ % = = 3 ",
"5 5 5 = 4 = 4 4 3 3 4 5 % % $ $ 3 3 J ' [ } } } } } } } } } } } } } } } } } } } [ [ [ B p p a a i 5 3 3 3 5 4 % $ $ % = 3 3 3 5 ",
"3 5 5 5 = 4 5 4 3 3 5 5 % 4 d b { } } } } } } } } } } } } } } } } } K ` } K [ } } } } } { l l l p 5 3 3 4 5 4 % 4 3 = = 3 5 4 3 ",
"5 4 = 3 $ % % % % % 3 4 a ) ' } } } } } } { l l B J l l l N } } } } J ` } J V l H } } } } } } { N g s a a 4 3 i 3 = 3 3 3 3 3 5 ",
"4 5 4 5 4 = % 3 4 a f z G } } } } [ [ g h k [ [ [ { [ [ [ [ } } } } } } } [ [ [ g g h [ [ h _ [ [ l g a a z i 4 4 5 4 3 3 3 3 3 ",
"% 3 3 3 = 3 5 = 5 5 3 C } } } K F N B F } } } } } } } F F F F F F F F F F B ` }  .H p ; V K  .V D F F V 9 = 5 3 = 3 = $ $ $ $ $ ",
"4 3 % 5 4 3 3 = % a G } } } ` H ` } } } } l h h h h k ` ` ` ` g p p p p p h h h h ` ` N & ; h [ [ ` p h J p 4 4 4 3 3 = = = % 4 ",
"4 4 % % = 4 5 a z G } } } } } } } ` ` p p p , ; ; , p p p p p p p p p p p p p , ; , p N _ 9 - p l ` } F p , s a 3 3 3 3 3 3 4 5 ",
"= = % $ $ $ $ $ z } } } } } [ N N y y , - , , ; ; , p p p p p p p p p p p p p ; ; - - ; p l & - - - N ` F - , a i 3 3 3 3 3 3 = ",
"3 = % 4 5 5 a i z } } } [ j p p p , & - , p y , , , & # # # # # # # # # # & , , , , , ; & , , & - , # ; [ N # a i 5 i 5 5 5 5 3 ",
"5 = = = z z z z z } } F , y p ; ; - , p , ; & . . . .                   + o . . . - ; , p - - H 9 - & h F y & i i a = 3 5 5 3 3 ",
"= 3 i i z z i i v } V p p p , ; , p - & .                 X @ O O 1   + 1 O O O O O   $ & - , - g H ` V p ; # f z a 5 z = % % 4 ",
"3 a a i z z z v m F p p , & - , ; # X X       7 7 O 7 X   w O O O @ w @ 7 O O O @ 8   o X   # ; - p p , ; # # f z z a a a i 4 = ",
"= = a f i i a z a ; p , & - , $ . X 1 7 O X w @ O O O 7 X ^ O O @ 8 ^ @ t r r r t w X 6 @ O X . . - - # # # h a i a a a a a = 4 ",
"= = 5 a z z z a z V & & & & $   O O O @ t @ ! O @ @ 8 r 2 e e q q ~ w 1 q ( ( / w q 2 e O O O O   , ` ` ` ` [ a z a a a a z a = ",
"3 i i z v z z z a `  .`  .K - 7 8 @ @ w ~ + t t ~ ~ t ! @ q ^ O.o.e 8 1 q ( ( / q q 2 r O O @ q 1 ; h h H J g z z n n v 5 4 4 = ",
"3 i i i a z a i i g l ; l p # 7 t / ..( w @ q / X.X.t ~ @ q ! ( ^ t q 1 q ( ( / q q @ ! @ 7 8 ~ 8 # p - , y p v n n z a i i i 5 ",
"5 a a a a a z z f p p & 9 y # 7 w ( ( ^ q @ q ^ ( ( e ^ @ q ! ( ^ ~ q 1 q ( ( / q q @ q o.#.( w 7 # p - , p p a a a a a a 3 = = ",
"= 3 5 a z z z a z p p & p y $ 7 w ( ( ^ q @ q ^ ( ( e ^ @ q ! ( ^ ~ q 1 q ( ( / q q @ q / ( t q 7 # p ; y p p a a a z z a 5 4 3 ",
"3 5 a a i a a i i p p & p y $ 7 w ( ( ^ q @ q ^ ( ( e e @ q ! ( ^ w q 1 q ( ( / q q @ q / ( t q 7 # p p p p p a a z z z z 5 4 = ",
"5 5 i a a z z z a - p & p y $ 7 w ( ( ^ q @ q ^ ( ( e ^ @ q ! ( ^ t q 1 q ( ( / q q @ q / ( t q 7 # p - , p p i 5 i i a a 4 4 4 ",
"= = = a a z v n i - p & p y $ 7 w ( ( ^ q @ q ^ ( ( e ^ @ q ! ( ^ t q 1 q ( ( / q q @ q / ( t q 7 # p - , p p f a z z a i i 4 4 ",
"4 4 5 4 i f f z z - p & p y $ 7 w ( ( ^ q @ q ^ ( ( e ^ @ q ! ( ^ ~ q 1 q ( ( / q q @ q / ( t q 7 # p - , p p f a z v v z a 4 4 ",
"4 5 i f z v a i a & y & y N ; O w ( ( ^ q @ q ^ ( ( e ^ @ q ! ( ^ ~ q 2 8 ( ( ( 8 w @ q / ( t q 7 # p - , p ; i v z a a z a 3 4 ",
"4 a f z z v v z a - y & N l ; O w ( ( ^ q @ q ^ ( ( e ^ @ q ! ( ^ ~ q 7 ~ r e e q t @ q / ( t q 7 # p - , p & a z z a i a 4 3 4 ",
"5 5 3 a a a z v z - p , p p ; O w ( ( ^ q @ q ^ ( ( e ^ @ q ! ( ^ ~ q 1 q O.#.O.~ q @ q / ( t q 7 & , - , p & f v v z z z 5 4 4 ",
"% 3 3 3 3 a z a a - p & p p ; O w ( ( ^ q @ q ^ ( ( e ^ @ q ! ( ^ ~ q 1 q ( ( / q q @ q / ( t q 6 , l # - p & i z z a = = % $ $ ",
"3 4 4 5 3 4 a a a 5 p & p p ; O w ( ( ^ q @ q ^ ( ( e ^ @ q ! ( ^ ~ q 1 q ( ( / q q @ q / ( t q 6 , l ` p p & a a z 5 = $ $ $ = ",
"5 4 % = 3 4 5 a z s p & p p ; O w ( ( ^ q @ q ^ ( ( e ^ @ q ! ( ^ ~ q 1 q ( ( / q q @ q / ( t q 6 , p y p p & a a 5 3 = = = 3 5 ",
"= % $ % 5 z z v z p p & p p ; O w ( ( ^ q @ q ^ ( ( e ^ @ q ! ( ^ ~ q 1 q ( ( / q q @ q / ( t q 6 , p p p p & z z z z i 4 4 4 3 ",
"= = a a z z a i a p p p p p ; O w ( ( ^ q @ q ^ ( ( e ^ @ q ! ( ^ ~ q 1 q ( ( / q q @ q / ( t q 6 , ; ; p p - a i i z a 4 4 4 = ",
"5 3 3 a z v z z z s p p p p ; O w ( ( ^ 8 @ 8 ^ ( ( e ~ @ 8 t ( ^ ~ q @ q ( ( / Y ;.=.T ] ( t q 6 , ; ; p p d a a z z a a 5 4 4 ",
"3 = 4 4 5 z i i z f p p p p ; O ^ X.#.#.o.o.o.#.#.#.O.#.o.o.O.#.#.#.o.o.o.#.#.$.4.2.<.:.@.#.( ^ 6 , & y p p a a a 5 = = 3 3 = 4 ",
"= 4 4 4 a a z z n s , p p p ; O ~ ^ ^ ^ ^ ^ ^ ^ ^ ^ ^ ^ ^ ^ ^ ^ ^ ^ ^ ^ ^ ^ ^ ] 2.W W P ~ ^ ^ ~ 8 , & p p , d z i 4 = % % % % = ",
"= = = = = 4 a z z 5 ; p p p ; O @ @ @ @ @ @ @ @ @ @ @ @ @ @ @ @ @ @ @ @ @ @ @ 6 *.:.3.U @ @ @ @ : , ; p , - a 3 4 4 3 3 5 3 3 4 ",
"= = 5 5 5 a z f z a ; y p p ; O @ w w q @   @ q w w @ 8 o O 7 w q 8 @ X @ w w A 4.W ,.3.S w 7 q 6 , , p , - a 4 3 % $ % % $ $ = ",
"3 4 3 = = 5 z f i 4 ; p p p ; $ q ^ ( ^ 7 O 7 ^ ( ( e ~ O 7 ~ ( ^ ~ 7 + q ( ( +.1.> L 2.&.( t q 6 , & p , - a a z z z 4 % = = = ",
"= % % % a z f a a 5 ; p p , & # 8 t ( ^ q @ q ^ ( ( e ^ @ q ! ( ^ ~ q 1 q ( ( | -.< o %.,.( t q 6 , , p , - a n n v z a a 3 3 3 ",
"4 3 4 4 a i f a a 5 ; p , & - - q t ( ^ q @ q ^ ( ( e ^ @ q ! ( ^ ~ q 1 q ( ( ] Q R : >.:.( t q 6 # p p , - p z z a i 5 5 3 3 3 ",
"3 4 5 i a v z a z 4 ; p ; D p - 6 t ( ^ q @ q ^ ( ( e ^ @ q ! ( ^ ~ q 1 q ( ( / I ,.,.:.M ( t q 6 # p p , - z a i i i a i 5 3 = ",
"= 4 5 i a i i 5 a 4 ; p B h , - @ t ( ^ q @ q ^ ( ( e ^ @ q ! ( ^ ~ q 1 q ( ( / 7 I E M q ( t q : # p p , - d z z 5 3 4 4 3 3 = ",
"5 5 5 a a z z z z f p p p y & - @ t ( ^ q @ q ^ ( ( e ^ @ q ! ( ^ ~ q 1 q ( ( / q 7 @ 7 / ( t 8 O # p p y - p 5 i a 5 a 4 4 = 3 ",
"3 4 z a a z v v i i p p p y & - @ t ( ^ q @ 7 ^ ( ( e ~ @ q ! ( ^ ~ q 1 q ( ( / q q @ q / ( t 8 O # p p y - d a a a a 5 = = = 4 ",
"3 3 4 z i a z v z z p p p y & - @ t ( ^ q @ t ~ ^ ^ q r 8 q ! ( ^ ~ q 1 q ( ( / q q @ q / ( t 8 O , p p , - p a a z z n z = = 3 ",
"5 5 5 a z v a i z z p p p y & - @ t ( ^ q @ e / / ( ~ / @ q ! ( ^ ~ q 1 q ( ( / q q @ q / ( t 8 O , p p p , 5 i v z 5 5 4 5 3 5 ",
"3 4 4 i v z z z i a p p p y & - @ t ( ^ q @ q ^ ( ( t ^ @ q ! ( ^ ~ q 1 q ( ( / q q @ q / ( t 8 O , p p p ; u f z 5 = = 3 4 4 3 ",
"5 5 4 z z z z v z i ; p p y & - @ t ( ^ q @ q ^ ( ( e ^ @ q ! ( ^ ~ q 1 q ( ( / q q @ q / ( t 8 : p p p p ; u f v v a 5 4 4 4 5 ",
"= 4 4 4 4 3 z a a z - y p y & - @ t ( ^ q @ q ^ ( ( e ^ @ q ! ( ^ ~ q 1 q ( ( / q q @ q / ( t 8 ; J p p p ; a z z z 4 % = = = % ",
"= 4 4 4 3 i z a a a % y , , - & @ t ( ^ q @ q ^ ( ( e ^ @ q ! ( ^ ~ q 1 q ( ( / q q @ q / ( t 8 - p p p , ; a z v z 4 % $ $ $ % ",
"i a a z z a a z z z % y - , ; # @ / o.X./ ~ / X.o.o.( X.~ / ..o.X.../ ^ / o.o.o./ / ~ / o.o.^ 8 - p p p & ; f v z 5 5 3 = = = 5 ",
"3 % $ = 5 3 5 v z i - y - , ; ; * ( ( ( ( ( ( ( ( ( ( ( ( ( ( ( ( ( ( ( ( ( ( ( ( ( ( ( ( ( ( ~ - p p p & ; a z v n a 5 4 4 5 4 ",
"= = % % = z a a f a - y - , ; ; & 8 8 8 8 8 8 8 8 8 8 8 8 8 8 8 8 8 8 8 8 8 8 8 8 8 8 8 8 8 8 O - p p p , = 5 = 3 3 3 3 3 3 3 = ",
"4 3 = 3 i 4 4 5 f a - y , - ; ; # @ 7 7 O X O 7 7 7 @ 6 X O @ 7 7 1 O X O 7 7 7 O O X O 7 7 @ O - p , ; , $ 3 % 4 = 3 5 5 5 5 4 ",
"4 = 3 3 = 4 5 3 a a % y p & ; ; & t / ^ 6 X 1 ^ / ( e ~ X @ t / ~ ~ @ X 8 / / / q @ X 7 ^ ( t @ - p ; ; , - % = 4 4 = = 4 4 = 3 ",
"= 4 5 5 4 = 4 5 5 a 4 ; p & , - & t ( ^ q @ q ^ ( ( e ^ @ q ! ( ^ ~ q 1 q ( ( / q q @ q / ( t 8 - p ; ; , $ 3 5 4 4 % $ $ $ % = ",
"3 3 = = = = = a z z z & p , p - $ t ( ^ q @ q ^ ( ( e e @ q ! ( ^ ~ q 1 q ( ( / q q @ q / ( t 8 - p ; ; & % 3 = = 3 4 4 5 4 4 3 ",
"= = 4 4 4 3 = 4 5 5 a & p & , & $ t ( ^ q @ q ^ ( ( e ^ @ q ! ( ^ ~ q 1 q ( ( / q q @ q / ( t 8 - p ; ; # % % = = % $ = = $ $ = ",
"= 3 4 3 = = 3 a a a 5 & p & ; # $ e / ^ q @ q ^ ( ( e t @ q ~ ( ^ r q 1 q ( ( / q q @ q / ( t 8 - - , - # $ = 4 4 = = % $ $ % = ",
"= % = = 3 3 3 5 5 5 4 & ; # ; # $ t t ^ q O q w ( ( w q + 8 q ^ ^ q 8 @ q ( ( e q q O q / ( t 8 - & p - # % 5 5 5 4 4 = = = = = ",
"3 = % % 4 5 = $ $ = 3 # # # - # # 8 w r @   @ q ~ t w 1   O 8 q ! 8 O   7 r t w 7 +   @ ^ e w X # # ; # # & = = = 4 3 5 5 4 4 4 ",
"4 5 3 3 3 3 = $ $ $ $ # # # # # #   O @       O O O O       X O O X       X O O         1 O X   # ; & # # $ $ % = = 3 5 5 4 = = ",
"= 3 5 5 4 5 3 = = = = $ $ $ $ $ $ o o o o o o o o o o o o o o o o o o o o o o o o o o o o o o o & $ $ $ # % = = = = = 3 3 4 4 3 ",
"4 5 5 3 3 3 5 4 = = = 3 3 3 3 4 5 5 5 4 3 4 5 i 4 = 3 5 4 3 = = 3 4 5 4 i 4 5 5 4 = 3 4 5 4 3 3 4 5 4 = = = 3 4 = 4 4 5 5 5 = = "
};
