/* XPM */
static char *_5b86f1361b743d0cc5849c6710dadb5eaixPt4QxOBToHZs[] = {
/* columns rows colors chars-per-pixel */
"64 64 63 1 ",
"  c black",
". c #14161E",
"X c #4D4426",
"o c #4D432D",
"O c #52462B",
"+ c #544A2C",
"@ c #594E2B",
"# c #5F532C",
"$ c #4E4333",
"% c #534435",
"& c #594337",
"* c #544937",
"= c #5D4639",
"- c #554939",
"; c #5A4E3C",
": c #5D5234",
"> c #5E513F",
", c #61562D",
"< c #60473A",
"1 c #644A3D",
"2 c #684E3F",
"3 c #605434",
"4 c #655A31",
"5 c #6D5F34",
"6 c #62523E",
"7 c #68513F",
"8 c #5F5240",
"9 c #674E40",
"0 c #694F40",
"q c #605340",
"w c #6D5242",
"e c #675842",
"r c #695A43",
"t c #6A5B44",
"y c #6B5C44",
"u c #6D5D44",
"i c #6D5E44",
"p c #705444",
"a c #715645",
"s c #745746",
"d c #755947",
"f c #755D45",
"g c #775A48",
"h c #785B48",
"j c #726146",
"k c #746347",
"l c #766446",
"z c #786246",
"x c #786446",
"c c #766548",
"v c #786649",
"b c #7C6449",
"n c #7A6849",
"m c #7E6949",
"M c #7F6C4B",
"N c #80684B",
"B c #806D4B",
"V c #816E4C",
"C c #846E4D",
"Z c #87724E",
"A c #88734F",
"S c #89744F",
"D c #8A7550",
/* pixels */
"111111<==<<1=1<=====<2<11www2227777772<===2121111===<<1=1<=====1",
"==&%%%%==1<==%&%%%==wkkkxSSSSSSSSSSSSSMcu;;1=221%&==2<=&%&%%&==<",
"222=1=11<<12&&%%<<mCZSSSSSSSSSSSSSSSSSSSZZZkqqww02<<<21&%%&=<<<2",
"<222=121<<22&1wfASSSSSSSSSSSSSSSSSMVSMZSSSSSAuuuq2<<121&1<==<21<",
"21=<%&&&&&<1wNCSSSSSSAuukmuuujSSSSmVSmlunSSSSSSAjewww1<0<=<<<<<2",
"12121=&<1wwpbSSSSZZeryZZZAZZZZSSSSSSSZZZeerZZrBZZuewwp01121<<<<<",
"&<<<=<2=22<zSSSMvjkvSSSSSSSvvvvvvvvvvkVSDnq;lMDlcvvl6=2<=<=%%%%%",
"1<&21<<=&wbSSSVnVSSSSurrrryVVVVeqqqqqrrrrVVj*;rZZVqrmq111<<===&1",
"11&&=12wpbSSSSSSSVVqqq>;;>qqqqqqqqqqqqq>;>qjB6-quVSvq>ww<<<<<<12",
"==&%%%%%pSSSSSZjj88>->>;;>qqqqqqqqqqqqq;;--;qu*---jVv->w0<<<<<<=",
"<=&122w0pSSSZtq8q>*->q8>>>*$$$$$$$$$$*>>>>>;*>>*->$;Zj$w0202222<",
"2===pppppSSv>8q;;->q>;*ooooXXXXXXXXX@Oooo-;>q--v6-*rv8*00w=<22<<",
"=<00pp00dSlqqq>;>q-*    .. .....         +X%*->-enVlq;$wpw2p=&&1",
"<ww0pppdhvqq>*->;$    .. .....           ...   ;-qq>;$$wppwww01=",
"==ww00wpw;q>*->%o+    .. .....   ...........   oo--$$$rw0wwwww=1",
"==2wpspwpl****%X  ...    .  .  ..         .  ...X>VVVVZwpwwwwpw=",
"<00pdpppwVDVDM-4   ...       .   ........  .   .,;rrnmeppggd211=",
"<000wpw00eu;uq$4......       ............  .....5$q->8qdggpw0002",
"2wwwwwppwqq*6>%4 ......      ............  .....4$q->qqwwwwww<==",
"=<2wpppwpq6*q8%4........    . ........... . ... 4$q;8qqwwwppw21<",
"<2ww0ww09qq*q8%4........     . .. . . . .  . ...4$qqqqqwwsspp21=",
"220wwpppw-q*q8%4.........     . .........   . ..4$q->qq0200ww111",
"===wwpdg0-q*q8%4..........    ...........   ....4$q->qqwwppw0011",
"11210wwpp-q*q8%4...........    ..            ...4$q->qqwwsddpw11",
"120wpdw0w*8*8j;+.. ........      ........      .4$q->q;0dpwwpw<1",
"1wwppddpw-8*ju;+.....    .  .  ..         .  ...4$q->q*wppw0w1<1",
"22<wwwpdp-q>qq;+ . ...       .   ........  .   .4*>->q*wddppp211",
"&<<<<wpww-q*qq;+......       ............  .....3>u$-q*0ppw==&%%",
"<112<1www2q*qq;+ ......      ............  .....3>uVqq*wwp2=%%%=",
"21&=<12wpwq*qq;+........    . ........... . ....3>q8qq*ww2<===<2",
"=&%&2ppdpqq*qq;+........     . .......     . ...3>qqqq*pppp0111<",
"==wwppw0wqqqqq;+......    . ...      ........ ..3>;;qq-w00pw111=",
"2<<wpdsppwqqqq;+......     . ..      ...........3>;;qqwwwppww211",
"<=112p00pwqqqq;+..    . ........    . ......... 3>*8qqwww2==<<=1",
"=111wwppgw>qqq;+..     . .......     . .........5>*qq>wp01=&&&&=",
"=====1wpp2;qqq;+...     . .......     . ........:>;q>-w<11<<2<<1",
"==222wpwpw;qqq;+....    ..........    ........ .3>>q>-w1<&%&&%%=",
"<1<==2pw01;qqq;%.....    ..........    ....... .3>*q>-wwppp1&===",
"=&&&wpwww2;qq>*$.....      ........      .... ..3>>q>-wggdpww<<<",
"1<11w0www2;q>*--   .  .  ....    .  .  ....    .3$qq>-qppw022<<<",
"<120wdswp1;q;cq-       .   ...       .   ...   .3$qq>-pw000w02<=",
"=120w002w1;qkr>-       .......       ........ ..:$qq>-wpp2<11<<=",
"222wwssppwqqq8*-.      ........      ...........+$qq>-q20w2w11=<",
"<1pwwsdd00qqq8*-..    . ........    . ......... +$qq>-wwwww2===1",
"<<1p0wpdspqqq8*-..     . .......     . .........+>qq>-qwwppgp==<",
"222wpdw0ppqqq8*-...     . .......     . ........+>qqq>20dp2212<2",
"<110dppp0wqqq8*-....    ..........    ........ .+>qqq;9wp2==<11<",
"221ppppdp0;qq8*-.....    ..........    ....... .:qqqq;9wddw21112",
"=1111<pwwp-8q8*-.....      ........      .... ..;mqqq;wppp1&===&",
"=111<0pwww&8>>-*.. ...        .. ...          ..-qqq>;wsdp1&%%%&",
"0wwppwwppp&8->;$.. ....       .. ....         ..-qqq*;wdp22<===2",
"<&%=2<2dp0-8->;;.. .....      .. .....       ...-qqq*;wpdgw21121",
"==&&=pwwww&8->;;.. .....      .. .....       ...-qqq>=2=<<<<<<<=",
"1<=<0112ww-8>-;;.. ......     .. ......     ....-q>;>%<&1=<22221",
"1=<<=12<ww&8q*;;... ......   .... ......   ... .-q;;>-&=11==11==",
"=1221=122w1;q*>-... ....... ..... ....... .... .-q;;>%<211&%%%&=",
"<<=====wppp*q>q-... ............. ...........  .-q;;*&<==<11211<",
"==111<=122w*q*>*... ............. ............ .-q;;$&&==&%==%%=",
"=<1<==<www2*q*;$.... ............. ......... . .-->-$%=21==&%%&=",
"=&==<<<2221*;$;$....  ......  ....  ......  .. .-*q-$&22211=====",
"<=&&12=%%=<$$$-$.....  ............  ......... .$$;$$*===1<22111",
"12<<<<=%%%%$$$$$$X+#XXX++++XXX++++XXX+++XXXX,++X$;*$$%%&==<221==",
"=<2212<====%%%%%%OOOOOOOO+OOOOOOOOOOOOOOOOOOOOOO*%%%$&=====<<11<",
"122<<<21===<<<<12221<1201<<21<==<12101221=<121<<121===<1=11222=="
};
