/* XPM */
static char *_0054e954bf54aeaa7c8e216ee1e885ft7JNdKHDqWALGqGv[] = {
/* columns rows colors chars-per-pixel */
"64 64 21 1 ",
"  c #564136",
". c #594337",
"X c #5A4437",
"o c #5B4438",
"O c #5E4639",
"+ c #5F483B",
"@ c #60473A",
"# c #60483B",
"$ c #634A3C",
"% c #654B3E",
"& c #674D3F",
"* c #684D3F",
"= c #694F40",
"- c #6B5041",
"; c #6D5242",
": c #6F5344",
"> c #6F5444",
", c #705444",
"< c #745746",
"1 c #755947",
"2 c #775A48",
/* pixels */
"$$$$$$#OO@#%O$#OOOOO#&@$$$$$OOO##@#$#OOOOO*$&$$$$OOO##$O%#OOOOO%",
"OOo    OO%#OO o   OOOOOO.   OO#$@O ..  OOO##O&*$ .OO&#O. o  .OO@",
"&&&O$O$$##$&o.  OO#%%==&@$O@&$$#&=-;,<1;;1===;;;=&###&$o  .OO#O&",
"#&&&O$&$##&&o$;;;;;,,-=;=,;;;--;;--;;;,,;,;=--1;-&##$&$o%@OO#&%#",
"&$O@ XooX.#$-,,,=;;>;,;,,,111,;;==,,,--;;;::,,,<12,;;%#=#O#####&",
"$&%&$Oo#$;>,,,,,,1;-;=,,,==;,,;;<,,,,,1,;;;,,,==-,,;;,=$$&&#####",
".###O@&O&&@%=;;,<,,,,,->;;;,;=,,;--;,1,,,,,-;;;;;,=,&O&#O#O     ",
"%#o&%##O.-;*==;,,,,,;;>>;;;,,,;;;==;,,,,,,-,;;;;;,,;;;%%%#@OOOo$",
"%$..O$&;,;;,,,;-;;=;;--,11,=,,;-,,,,=;;=-;;=,<11=,,;;,,;@#####$&",
"OO.     ,;,,,,,,,,,,,1<<<<1;,,;>,,,,,,,,,,<1,1,1,,,;;,,;=######O",
"#O.$&&-=;===--=;,<12,-;,,,,,=;-===;=-,,11,;;,,,,,;--===;=&=&&&&#",
"&OOO,,,,,,,,==-,===,,,;<11,,,,,,,-==,-==;,,;,11,,,,,,,;==-O#&&##",
"O@==,,==,11;,,,=-,;;;;,,=;,-=,,1,;,,-&,;;;;><--,;=;,11-,,;&,OoX$",
"#;;=,,,121<,,,,;;;;;;;,,=;,,1221,,,,,;;;;;;>,--,,<121,,,,,;;;=$O",
"OO;>==-,;,,,;=-;;;;=:;;>,-==,,;,,,==;;;;=;;;;,;==;,-,,,-=;;;;-O%",
"OO&;,<,;,,;==;>;;;,1,;;>,,,1-,,,==;,;;;;11;;;,,,1;,,,-==,;;;;,-O",
"@==,1,,,==;;,,221;<-=-==;1<,,-=;;,,121,,;=====11,,;=-;;,,221*$$O",
"@===-,;==;;;,22,;===,;====,,==-;;,221,===;;====;,-==>;;122,-===&",
"&;;;;;,,:;,;;;;;-,;;=;>;;;-,,,;,,-;;;-,;;--,;;;;;,,;;,;;;;;;;#OO",
"O#&;,,,-<;,,,;;;<,;;,,>;;,,,;,;,,,;;;,,;;>,,;;:,,,;,;,,;;;,,;&%@",
"#&;-=--===;;;;,1,,;==;;;;==;===;;;;>1,,,==-;;;==;===-;;;;<<,,&$O",
"&&=--,,,,,;;;&==-,===;;;;=,,,,,;;;&===,-==-;;;=;,,,,>;;=*==;;%$%",
"OOO-;,12-=;:;;,,;==;,,=;,;,12;==,;>>,,==-,,--,>;121==,;>;,,-==$%",
"%%*$=>,,,,>;;;,111-,,===,;;,,,,,;;>>111;,<===;>;,,,,,;;>;<11,;$%",
"%&=:,1;=;>===,<,-,;,,;;>;,1,=;;-==;1,-,,;,>;;;,1<--;;===1,;;,-#%",
"%->,,11,;>;=-,,,=;,,,,;>;,11<;;,==,,,--,,,,:;;,111>;,-=;,,;=;$@$",
"&&#-;;,1,=;,,<1,,,=;=*;1,;;>11==,,,1<,,;--=-11;;;<1;=,,,11,,,&%%",
".####-,-;11,=;,,1,,;,;;,:;;>;=11,--,,<,,>>,;,,;;;,=,1,;=,,-OO.  ",
"#%$&#%;;;==;;;;1,,,,>>;;===;,,==-;;-1,,,,,;,--==-,,-==;;;,&O   O",
"&%XO#%&;,,-;;;;====;>--,11,=,,,->;;>====-,;=,<11=;,,;;;;;&#OOO@&",
"O. o*,,1,=,1<,,<11,,-,,,,,,;11=;11,,,11,,;;,,,,,,,1;-<1,,,,=%%%@",
"OO-;,,;=;===--=;,<11,;,,,,,;=;====;=-,,11,,,,,,,,---===;==,-%%$O",
"&@#;,1<,,,,,;;;,;;;,<,-,,,11,,,,,;;;,;;;,1,-,,,11,,,,,>;;,,;;&%%",
"@O%%*,==,<1;;;;=-,;:,,,,-,,-=;,1,;;;=*,;;,,,1;;,;=-,11-;;&OO##O$",
"O%%%;;,,2,,,,,1;======,,;>,,,11,,,,<,======;,;;,,,,2,,,,=%OooooO",
"OOOOO$;,,,,,;=-,,,;=,,,,;-==,,;,,,==,,,,=;,,,;;==,,;,,-#%%##&##%",
"OO&&&;,:,<>;;>;===;,,==;,,,,;,,,;;;,====,,==-,,,,;,,<;;%#. X.  O",
"@%#OO*,:==>;;>111;1;-===;11,;-=;;;;<11,,,-====11,;;=-;;;,,,$oOOO",
"O.oo;,>;;>==1221>;;;,,;;;;,,;;;-=,222,;;;>,:;;;>,;;;;=;221,;-###",
"%@$$-=>;;>,-;,,,-;;;=;;;;;=;;;;,;=,,,-;;;--;;;;--;;;,,=,,;=&&###",
"@%&=;1<;,=11,===,,==,,;==-11>,=,11==-,,-=;,,===,1,;;;11;===;=&#O",
"O$&=-==*-=,,,,,1,,;==;,,;-===-=;,,,,1<,,==-,,,======-,,,,&#$%##O",
"&&*-;<<,,,===&;;;,;;;>==-;,1,,,-==&;;;,;;;;-==;>1,,,;==*=;&-%%O@",
"@%,;;<11==;,>;;;;=&;;>=;>;,11;==<,;;;;=*=;;--,;>11,==,,;;;;*OOO%",
"##%,=;,1<,;=--,,,,;,,;;;,--,11,,==;;,,,;,,;;;>;=,<1,,-=;-,,2,OO@",
"&&*;,1;=,,===,1,;,;,,;;;,,1,=;,-==;1,;,;;,;;;>,<<--,;===1,&&&&@&",
"#%%=1,,,=;>;;,,,;>,,,;=;;1,,,--,;;,,,;;,,,;=--1,,,;=,;;>,&OO@%$@",
"&&$,,,,1,=-;;<1,;>=;=-;1<,,,21==;;,1<;;---==11,,,11;=;;>11;&%%%&",
"O%%%$#,;;,,,;>,,,1,-,;,,;==;,;,,<;;,,,1,;;;,,,==-,;,,1,,,,$oOOOo",
"O%%%@=,;;;-;;>;1,,,,,,;;===;,;;;-;;-1,,,,,,;--==-,;;;=,<1,$o   .",
"=;-,,;;,,,;-==>;;;;>;;;,,,,;,,,;;==;;;;;;,-;,,,,;,,,2,21,*&#OOO&",
"#o O&#&1,=,1<,:,,,;>=;;,,,,;11=;11,,;,,;;--;,,,,;<1;2,,,12;&%%&$",
"OOX.O,-;>;;;;;;>,,,,1<<<<<1;;>;;;;>;;,,,,111,1,1,;;;;,&O@@@@##@O",
"%@O#=%$&>;;;;;;>,,,1<;-,,,11;>;;;;>;;,,,,1:-,,,<1,;=o@#.$O#&&&&%",
"$O##O$&#;-;;==-;=;=;,,,1,1,;;:,,,-==;=;=-,,,,<<,;%@*;;.O%%OO%%OO",
"O$&&$O$&*;;;,,1-=;====,,;:,;;,1,,>,<,*;-===;,;;,=&&%O@#&%%X   .O",
"@@OOOOO;,,,;>;;,,,>;,,,,=;;;11<1,,;;,,,,;>,;;&&;;,;#@$#OO#%%&%%#",
"OO%%%@O$&&-;>;;===-;;==;,;;;,,,,,,;;====;>=&%%%%OO&&&%oOOo OO  O",
"O#%@OO#-;;*%&;,,,;,<,;;;;,,1-;;>==-,,,,,1,;;;;OOO#&$OoO&%OO.  .O",
"OoOO@@#&&&$%-122,;,;;,;;;&=$&;;-=,122,,,:;##oOO$O#&&%$&&&%$OOOOO",
"#Ooo$&O  O#;;>,;;&&=;-=O+&;,==-,:;11<;=&%=-&Ooo&&. .OOOOO%#&&%%%",
"$&####O     .oO@$;&=;&=&=&;$O-=,1,===;=&$OO&%####.     XOO#&&%OO",
"O@&&$&@OOOO#OOOOO#$&=$;,,,;$OOOO;,,,%O##%%OO$&&&&OOOO@@OOOO@#%%@",
"%&&###&%OOO#@@@%&&&$#%&=$##&%@OO#$*$=%&&$O@%&$##$&$OO@@$O$%&&&OO"
};
