/* XPM */
static char *dbe858c1c22b450ace3f0dcecc6e15b751K3JvXnf4Cq49Qp[] = {
/* columns rows colors chars-per-pixel */
"32 32 20 1 ",
"  c #574236",
". c #584237",
"X c #5B4539",
"o c #5D463A",
"O c #5F483A",
"+ c #60473A",
"@ c #60483B",
"# c #62493C",
"$ c #654B3E",
"% c #664C3E",
"& c #684E3F",
"* c #694F40",
"= c #6B5041",
"- c #6C5142",
"; c #6F5443",
": c #6F5344",
"> c #6F5444",
", c #705444",
"< c #745746",
"1 c #745846",
/* pixels */
"@oXo@@ooXo@ooXo@@oooo$##oo#ooXo@",
"$$+$@$o#$*=*%%&*&*,,,=--%#$ooo##",
"$#oo@*>,,--,:,,--,,,--,-,,-%##@#",
"@@@@$%=,,,----->--,,,-----&#@o.X",
"@.o@-,,-,-,,<,,-,,-:,,,<-,,,$@@#",
"@o-------,,,,,------,,,,,---=$%#",
"#=,-1,,----,--,1,,-;-----,,,,-$o",
"o--:,-----,-,-,,----,----:,----@",
"%-,---<1-----,--,11;--=,,--,1,*%",
"%=,,-,--,----,>-,-;,-,--,,,---%@",
"%------,----------------,-----=$",
"@%-,---,,-,--,<---,->---,,--,,-$",
"%-<,---,-,>-,<--=,--,--,,---,-=#",
"#$*,,,,,,--,--,,,,,,--,-,,,-,=$o",
"#@#=---,----,-,---,-,-->-,---@Xo",
"o#,----,<,,,,,,-,;,<,,,,,--,--$@",
"@%,-,,---,,,,,-,,---,-,,,:,--%$@",
"@@%,,,->---,--<,,;------,1,-%oo@",
"@#%>---,-,--,,---,,-,--,,-,-&#.X",
"oo----,<---------1,-----;-;,,=$@",
"@*---,,,,---->--,-,,-,----,,-%$@",
"$-,,---------,,--=------,----*@@",
"$=,,,--,,,--:,,,=,,,,--,,,--,-%@",
"$&,,--,,----,,,--,,---,,,---,###",
"#$$--,-,,,,---;,--,,---=--,,,o..",
"%$=--,-,,--,,,,-,-,---,,,,1<,%@#",
"+o%*----,,,,,,----,,<,,,,-&@@#$#",
"@$@$=---=--,,:-,,-----,,&%%@#ooo",
"o@@#----------,,,----=%%%%#oooOo",
"o@o$*$-1,,-------,<,,&$o@%o$#ooo",
"#o#X.O#%&*-%%=&-,,-%$$o@o XXo#$@",
"#$##o+o@$%$=*%@o&=$$#@$##oo+o#$@"
};
