/* XPM */
static char *de6b6f75516c4021f55aa6af1169c818Ym2ynuVgu9bePWJK[] = {
/* columns rows colors chars-per-pixel */
"33 65 22 1 ",
"  c None",
". c #08090D",
"X c #14161E",
"o c #3E332A",
"O c #521D1B",
"+ c #493C32",
"@ c #652723",
"# c #712B28",
"$ c #554C3C",
"% c #5B4A3D",
"& c #242940",
"* c #5F1166",
"= c #746344",
"- c #6D6D6D",
"; c #89744F",
": c #BBA160",
"> c #DDBF78",
", c #871C92",
"< c #B937C5",
"1 c #EECF84",
"2 c #C4C4C3",
"3 c gray82",
/* pixels */
"                                 ",
"            <    ,               ",
"            ,,   <,              ",
"        ,<,,*<   <,  ,           ",
"          ,<,*< <,**,,           ",
"      <   *,<,<*<,*,<*           ",
"      ,<,,*,<,*<,*,<,*           ",
"       ,<<,*,**<*,<,*<<,,        ",
"      ,**,<*%%+%o%%*<,,**        ",
"      *<<**%++%+o++%*,*          ",
"       *,<%+#o+%+o#o%*,,,   ;;;  ",
"        **+#OOo+o#OOo*<*   ;;;=$ ",
"      11>:#o+oO%@o+oO**>1> ;;=;$ ",
"        1>>+..o%o..+:>::   ;=$=$ ",
"      1>::+%%%o%o%%%+:>1   ;=$=  ",
"        1>o+%o%+%o%+o::    $$==  ",
"       1 ::+++.o.+++:>11    =%+o ",
"         :>+3o%%%o3+>:     %%%%+ ",
"         1:o2-2-2-2o:>     ooo+o ",
"        1&&:o2-2-2o::X1    %%%%+ ",
"        &&&XXo%%+oXXX&XXX  ooo+o ",
"       &&&&XXX%+%XXX&&&&&X o++oo+",
"       &&X&&XXXXXXXX&&&&&XX =;$o+",
"       &&X&&XXXXXXX&&&X&XXXX$=$+%",
"       &&X&&&XXXXXX&&X&XX&&X$=;+%",
"      &&&XX&&&&XXX&&XXXX&&&X$=;++",
"      &&&XX&&&&&&&&&X&XX&&XX;$=+o",
"      &&&XXX&&&&&&&X&XX&&XXX=$=+o",
"      &&&XXX&&&&&&&X&X&&&XXo=;$o ",
"      &&&&XXX&&&&&X&XX&&&Xoo$;$o ",
"     &&&X&XXXX&&&&X&XX&&&Xoo$=$o ",
"     &&&X&XXXXXXXX&XXX&&&X++$=;o ",
"     &&&X&&XXXXXX&&XX&&&&Xo+$$=  ",
"     &&&XX&&XXXX&&X&X&&&XXXo;$=  ",
"     &&&XX&&&XXX&XX&X&&&XXXX=$$  ",
"     &&&XXX&&&&&&X&XX&&&XXXX$=$  ",
"     &&&XXX&&&&&XX&XX&&&XXX=$$   ",
"     &&&XXXX&&&XX&XX&&&&XXX;;$   ",
"     X&&XXXXX&XXX&XX&&&&XXX==$   ",
"     X&&XXXXXXXX&XX&&&&&XXX$=;$  ",
"     X&&XXXXXXXX&XX&&&&&XXXX$==  ",
"     XX&&XXXXXXXXXX&&&&&XXXX$$=  ",
"     XX&&XXXXXXXXXX&&X&&XXX===$  ",
"     XX&&XXXXXXXXXX&&X&X&X$$$$=  ",
"     XX&&XXXXXXXXX&&&X&X&X$;;$$  ",
"     XXX&XXXXXXXXX&&&XXX&XX==;$  ",
"     XXXX&XXXXXXXX&&&XXX&XX$$=$  ",
"      XXX&XXXXXXXX&&&XXX&XX $$$  ",
"      XXX&XXXXXXXX&&&XXXXXX =$   ",
"       XXXXXXXXXX&&&&XXXXXX ==$  ",
"       XXXXXXXXXX&&&&XXXXXX $==  ",
"       XXXXXXXXXX&&&XXXXXXX $$$  ",
"        XXXXXXXX&&&&XXXXXXX $$$  ",
"         XXXXXXXX&&&XXX XXX $$   ",
"           XXXooXXXXXoo  X  $$   ",
"              o%oXXoooo  X  $$   ",
"              o%oo  oo      $$   ",
"              o%oo           $   ",
"         %+%+%%oo%           $   ",
"         %+++++%o%               ",
"          %%%%+o%o               ",
"           %+ooooo               ",
"            ++++oo               ",
"                                 ",
"                                 "
};
