/* XPM */
static char *_af6a66468c84e388e8330cc1a08dda1NUB2vQD6Jl3zhdYZ[] = {
/* columns rows colors chars-per-pixel */
"64 64 22 1 ",
"  c None",
". c #08090D",
"X c #14161E",
"o c #3E332A",
"O c #521D1B",
"+ c #493C32",
"@ c #652723",
"# c #712B28",
"$ c #554C3C",
"% c #5B4A3D",
"& c #242940",
"* c #5F1166",
"= c #746344",
"- c #6D6D6D",
"; c #89744F",
": c #BBA160",
"> c #DDBF78",
", c #871C92",
"< c #B937C5",
"1 c #EECF84",
"2 c #C4C4C3",
"3 c gray82",
/* pixels */
"                                                                ",
"                         <    ,                                 ",
"                         ,,   <,                                ",
"                     ,<,,*<   <,  ,                             ",
"                       ,<,*< <,**,,                             ",
"                   <   *,<,<*<,*,<*                             ",
"                   ,<,,*,<,*<,*,<,*                             ",
"                    ,<<,*,**<*,<,*<<,,                          ",
"                   ,**,<*%%+%o%%*<,,**                          ",
"                   *<<**%++%+o++%*,*                            ",
"                    *,<%+#o+%+o#o%*,,,                          ",
"                     **+#OOo+o#OOo*<*                           ",
"                   11>:#o+oO%@o+oO**>1>                         ",
"                     1>>+..o%o..+:>::                           ",
"                   1>::+%%%o%o%%%+:>1                           ",
"                     1>o+%o%+%o%+o::                            ",
"                    1 ::+++.o.+++:>11    ;;;                    ",
"                      :>+3o%%%o3+>:     ;;;=$                   ",
"                      1:o2-2-2-2o:>     ;;=;$                   ",
"                     1&&:o2-2-2o::X1    ;=$=$                   ",
"                     X&&XXo%%+oXXX&X    $=$=                    ",
"                     &&&XXX%+%XXX&&&X    $==                    ",
"                     &X&&XXXXXXX&&&&&X   =%+o                   ",
"                    X&X&&XXXXXXX&&&&&&X %%%%+                   ",
"                    X&X&&&XXXXX&&&X&&&&Xooo+o                   ",
"                    X&X&&&&&&&&&&&&&XXXX%%%%+                   ",
"                   XX&XX&&&&&&&&&&&XXX&Xooo+o                   ",
"                   XX&XX&&&&&&&&X&XXXX&&&++oo+                  ",
"                   XX&XX&&&&&&&XX&XXX&&&X=;$o+                  ",
"                  XXX&&XX&&&&XXX&XXXX&&XX$=$+%                  ",
"                  XXXX&XXXXXXXX&&XXX&&XXX$=;+%                  ",
"                  XXXX&XXXXXXX&&XXXX&&XXo$=;++                  ",
"                  X&XX&&XXXXX&&&XXX&&&Xoo;$=+o                  ",
"                  X&XX&&&XXX&&&XXX&&&&Xo+=$=+o                  ",
"                  X&XX&&&&X&&&&XXX&&&XXX+=;$o                   ",
"                  X&XX&&&&&&X&XXX&&&&XXXo$;$o                   ",
"                  X&XXX&&&&XX&XXX&&&XXXXX$=$o                   ",
"                  X&&XX&&&XX&XXXX&&&XXXXX$=;o                   ",
"                  X&&XX&XXXX&XXX&&&&XXXXX$$=                    ",
"                  X&&XXXXXXXXXXX&&&&XXXXX;$=                    ",
"                  X&&XXXXXXXXXXX&&&&X&XXX=$$                    ",
"                   &&&XXXXXXXXX&&&&&X&XX=$=$                    ",
"                   &&&XXXXXXXXX&&&&XX&XX;$$                     ",
"                   &&&XXXXXXXXX&&&&XX&XX=;$                     ",
"                   &&&XXXXXXXX&&&&&XX&XX$=$                     ",
"                   &&&XXXXXXXX&&&&XXX&XXX=;$                    ",
"                   &&X&XXXXXX&&&&&XXXXXXX$==                    ",
"                   &&X&XXXXXX&&&&XXX&XXX=$$=                    ",
"                   &&X&XXXXX&&&&&XXX&XX$$==$                    ",
"                   &&XXXXXX&&&&&XXXX&XX$;$$=                    ",
"                   &&&XXX&&&X&&&XXXX&XXX=;$$                    ",
"                   &&&XXXXXXX&&XXXXXXXXX$=;$                    ",
"                    &&XXXXXXoX&XXXXXXXXX $=$                    ",
"                        XXXoooXXXXX++ XX $$$                    ",
"                           +ooo  ++++ X  =$                     ",
"                          +++ooo ++++    ==$                    ",
"                         +++++oo ++++    $==                    ",
"                       ++++++++  ++++    $$$                    ",
"                      +++++++++  ++++    $$$                    ",
"                       ++++++++  +++     $$                     ",
"                                         $$                     ",
"                                         $$                     ",
"                                         $$                     ",
"                                          $                     "
};
