/* XPM */
static char *_621164735dc408c8c44a16fede7b8b4n03WdMZjRkAvkrJL[] = {
/* columns rows colors chars-per-pixel */
"64 64 17 1 ",
"  c None",
". c #08090D",
"X c #14161E",
"o c #1C1C1B",
"O c #3E332A",
"+ c #493C32",
"@ c #554C3C",
"# c #5B4A3D",
"$ c #242940",
"% c #5F1166",
"& c #746344",
"* c #89744F",
"= c #BBA160",
"- c #DDBF78",
"; c #871C92",
": c #B937C5",
"> c #EECF84",
/* pixels */
"                                                                ",
"                               :    ;                           ",
"                               ;;   :;                          ",
"                           ;:;;%:   :;  ;                       ",
"                             ;:;%: :;%%;;                       ",
"                         :   %;:;:%:;%;:%                       ",
"                         ;:;;%;:;%:;%;:;%                       ",
"                          ;::;%;%%:%;:;%::;;                    ",
"                         ;%%;:%##+#O##%:;;%%                    ",
"                   ***   %::%%#++#+OO+#%;%                      ",
"                  @&***   %;:#+OOOOOOOO#%;;;                    ",
"                  @*&** -  %%+OO.....OOO%:%                     ",
"                  @&@&*  >-%%OO.XXXXX.OO=->>                    ",
"                   &@&@   ==-O.XXXXXX..-->                      ",
"                  o&@&@   >-=O.XXXXX...+==->                    ",
"                  +&&@o    ==O.X.......O->                      ",
"                  O&#&+   >>-=........+== >                     ",
"                  +O+&OX    =-........+-=                       ",
"                  O++&OX    -=O.......O=>                       ",
"                  +++&OX   >X==......O=  >                      ",
"                  ++++$XXXXXXXXX.....XX$                        ",
"                  O++$$$XX$$$$XXX...XXX$$                       ",
"                   +$$$XX$$$$$$XXXXXXXX$X$                      ",
"                   *$$$XX$$$$$$$XXXXXXX$X$X                     ",
"                  @*$X$XX$$$$$$$$$XXXX$$$$X                     ",
"                  @&$X$X$X$$$$$$$$$$$$$$$$XX                    ",
"                  @&$X$X$X$$$$$$$$$$$$$$$$XX                    ",
"                  @@XX$X$X$$$$$$$$$$$$$$$$XX                    ",
"                   @XX$X$$X$X$$$$$$$$$$$$$XXX                   ",
"                   @&XX$X$X$X$$$$$$$$$$$$XXXX                   ",
"                  @*&XX$X$X$X$$$$$$$$$$$$XXXX                   ",
"                  @&@XX$XXX$XX$$$$$$$$$$XXX$X                   ",
"                  @&@XX$XXX$XXX$$$$$$$$$XXX$X                   ",
"                   @@&XXXXX$XXXX$$$$$$$XXXX$X                   ",
"                   @&@XXXXX$XXXX$$$$$$$XXXX$X                   ",
"                    @@XX$XXXXXXXX$$$$$XX$XX$X                   ",
"                    @*XX$XXXXXXXX$$$$XXX$X$$X                   ",
"                    @&XX$XXXXXXXX$$$$XXX$X$$X                   ",
"                   @*&XX$$XXXXXXXX$$$XXX$X$$X                   ",
"                   &&@XX$$XXXXXXXX$$$XXX$X$$X                   ",
"                   &@@XX$$XXX$XXXXX$$$XX$$$$                    ",
"                   @&&XX$$XXX$XXXXX$$$XX$$$$                    ",
"                   &@@*X$$$XX$$XXXXX$$XX$$$$                    ",
"                   @@*&X$$$XX$$$XXXX$$XX$$$$                    ",
"                   @*&@X$$$XX$$$XXXX$$XX$$$$                    ",
"                   @&@ X$$$$X$$$$XXXX$XX$X$$                    ",
"                   @@@ X$$$$XX$$$XXXX$XX$X$$                    ",
"                    @&  $$$$XX$$$$XXXXXX$X$$                    ",
"                   @&&  XX$XXXX$$$$$XXXXXX$$                    ",
"                   &&@   X$XXXX$$$X$$$XXX$$$                    ",
"                   @@@   XXXXXXX$$XXXXXXX$$$                    ",
"                   @@@   XXXXXXX$XOXXXXXX$$                     ",
"                    @@    ++XXXXXOOOXXX                         ",
"                    @@    ++++  OOO+OO                          ",
"                    @@    ++++ OOO+++OO                         ",
"                    @@    ++++ OO+++++O                         ",
"                    @     ++++  +++#++                          ",
"                    @     ++++  +##++                           ",
"                           +++  +++                             ",
"                                                                ",
"                                                                ",
"                                                                ",
"                                                                ",
"                                                                "
};
