/* XPM */
static char *cac5d685708e418f98d2eb7f35b03ba83tRCvOVWX864koK2[] = {
/* columns rows colors chars-per-pixel */
"33 65 21 1 ",
"  c None",
". c #08090D",
"X c #14161E",
"o c #392D24",
"O c #393129",
"+ c #3E332A",
"@ c #521D1B",
"# c #493C32",
"$ c #554C3C",
"% c #5B4A3D",
"& c #242940",
"* c #5F1166",
"= c #746344",
"- c #6D6D6D",
"; c #89744F",
": c #BBA160",
"> c #DDBF78",
", c #871C92",
"< c #B937C5",
"1 c #EECF84",
"2 c #C4C4C3",
/* pixels */
"                                 ",
"                                 ",
"                *                ",
"                <* *             ",
"              , <,*< *           ",
"              <,*<*<*<           ",
"              ,<,*<,<, *         ",
"              *,<*,<,*<<         ",
"              ,*<,<,*,<*         ",
"               ##+*,,<,*         ",
"              +%%#+*<,,*         ",
"             +%@+#++*>*,         ",
" ;;;         %@#@+++>*,,,        ",
";;;=$       +@%%#@++1>,,         ",
";;=;$       #+..+%#>:1:          ",
";===$$      %#%%%#+1>>1          ",
" $==$       %%+%#++:1:1          ",
"  $$=       #.#2++%>:>:          ",
"  ===        %%2++%:1: :         ",
" #===        2-2+%:1::X          ",
" #===#       -2%#>1:XX:&&&       ",
" %%###%      %%#+1X:&&&&&&X      ",
" +%%%%#       ++X:XX:&&&&&&X     ",
" ##%%##        XXXX&&&X&&&XX     ",
"  +##%##       XXXXX&X&XXXX&X    ",
"   ++#%## XX&X XX&&&XXX&XXXX&    ",
"   =++++%##X&&&X&&&&X&&XX&XX&X   ",
"    =$+##%#XX&&&X&&&&X&&&&&&&X   ",
"    ;$++#%#XX&&&&X&&&XXXXXX&&XX  ",
"    =$= +##XXX&&&&X&&XXXXXXXXXX  ",
"    =;$  ##XXX&&&&&XX&XXXXXXX&X  ",
"    $;$   ++XXX&&&&&XXXXXXXXXXX  ",
"     $=$  XXXXXX&&&&&XXXXXXX&XX  ",
"     $=;  XXXXXX&&&&&&XXXXXX&XX  ",
"     $$=  XXXXXXX&&&&&&XXX&&&XX  ",
"     ;$=  XXXXXXX&&&&&&&&&&&&XX  ",
"     =$$  XXXXXXXX&&&&&&&&&&XXX  ",
"    =$==  X&XXX&XXXX&&&&&&&&XXX  ",
"    $;$$  XXXXX&XXXXX&&&&&&&XXX  ",
"     =;$  XXXXX&XXXXXXX&&&&XXXX  ",
"     $=$   XXXX&XXXXXXXX&&&XXXX  ",
"      =;   &XXXX&XXXXXXXX&XXX&X  ",
"      $=   &XXXX&XXXXXXXXXXXX&X  ",
"      $$$  &XXXX&XXXXXXXXXX&X&X  ",
"      $;=$ &XXXX&&XXXXXXXXXXX&X  ",
"       $$$ &XXXX&&XXXXXXXX&XX&X  ",
"      $;$$  XXXX&&XXXXXX&&XXX&X  ",
"      $=;$  XXXXX&&XXXXXXXXX&&X  ",
"       $$$   XXXX&&&&XXXXXX&&&X  ",
"        $$   XXXXX&&&&XXXXX&&XX  ",
"       $=;$  XXXXX&&&&&&XX&&XXX  ",
"       $$=;$   XXXX&&&&&&&&&XXo  ",
"        $$$$  #XXXX&&&&&&&&Xooo  ",
"        $$$%  #XXXXX&&&&&&XXoo   ",
"        #$$%%%#XXXXXX&&&&&X o    ",
"        #$$%%%###XXXXX&&&XX      ",
"         $$#%%%####XXXX&XX       ",
"         $$O#%%%##   XXXXX       ",
"         $$  ##%#      XX        ",
"              O##                ",
"                                 ",
"                                 ",
"                                 ",
"                                 ",
"                                 "
};
