/* XPM */
static char *_34bd8728a244a6bb5d59b3e70601869ML5C8wJ04E9EDvzJ[] = {
/* columns rows colors chars-per-pixel */
"33 65 18 1 ",
"  c None",
". c #08090D",
"X c #14161E",
"o c #1C1C1B",
"O c #322B24",
"+ c #3E332A",
"@ c #493C32",
"# c #554C3C",
"$ c #5B4A3D",
"% c #242940",
"& c #5F1166",
"* c #746344",
"= c #89744F",
"- c #BBA160",
"; c #DDBF78",
": c #871C92",
"> c #B937C5",
", c #EECF84",
/* pixels */
"                                 ",
"                                 ",
"                 >    :          ",
"                 ::   >:         ",
"             :>::&>   >:  :      ",
"               :>:&> >:&&::      ",
"           >   &:>:>&>:&:>&      ",
"           :>::&:>:&>:&:>:&      ",
"     ===    :>>:&:&&>&:>:&>>::   ",
"    #*===  :&&:>&$$@$+$$&>::&&   ",
"    #=*==  &>>&&$@@$@++@$&:&     ",
"    #*#*=   &:>$@++++++++$&:::   ",
"     *#*=    &&@++.....+++&>&    ",
"    o*#*#  ,;&&++.XXXXX.++-;,,   ",
"    $**#o   --;+.XXXXXX..;;,     ",
"    $*$*@   ,;-+.XXXXX...@--;,   ",
"    @+@*+    --+.X.......+;,     ",
"    @@@*+   ,,;-........@-- ,    ",
"    +@+*+     -;........@;-      ",
"     @$+O     ;-+.......+-,      ",
"     $$@     ,X--......+-  ,     ",
"     @$@+X%%%XXXXX.....XX        ",
"    #+@$X%%%%X%%XXX...XXX%       ",
"    #=+X%%%%%%%%%XXXXXXXX%X      ",
"    #*+X%%X%%%%%%%%XXXXXXX%X     ",
"    #*XX%%X%%%%%%%%%%XXXX%%%%    ",
"     #X%%X%X%%%%%%%%%%%%%%%%%    ",
"     #X%%X%X%%%%%%%%%%%%%%%%%%   ",
"     #*X%X%X%%%X%%%%%%%%%%%%%%   ",
"    #=*X%X%%X%%%%%%%%%%%%%%%%%   ",
"    #*#X%XX%X%%XX%%%%%%%%%%%%%   ",
"    #*#X%%X%X%%XX%%%%%%%%%%%X%   ",
"     ##X%%XXX%%XX%%%%%%%%%%%%%%  ",
"     #*X%%XXX%%XX%%%%%%%%%%XX%%  ",
"      #X%%XXX%%XXX%%%%%%%%%X%%%  ",
"      #=XXXXX%%XXXX%%%%%%%XXX%%  ",
"      #*XXXXX%%XXXX%%%%%%%XXX%%  ",
"     #=*XX%XXX%XXXXX%%%%%XX%X%%  ",
"     **#XX%XXX%XXXXX%%%%XXX%X%%  ",
"     *##XX%XXX%XXXXX%%%%XXX%X%%  ",
"     #**XX%XXX%XXXXX%%%%XXX%X%X  ",
"     *###X%%XX%XXXXXX%%%XXX%X%X  ",
"     ##==X%%XX%XXXXXX%%%XXX%X%X  ",
"     #=**X%%XXXX%XXXXX%%%XX%%XX  ",
"     #*##X%%XXXX%XXXXX%%%XX%%XX  ",
"     ### X%%%XXX%%XXXXX%%XX%%XX  ",
"      #* X%%%XXX%%%XXXX%%XX%%XX  ",
"     #** X%%%XXX%%%XXXX%%XX%%XX  ",
"     **# X%%%%XX%%%XXXXX%XX%XXX  ",
"     ### X%%%%XXX%%XXXXX%XX%XX   ",
"     ### X%%%%%XX%%XXXXXXXX%XX   ",
"      ## X%%%%X%%%%XXXXXXXXXX    ",
"      ##  X%%%X%%%%XXXXXXXXXX    ",
"      ##   X%%XX%%%XXXXX%XXXX    ",
"      ##    XXXX%%%%XXX%XXXX     ",
"      #      XXX%%%XXXXXXXX      ",
"      #      ++XXXXX++XXX        ",
"             ++++XX+@+           ",
"              ++  ++@+           ",
"                  ++@++          ",
"                  @@@++          ",
"                  +@@@+          ",
"                  @$$++          ",
"                  +++++          ",
"                  ++++           "
};
