/* XPM */
static char *_b366545d26e40c9c80ae18316e13fb00sllQfLNRGvNCFxk[] = {
/* columns rows colors chars-per-pixel */
"41 73 20 1 ",
"  c None",
". c #08090D",
"X c #14161E",
"o c #392D24",
"O c #3E332A",
"+ c #521D1B",
"@ c #493C32",
"# c #554C3C",
"$ c #5B4A3D",
"% c #242940",
"& c #5F1166",
"* c #746344",
"= c #6D6D6D",
"- c #89744F",
"; c #BBA160",
": c #DDBF78",
"> c #871C92",
", c #B937C5",
"< c #EECF84",
"1 c #C4C4C3",
/* pixels */
"                                         ",
"                                         ",
"                                         ",
"                                         ",
"                                         ",
"                                         ",
"                    &                    ",
"                 & &,                    ",
"               & ,&>, >                  ",
"               ,&,&,&>,                  ",
"             & >,>,&>,>                  ",
"             ,,&>,>&,>&                  ",
"             &,>&>,>,&>                  ",
"             &>,>>&O@@       ---         ",
"             &>>,&O@$$O     #*---        ",
"             >&:&OO@O+$O    #-*--        ",
"            >>>&:OOO+@+$    #***-        ",
"             >>:<OO+@$$+O    #**#        ",
"              ;<;:@$O..O@    *##         ",
"              <::<O@$$$@$    $**         ",
"              <;<;OO@$O$$   $@**$        ",
"              ;:;:$OO1@.@   $**$@@       ",
"             ; ;<;$OO1$$     *$@OO       ",
"              X;;<;$O1=1     #*O@@       ",
"           %%%;XX;<:@$1=    $#@@O        ",
"          X%%%%%%;X<O@$$   $$#**         ",
"         X%%%%%%;XX;XOOX%X$$@*#*         ",
"         XX%%%%%%XXXXXX%X$$@@*#*         ",
"        X%%%%%%%%%XXXXX%X@$@O*#-         ",
"        X%%%%%%%XX%%XX%%X@@O #-*         ",
"       X%X%%%%%%%XXXX%%X%@@  #-#         ",
"       X%%%%%%%X%XXXX%%X%OX  #*#         ",
"      X%%%%%%%XX%%XX%%%X%XX  -*#         ",
"      X%%%%%%XXX%%XX%%%X%XX  *##         ",
"      X%%%X%%XXXX%%%%%%X%XX  *#-         ",
"      X%%%X%%XXXX%%%%%XX%XX  ##*         ",
"      X%%%XX%XXXX%%%%%XX%XX  #*#*        ",
"      X%%%XX%%XXXX%%%%XX%X    ##-        ",
"      X%%%%XX%XXXX%%%%XX%X    #-*        ",
"      X%%%%XX%%XXXX%%%X%XX    #*#        ",
"      X%%%%XXX%XXXX%%%X%XX    *#         ",
"      X%%%%XXX%%XXXX%%X%XX    ###        ",
"      X%%%%XXX%%XXXXXX%%XX   #*-#        ",
"      X%%%%XXX%%%XXXXX%%XX   ###         ",
"      %%X%%XXXX%%XXXXX%%X     #-#        ",
"      %%X%%XXXX%%%XXXX%%X    #-*#        ",
"      %%X%%%XXX%%%%XXX%%X    #*#         ",
"      %%X%%%XXXX%%%%XX%XX     ##         ",
"      %%%X%%%XXXX%%%%X%XX     #*#        ",
"      %%%X%%%XXXXX%%X%XXX    #-##        ",
"      %%%XX%%%XXXXX%%%XXX   ####         ",
"      %%%XX%%%XXXXXXXXXXX    ###         ",
"      %%%XX%%%XXXXXXXXXX      ##         ",
"      X%%XX%%X%XXXXXXXXX      ##         ",
"      X%%XXX%XX%XXXXXXXX      ##         ",
"      X%%XXX%XXX%XXXXX        ##         ",
"      X%%XXXXXXX%XXXXX        #          ",
"      XXXXXXXXXXXXXXXX        #          ",
"      XXXXXXXXXXXXXXXX                   ",
"      XXXXXXXXXXXXXX@                    ",
"       XoXXXXXXXXX@@$                    ",
"       oooXXXXXX  @$$                    ",
"        ooooXXo   @$$$                   ",
"          oooo   @@@$$$$                 ",
"                 @@$@@$$$$$              ",
"                  @@@@$$$@$$             ",
"                                         ",
"                                         ",
"                                         ",
"                                         ",
"                                         ",
"                                         ",
"                                         "
};
