/* XPM */
static char *bf3e451ac765498acf9d013b92976de3t3J9U2hCcShNtsDP[] = {
/* columns rows colors chars-per-pixel */
"64 64 20 1 ",
"  c None",
". c #08090D",
"X c #14161E",
"o c #392D24",
"O c #3E332A",
"+ c #521D1B",
"@ c #493C32",
"# c #554C3C",
"$ c #5B4A3D",
"% c #242940",
"& c #5F1166",
"* c #746344",
"= c #6D6D6D",
"- c #89744F",
"; c #BBA160",
": c #DDBF78",
"> c #871C92",
", c #B937C5",
"< c #EECF84",
"1 c #C4C4C3",
/* pixels */
"                                                                ",
"                                                                ",
"                                &                               ",
"                                ,& &                            ",
"                              > ,>&, &                          ",
"                              ,>&,&,&,                          ",
"                              >,>&,>,> &                        ",
"                              &>,&>,>&,,                        ",
"                              >&,>,>&>,&                        ",
"                               @@O&>>,>&                        ",
"                   ---        O$$@O&,>>&                        ",
"                  ---*#      O$+O@OO&:&>                        ",
"                  --*-#      $+@+OOO:&>>>                       ",
"                  -***#     O+$$@+OO<:>>                        ",
"                  #**#      @O..O$@:;<;                         ",
"                   ##*      $@$$$@O<::<                         ",
"                   ***      $$O$@OO;<;<                         ",
"                  @***      @.@1OO$:;:;                         ",
"                 $@***@      $$1OO$;<; ;                        ",
"                 $$@@@$      1=1O$;<;;X                         ",
"                 O$$$$@      =1$@:<;XX;%%%                      ",
"                 @@$$@@      $$@O<X;%%%%%%X                     ",
"                  O@@$@       OOX;XX;%%%%%%X                    ",
"                   OO@$@       XXXX%%%X%%%XX                    ",
"                   *OO@@@      XX%%XXX%XXXX%X                   ",
"                   *#OO$@@X%%X XX%%%%XX%%XXX%                   ",
"                   -#O@@$@@X%%%X%%X%%XXXX%%%%X                  ",
"                   *#*O@$$@X%%%%%%%X%%%XXX%%%X                  ",
"                   *-# O@@@X%%%%%%%XXXXXXXX%XXX                 ",
"                   #-#  @@OXX%%%%%%XXXXXXXXXXXX                 ",
"                   #*#   OOXXX%%%%X%XXXXXXXXX%X                 ",
"                   #*-    XXXX%%%%%X%XXXXXXXXXX                 ",
"                   ##*    XXXXX%%%%%X%XXXXXXXXX                 ",
"                   -#*    XXXXXX%%%%XXXXXXXX%XX                 ",
"                   *##    XXXXXXX%%%%XXXXXXX%XX                 ",
"                  *#*#    XXXXXXX%%%%%%XXXX%XXX                 ",
"                  -##     XXXX%XXX%%%%%%%%%%XXX                 ",
"                  *-#     X%XX%XXXX%%%%%%%%%XXX                 ",
"                  #*#     XXXX%XXXXX%%%%%%%XXXX                 ",
"                   *-     XXXX%XXXXX%%%%%%%XXXX                 ",
"                   #*      XXX%XXXXXX%%%%%XXXXX                 ",
"                  ###      %XXX%XXXXXX%%%XXX%XX                 ",
"                  #-*#     %XXX%XXXXXXX%XXXX%XX                 ",
"                   ###     %XXX%XXXXXXXXXXX%%XX                 ",
"                  #-#      %XXX%XXXXXXXXXXXX%XX                 ",
"                  #*-#     %XXXX%XXXXXXXXX%X%XX                 ",
"                   #*#      XXXX%%XXXXXX%%XX%XX                 ",
"                   ##       XXXXX%%XXXXXXXXX%XX                 ",
"                  #*#        XXXX%%%%XXXXXX%%XX                 ",
"                  ##-#       XXXXX%%%%XXXXX%XXX                 ",
"                   #*-#      XXXXX%%%%%%XX%%XXX                 ",
"                   ####        XXXX%%%%%%%%%XXX                 ",
"                   ###         XXXX%%%%%%%%XXXX                 ",
"                   ##          XXXXX%%%%%%XXXXX                 ",
"                   ##          XXXXXX%%%%%XXXXX                 ",
"                   ##           @XXXXX%%%XXXXXX                 ",
"                   ##           $@@XXXX%XXXXoX                  ",
"                    #           $$@  XXXXXXooo                  ",
"                    #          $$$@   oXXoooo                   ",
"                             $$$$@@@   oooo                     ",
"                          $$$$$@@$@@                            ",
"                         $$@$$$@@@@                             ",
"                                                                ",
"                                                                "
};
