/* XPM */
static char *_6b7ed4eb0544e1fee48ccb996a6f66c2z7x1vdu9TbtkG4c[] = {
/* columns rows colors chars-per-pixel */
"33 65 20 1 ",
"  c None",
". c #08090D",
"X c #14161E",
"o c #392D24",
"O c #3E332A",
"+ c #521D1B",
"@ c #493C32",
"# c #554C3C",
"$ c #5B4A3D",
"% c #242940",
"& c #5F1166",
"* c #746344",
"= c #6D6D6D",
"- c #89744F",
"; c #BBA160",
": c #DDBF78",
"> c #871C92",
", c #B937C5",
"< c #EECF84",
"1 c #C4C4C3",
/* pixels */
"                                 ",
"                                 ",
"                 &               ",
"              & &,               ",
"            & ,&>, >             ",
"            ,&,&,&>,             ",
"          & >,>,&>,>             ",
"          ,,&>,>&,>&       -     ",
"          &,>&>,>,&>     ----    ",
"          &>,>>&O@@      #**--   ",
"          &>>,&O@$$O     #-**-   ",
"          >&:&OO@O+$O    #***#   ",
"         >>>&:OOO+@+$     ###    ",
"          >>:<OO+@$$+O    ***    ",
"           ;<;:@$O..O@    $**@   ",
"           <::<O@$$$@$   $@**@$  ",
"           <;<;OO@$O$$   $**@$O  ",
"           ;:;:$OO1@.@   @*$$@@  ",
"          ; ;<;$OO1$$    @*@@O   ",
"           X;;<;$O1=1    @#$O    ",
"        %%%;XX;<:@$1=   @$#**    ",
"       X%%%%%%;X<O@$$  $$@##*    ",
"      X%%%%%%;XX;XOOX%$$@@*##-   ",
"      X%%%%%%XXXXXX%%@@@@OO*#*   ",
"     %%%%%%%X%XXXXX%%@@OO  #-*   ",
"     %X%%%%%XX%XXX%%X@OX   #-#   ",
"    XX%%%%%%%XXXXX%%XOX    -*#   ",
"    X%%%%%XX%XXXX%%%XXX    *##   ",
"   X%%%%%XXX%XXXX%%%XXX    *#-   ",
"   X%%%%%XXX%XXX%%%%XXX    ##*   ",
"   X%%%X%XXXX%%%%%X%XX     #*#*  ",
"   X%%%X%XXXX%%%%%X%XX      ##-  ",
"   X%%%XXXXXX%%%%%X%XX      #-*  ",
"   X%%%XX%XXX%%%%%X%XX      #*#  ",
"   X%%%%X%XXX%%%%XX%XX       -*  ",
"   X%%%%X%%XXX%%%XX%X        *#  ",
"   X%%%%XX%XXX%%%X%XX        ### ",
"   X%%%%XX%%XXXXXX%XX       ###  ",
"   X%%%%%XX%%XXXXX%XX        #-# ",
"   X%%%%%XX%%XXXX%%XX       #-*# ",
"  X%%X%%%XX%%%XXX%%XXX      #*#  ",
"  X%%X%%%XXX%%%XXX%XXX       ##  ",
"  X%%X%%%XXX%%%%XX%XXX       #*# ",
"  X%%X%%%XXX%%%%%X%XXX      #-## ",
"  X%%XX%%XXXXX%%X%XXXX      -*#  ",
"  X%%XX%%XXXXX%%%XXXXX      ###  ",
"  X%%XXX%XXXXX%%XXXXXX       ##  ",
"  X%%XXX%%XXXXXXXXXXXX       ##  ",
"  X%%XXX%%XXXXXXXXXXX         ## ",
"  XX%XXX%%XXXXXXXXXXX         ## ",
"  XX%XXXXX%XXXXXXXXXo         #  ",
"  XX%XXXXXX%XXXXXXXoo   @@@o  #  ",
"  XX%XXXXXXX%XXXXXooo@@@@@oo     ",
"  XXXXXXXXXXXXXXX o@oo@@@oo      ",
"  XX@XXXXXXXXXXX  oo@@@ooo       ",
"  X@@XXXXXXXXXX   ooooo          ",
"  @@@ X XXXXXX    ooo            ",
" @@@@   XXXXX                    ",
"@$$@@@   XX                      ",
"@@$@@$$                          ",
" @@$$$$$                         ",
"  @@$$@$$                        ",
"    $$$@$                        ",
"                                 ",
"                                 "
};
