/* XPM */
static char *_2a4710803354b0cae10dc5bdf46269bwYXTM0AVtak6sstK[] = {
/* columns rows colors chars-per-pixel */
"64 64 45 1 ",
"  c #08090D",
". c #14161E",
"X c #392D24",
"o c #3E332A",
"O c #521D1B",
"+ c #4A392F",
"@ c #4D3A30",
"# c #493C32",
"$ c #4E3C31",
"% c #533F33",
"& c #544033",
"* c #564136",
"= c #594337",
"- c #5A4437",
"; c #5B4438",
": c #5E4639",
"> c #554C3C",
", c #5F493A",
"< c #5B4A3D",
"1 c #60473A",
"2 c #60483B",
"3 c #634A3C",
"4 c #654B3E",
"5 c #674D3F",
"6 c #684D3F",
"7 c #242940",
"8 c #5F1166",
"9 c #694F40",
"0 c #6B5041",
"q c #6D5242",
"w c #6F5344",
"e c #6F5444",
"r c #705444",
"t c #745746",
"y c #755947",
"u c #775A48",
"i c #746344",
"p c #6D6D6D",
"a c #89744F",
"s c #BBA160",
"d c #DDBF78",
"f c #871C92",
"g c #B937C5",
"h c #EECF84",
"j c #C4C4C3",
/* pixels */
"3333332::124:32:::::25133333:::221232:::::6353333:::223:42:::::4",
"::;****::42::*;***::::::=***::231:*==**:::22:563*=::52:=*;**=::1",
"555:3:332235;=**::24499513:15332890qrtyqqy999qqq9522253;**=::2:5",
"2555:3532255;3qqqqqrr09q9rqqq00qg808qqrrqrq900yq0522353;41::2542",
"53:1*-;;-=230rrr9qqeqrqrrryyyrfqgf8gr80qqqwwrrrtyurqq4292:222225",
"35453:;23qerrrrrryq0q9rrr99qrrgf8g8g8gyrqqqrrr990rrqqr9335522222",
"=222:15:55149qqrtrrrrr0eqqqeq9fgf8gfgfr8rrr0qqqqqr9r5:52:2:*****",
"42;5422:=0q699qrrrrrqqeeqqqerr8fg8fgf8ggrr0rqqqqqrrqqq44421:::;3",
"43==:35qrqqrrrq0qq9qq00ryyr9rrf8gfgf8fg80qq9rtyy9rrqqrrq12222235",
"::=*****rqrrrrrrrrrrryttttyqrrq##o8ffgf8rrtyryryrrrqqrrq9222222:",
"2:=35509q999009qrtyaaaqrrrrr9qo<<#o8gff8yrqqrrrrrq00999q95955552",
"5:::rrrrrrrr990r99aaai>tyyrrro<Oo#oo8d8fqrrqryyrrrrrrrq990:25522",
":199rr99ryyqrrr90raaia>r9qr09<O#Ooood8fffqqet00rq9qryy0rrq5r:;-3",
"2qq9rrryuytrrrrqqqaiii>r9qrroO<<#Ooohdffqqqer00rrtyuyrrrrrqqq93:",
"::qe990rqrrrq90qqq>ii>qer099#o  o<#dshsq9qqqqrq99qr0rrr09qqqq0:4",
"::5qrtrqrrq99qeqqqr>>iqerrry<#<<<#ohddhqyyqqqrrryqrrr099rqqqqr0:",
"199ryrrr99qqrruuyqtiii99qytr<<o<#ooshshrq99999yyrrq90qqrruuy633:",
"19990rq99qqqruurq9#iii9999rr# #joo<dsds99qq9999qr099eqqyuur09995",
"5qqqqqrrwqrqqqqq0<#iii#qqq0rr<<joo<shsrsq00rqqqqqrrqqrqqqqqqq2::",
":25qrrr0tqrrrqqqt<<###<qqrrrqjpjo<shss.qqerrqqwrrrqrqrrqqqrrq541",
"25q0900999qqqqryro<<<<#qq99q9pj<#dhs..s7770qqq99q9990qqqqttrr53:",
"55900rrrrrqqq5990##<<##qq9rrr<<#oh.s777777.qqq9qrrrreqq9699qq434",
":::0qryu09qwqqrrq9o##<#qrqryuqoo.s..s777777.0reqyuy99rqeqrr09934",
"44639errrreqqqryyy0oo#<#rqqrrrr....777.777..9qeqrrrrrqqeqtyyrq34",
"459wryq9qe999rtr0rqioo###ryr9qq..77...7....7.qryt00qq999yrqqr024",
"40erryyrqeq90rrr9qri>oo<##.77.q..7777..77...7qryyyeqr09qrrq9q313",
"5520qqryr9qrrtyrrr9a>o##<##.777.77.77....7777.qqqtyq9rrryyrrr544",
"=22220r0qyyr9qrryrri>io#<<#.7777777.777...777.qqqr9ryrq9rr0::=**",
"243524qqq99qqqqyrrria>qo###.7777777........7...90rr099qqqr5:***:",
"54-:245qrr0qqqq9999>a>0r##o..777777............y9qrrqqqqq52:::15",
":=*;6rryr9rytrrtyyr>i>rrroo...7777.7.........7.rrryq0tyrrrr94441",
"::0qrrq9q999009qrty>iarrrr....77777.7..........rr000999q99r0443:",
"512qrytrrrrrqqqrqqq>>i0rrr.....77777.7.........yyrrrrreqqrrqq544",
"1:446r99rtyqqqq90rqa>irr0r......7777........7..rq90ryy0qq5::22:3",
":444qqrrurrrrryq999i>>rrqe.......7777.......7..rrrrurrrr94:;;;;:",
":::::3qrrrrrq90rrri>i>rrq0.......777777....7...99rrqrr0244225224",
"::555qrwrteqqeq999a>>99qrr....7...7777777777...rrqrrtqq42=*-=**:",
"142::6rw99eqqeyyyqia>999qy.7..7....777777777...yrqq90qqqrrr3;:::",
":=;;qreqqe99yuuyeq>i>rqqqq....7.....7777777....erqqqq9quuyrq0222",
"413309eqqer0qrrr0qqiaqqqqq....7.....7777777....00qqqrr9rrq955222",
"1459qytqr9yyr999rr9>irq990y...7......77777.....ryrqqqyyq999q952:",
":359099609rrrrryrr>>>qrrq097...7......777...7..999990rrrr523422:",
"5560qttrrr9995qqqr>ai>990qr7...7.......7....7..eyrrrq9969q5044:1",
"14rqqtyy99qreqqqq95>>>9qeqr7...7...........77..eyyr99rrqqqq6:::4",
"224r9qrytrq900rrrr>a>qqqr007...7............7..9rtyrr09q0rrur::1",
"556qryq9rr999ryrqr>ia>qqrry7....7.........7.7..tt00rq999yr555515",
"2449yrrr9qeqqrrrqer>i>9qqyrr....77......77..7..rrrq9rqqer5::1431",
"553rrrryr90qqtyrqe9>>0qytrrr.....77.........7..rryyq9qqeyyq54445",
":44432rqqrrrqerrry>i>qrrq99qr....7777......77..90rqrryrrrr3;:::;",
":44419rqqq0qqeqyrr>>a>qq999qr.....7777.....7...90rqqq9rtyr3;***=",
"9q0rrqqrrrq099eqqqq>ia>rrrrqr.....777777..77...rqwrruruyr652:::5",
"2;*:525yr9rytrwrrrq>>>>rrrrqyy9....777777777...rqryqurrryuq54453",
"::-=:r0qeqqqqqqerrr>>>ttttyqqeq....77777777....yrqqqqr5:1111221:",
"41:29435eqqqqqqerrr>>q0rrryyqeq.....777777.....tyrq9;12=3:255554",
"3:22:352q0qq990q9q9>>rryryrqqwr......77777.....rq416qq=:44::44::",
":3553:356qqqrry09q9>>9rrqwrqqryr#.....777......r9554:12544-***=:",
"11:::::qrrrqeqqrrre>>rrr9qqq,,:,<##....7....X.5qqrq2132::2445442",
"::4441:3550qeqq9990q>99qrqq-;;;;<<#-*......XXX44::5554;::;*::**:",
":241::20qq645qrrrqrt>qqqqr:,*--<<<#;::X..XXXXq:::253:;:54::=**=:",
":;::112555340yuurqrqqrqqq%*%&<<<<###2:;XXXX$+::3:2554355543:::::",
"2:;;35:**:2qqerqq55*-**:,*<<<<<##<##:-*%%***@;;55=*=:::::4255444",
"352222:*****=;:13q59-%959<<#<<<####**=*%%@@%42222=*****-::2554::",
":155351::::2:::::23593qrrrq%@@@@-;;;%@$$%%@:35555::::11::::12441",
"45522254:::2111455532459322541::236394553:145322353::113:34555::"
};
