/* XPM */
static char *_7807fd48afe44fcb748e56fa40df159IlsqW8UVRagTFaXq[] = {
/* columns rows colors chars-per-pixel */
"96 128 5 1 ",
"  c #544035",
". c #5E4639",
"X c #674D3F",
"o c #705444",
"O c #775A48",
/* pixels */
"X.XXXXXXXX.......X..X..........XoooooXXooooooooooooXXXXXXooXXXXXX.oooXXooooooooooooXXXXXXooXXXXX",
"...        ...XXX....XX........XoXXoooooOOOOXXXXOooooooooXXXXooo.XXoooooOOOOXXXXOooooooooXXXXooo",
".....     ....X....        .....ooooooXXooOOOoooXXXoXooooooooooo...oooXXooOOOoooXXXoXooooooooooo",
"XXXX..X...X.....XX..    .......XXXXXooooooooooooooooooOOOOOXooOXXXXXooooooooooooooooooOOOOOXooOX",
"XXXXX....XXXXXXXX.  .......XX.XXoooooooOOoXXoooXXXXXOOooXoooXOoooooooooOOoXXoooXXXXXOOooXoooXOoo",
"..XXXX..XXX....XXX..XX.....XXX..XXXoXOOoooooXXooooooooooooooooooXXXoXOOoooooXXoooooooooooooooooo",
"XX....  .....  ...XX...........XOooooooOOOOoooooXXXoooooXXooooooOooooooOOOOoooooXXXoooooXXoooooo",
"XXX..X..     .XXX.ooXX.XXXXXXXXXXXOOOoooooOOOXXXooooOOOooooXXoXXXXOOOoooooOOOXXXooooOOOooooXXoXX",
".XXXXXX....XXXooOo...XXX........XOoooXXXXoooooooOooooooooOOooXooXOoooXXXXoooooooOooooooooOOooXoo",
" ........X..XXX..XX.....        oXoooooooooXXOOOooXXooooOooooooooXoooooooooXXOOOooXXooooOooooooo",
".XXXXX..XXX..XXX..X..XXX..     .ooXoXXXXXooooXXXXooooXOOooooooooooXoXXXXXooooXXXXooooXOOoooooooo",
"X.. .XXX.... .oooX.XX..........XoooooooooooooooooXXXXooooooooooXoooooooooooooooooXXXXooooooooooX",
"XXX. ...XXoooooXoooo.X........XXXXooOOOOXXoooooXooooooXXXXXXXoooXXooOOOOXXoooOOOooooooXXXXXXXooo",
"..    ......OXXoOOO...XXXXXXXXX.ooooooooooOOOXXoOOOooooOOOOoooXXooooooooooOOooooOOOooooOOOOoooXX",
"....        oooooooooX..........OOoOOoOOOXooooooooooooooooooooOOOOoOOoOOOXoooooOooooooooooooooOO",
"... .XX..XXXoXXXXXXoXXXo.XXXXX..XoooooooooXXoXXXXXXoXXXoooOOOOooXoooooooooXXoXXXXXXoXXXoooOOOOoo",
"XX....XX...Xoooo... X...XXXXXXXXoXoooooOOOoooooooooooooooooooOOooXoooooOOOoooooooooooooooooooOOo",
"X.......XX..ooooo  .XXX...XXX...oooOOOOoooooooooooXXXXooXXXXXooooooOOOOoooooooooooXXXXooXXXXXooo",
"...XXX...XXX....XX.X... ...... XooOoXXoooXXXooOOOXooooXXXOOoooooooOoXXoooXXXooOOOXooooXXXOOooooo",
"..XXXXX...XXXOoo..XXXXX.      ..XoooooooooooOOoooooooOOXXXXXXXXXXoooooooooooOOoooooooOOXXXXXXXXX",
".X.........OOOOOXX.....XXXXXXX..ooooXXooooOOOOOOooooooooooooooooooooXXooooOOOOOOoooooooooooooooo",
"............XXX..  ..XX...X...XXooooooXXXXoooXoooooXXXooooooXXooooooooXXXXoooXoooooXXXooooooXXoo",
"...XXXXX...XXXXoX.....   ..    .XXXoooooooooooOoooooooXXXXXXoooXXXXoooooooooooOoooooooXXXXXXoooX",
"...XX......ooooo...XX....     ..ooooooooOOXoooooXXXXooooooooOOOoooooooooOOXoooooXXXXooooooooOOOo",
".XX......XXXXX.  .XXX...........XXXXXOOOooooXXXooooooOOOOOXOoXXXXXXXXOOOooooXXXooooooOOOOOXOoXXX",
".. ....X...XXXXXXXXXXXXX........OooooooooooooooXXXOOOOOOoooooooo.. .oooooooooooXXXOOOOOOoooooooo",
"...   .XX.   ........XX..XXXXXXXXXXXXXXoooXXXXoooooOOOOooXXXXXooX.XXXXXoooXXXXoooooOOOOooXXXXXoo",
"XX.XXXXXXX..  .....  ..XXXX.....oooooooXXooooooooXXoooooXoooooXXXX.XXooXXooooooooXXoooooXoooooXX",
".XX.......         ......XXXX...ooXXXXXOOOoooXXOOOOXXXXXoooXXXoo.XXXXXXOOOoooXXOOOOXXXXXoooXX...",
"...XXX.XX...................XXX.ooooooOooooXOoooooooooooOooooooo...XXX.ooooXOoooooooooooOooooooo",
"..XXXXXXXX......XX.......XXX....oooooXXXXXXXXXXoooooooOOooooXXXX..XXXXXXXXXXXXXoooooooOOooooXX..",
"XXXX.....XXX.......X..XXXXXXX...oXXXXoooOOoooooXXXXXXooooooooooooXXXXoooOOoooooXXXXXXoooooooX...",
"X.XXXXXXXX.......X..X..........XX.XXXXXXXX.......X..X..........XX.XXXXXXXX.......X..X..........X",
"...        ...XXX....XX........X...        ...XXX....XX........XoXX        ...XXX....XX........X",
".....     ....X....        ..........     ....X....        .........ooXX  ....X....        .....",
"XXXX..X...X.....XX..    .......XXXXX..X...X.....XXooooOOOOOXooOXXXXXooooo.X.....XX..    .......X",
"XXXXX....XXXXXXXX.  .......XXOooooXXX....XXXoooXX.  ...oXoooXOoooooooo...XXXXXXXX.  .......XX.XX",
"..XXXX..XXX....XXX..XoooooooooooXXXoXOOoooooXXooooooooooooooooooXXXoXOOooXX....XXX..XX.....XXX..",
"XX....  .....  ...XoooooXXooooooOooooooOOOOoooooXXXoooooXXooooooOooooooOOOOooooo..XX...........X",
"XXX..X..     .XXXoooOOOooooXXoXXXXOOOoooooOOOXXXooooOOOooooXXoXXXXOOOoooooOOOXXXX.ooXX.XXXXXXXXX",
".XXXXXX....XXXooOooooooooOOooXooXOoooXXXXoooooooOooooooooOOooXooXOoooXXXXoooooooOo...XXX........",
" ........X..XXX..XXXooooOooooooooXoooooooooXXOOOooXXooooOooooooooXoooooooooXXOX..XX.....        ",
".XXXXX..XXX..XXX..oooXOOooooooooooXoXXXXXooooXXXXooooXOOooooooooooXoXXXXXooooXXX..X..XXX..     .",
"X.. .XXX.... .oooXXXXooooooooooXoooooooooooooooooXXXXooooooooooXoooooooooooooooooX.XX..........X",
"XXX. ...XXoooooXooooooXXXXXXXoooXXooOOOOXXoooooXooooooXXXXXXXoooXXooOOOOXXoooooXoooo.X........XX",
"..    ......OXXoOOOooooOOOOoooXXooooooooooOOOXXoOOOooooOOOOoooXXooooooooooOOOXXoOOO...XXXXXXXXX.",
"....        ooooooooooooooooooOOOOoOOoOOOXooooooooooooooooooooOOOOoOOoOOOXoooooooooooX..........",
"... .XX..XXXoXXXXXXoXXXoooOOOOooXoooooooooXXoXXXXXXoXXXoooOOOOooXoooooooooXXoXXXXXXoXXXo.XXXXX..",
"XX....XOOOoooooooooooooooooooOOooXoooooOOOoooooooooooooooooooOOooXoooooOOOoooooooooooo..XXXXXXXX",
"X.....OoooooooooooXXXXooXXXXXooooooOOOOoooooooooooXXXXooXXXXXooooooOOOOoooooooooooXXXXo...XXX...",
"...XXXoooXXXooOOOXooooXXXOOoooooooOoXXoooXXXooOOOXooooXXXOOoooooooOoXXoooXXXooOOOXooooXXXO.... X",
"..XoooooooooOOoooooooOOXXXXXXXXXXoooooooooooOOoooooooOOXXXXXXXXXXoooooooooooOOoooooooOOXXXX   ..",
".oooXXooooOOOOOOooooooooooooooooooooXXooooOOOOOOooooooooooooooooooooXXooooOOOOOOoooooooooooooX..",
"...oooXXXXoooXoooooXXXooooooXXooooooooXXXXoooXoooooXXXooooooXXooooooooXXXXoooXoooooXXXooooooX.XX",
"...XXoooooooooOoooooooXXXXXXoooXXXXoooooooooooOoooooooXXXXXXoooXXXXoooooooooooOoooooooXXXXXXo  .",
"...XXoooOOXoooooXXXXooooooooOOOoooooooooOOXoooooXXXXooooooooOOOoooooooooOOXoooooXXXXooooooooOO..",
".XXXXOOOooooXXXooooooOOOOOXOoXXXXXXXXOOOooooXXXooooooOOOOOXOoXXXXXXXXOOOooooXXXooooooOOOOOX.....",
"..oooooooooooooXXXOOOOOOooooooooOooooooooooooooXXXOOOOOOooooooooOooooooooooooooXXXOOOOOOooooooo.",
".XXXXXXoooXXXXoooooOOOOooXXXXXooXXXXXXXoooXXXXoooooOOOOooXXXXXooXXXXXXXoooXXXXoooooOOOOooXXXXXXX",
"XXoooooXXooooooooXXoooooXoooooXXoooooooXXooooooooXXoooooXoooooXXoooooooXXooooooooXXoooooXoo.....",
".XX.XXXOOOoooXXOOOOXXXXXoooXXXooooXXXXXOOOoooXXOOOOXXXXXoooXXXooooXXXXXOOOoooXXOOOOXXXXXoooXX...",
"...XXoOooooXOoooooooooooOoooooooooooooOooooXOoooooooooooOoooooooooooooOooooXOoooooooooooOoo.XXX.",
"..XooXXXXXXXXXXoooooooOOooooXXXXoooooXXXXXXXXXXoooooooOOooooXXXXoooooXXXXXXXXXXoooooooOOoooo....",
"XXXXXoooOOoooooXXXXXXooooooooooooXXXXoooOOoooooXXXXXXooooooooooooXXXXoooOOoooooXXXXXXoooooooooo.",
"X.XXoXXooooooooooooXXXXXXooXXXXXoooooXXooooooooooooXXXXXXooXXXXXoooooXXooooooooooooXXXXXXooX...X",
"...  oooOOOOXXXXOooooooooXXXXooooXXoooooOOOOXXXXOooooooooXXXXooooXXoooooOOOOXXXXOooooooooXXXX..X",
"...oooXXooOOOoooXXXoXoooooooooooooooooXXooOOOoooXXXoXoooooooooooooooooXXooOOOoooXXXoXoooooooooo.",
"XXXX..XoooooooooooooooOOOOOXooOXXXXXooooooooooooooooooOOOOOXooOXXXXXooooooooooooooooooOOOOOXo..X",
"XXXXXooOOoXXoooXXXXXOOooXoooXOoooooooooOOoXXoooXXXXXOOooXoooXOoooooooooOOoXXoooXXXXXOOooXoooX.XX",
"..XoXOOoooooXXooooooooooooooooooXXXoXOOoooooXXooooooooooooooooooXXXoXOOoooooXXoooooooooooooooX..",
"XXoooooOOOOoooooXXXoooooXXooooooOooooooOOOOoooooXXXoooooXXooooooOooooooOOOOoooooXXXoooooXXo....X",
"XXX..oooooOOOXXXooooOOOooooXXoXXXXOOOoooooOOOXXXooooOOOooooXXoXXXXOOOoooooOOOXXXooooOOOooooXXXXX",
".XXXoXXXXoooooooOooooooooOOooXooXOoooXXXXoooooooOooooooooOOooXooXOoooXXXXoooooooOooooooooOOo....",
" .......oooXXOOOooXXooooOooooooooXoooooooooXXOOOooXXooooOooooooooXoooooooooXXOOOooXXoooo        ",
".XXXXX..XooooXXXXooooXOOooooooooooXoXXXXXooooXXXXooooXOOooooooooooXoXXXXXooooXXXXooooXOX..     .",
"X.. .XXX...ooooooXXXXooooooooooXoooooooooooooooooXXXXooooooooooXoooooooooooooooooXXXXooo.......X",
"XXX. ...XXoooooXooooooXXXXXXXoooXXooOOOOXXoooooXooooooXXXXXXXoooXXooOOOOXXoooooXoooooo........XX",
"..    .oooOOOXXoOOOooooOOOOoooXXooooooooooOOOXXoOOOooooOOOOoooXXooooooooooOOOXXoOOOooooOXXXXXXX.",
".... oOOOXooooooooooooooooooooOOOOoOOoOOOXooooooooooooooooooooOOOOoOOoOOOXoooooooooooooooo......",
"...oooooooXXoXXXXXXoXXXoooOOOOooXoooooooooXXoXXXXXXoXXXoooOOOOooXoooooooooXXoXXXXXXoXXXooXXXXX..",
"XX..oooOOOoooooooooooooooooooOOooXoooooOOOoooooooooooooooooooOOooXoooooOOOoooooooooooooooooXXXXX",
"X.....OoooooooooooXXXXooXXXXXooooooOOOOoooooooooooXXXXooXXXXXooooooOOOOoooooooooooXXXXooX.XXX...",
"...XXX.ooXXXooOOOXooooXXXOOoooooooOoXXoooXXXooOOOXooooXXXOOoooooooOoXXoooXXXooOOOXoooo. ...... X",
"..XXXXooooooOOoooooooOOXXXXXXXXXXoooooooooooOOoooooooOOXXXXXXXXXXoooooooooooOOooooooXXX.      ..",
".X.......oOOOOOOooooooooooooooooooooXXooooOOOOOOooooooooooooooooooooXXooooOOOOOOooooo..XXXXXXX..",
"........XXoooXoooooXXXooooooXXooooooooXXXXoooXoooooXXXooooooXXooooooooXXXXoooXoooo ..XX...X...XX",
"...XXXXoooooooOoooooooXXXXXXoooXXXXoooooooooooOoooooooXXXXXXoooXXXXoooooooooooOoooo...   ..    .",
"...XX....OXoooooXXXXooooooooOOOoooooooooOOXoooooXXXXooooooooOOOoooooooooOOXoooooXXXXo....     ..",
".XX.....ooooXXXooooooOOOOOXOoXXXXXXXXOOOooooXXXooooooOOOOOXOoXXXXXXXXOOOooooXXXooooooOOOO.......",
".. ...oooooooooXXXOOOOOOooooooooOooooooooooooooXXXOOOOOOooooooooOooooooooooooooXXXOOOOOOooo.....",
"...   .oooXXXXoooooOOOOooXXXXXooXXXXXXXoooXXXXoooooOOOOooXXXXXooXXXXXXXoooXXXXoooooOOOX..XXXXXXX",
"XX.XXXoXXooooooooXXoooooXoooooXXoooooooXXooooooooXXoooooXoooooXXoooooooXXooooooooXXoooooXXX.....",
".XXXXXXOOOoooXXOOOOXXXXXoooXXXooooXXXXXOOOoooXXOOOOXXXXXoooXXXooooXXXXXOOOoooXXOOOOXXXXXoooXX...",
"...XXoOooooXOoooooooooooOoooooooooooooOooooXOoooooooooooOoooooooooooooOooooXOooooooooooo....XXX.",
"..XXXXXXXXXXXXXoooooooOOooooXXXXoooooXXXXXXXXXXoooooooOOooooXXXXoooooXXXXXXXXXXooooooo...XXX....",
"XXXX.oooOOoooooXXXXXXooooooooooooXXXXoooOOoooooXXXXXXooooooooooooXXXXoooOOoooooXXXXXXooXXXXXX...",
"X.XooXXooooooooooooXXXXXXooXXXXXoooooXXooooooooooooXXXXXXooXXXXXoooooXXooooooooooooXXXXXXO.....X",
"..XoooooOOOOXXXXOooooooooXXXXooooXXoooooOOOOXXXXOooooooooXXXXooooXXoooooOOOOXXXXOoooooooo......X",
"....ooXXooOOOoooXXXoXoooooooooooooooooXXooOOOoooXXXoXoooooooooooooooooXXooOOOoooXXXoXoooOOO.....",
"XXXXooooooooooooooooooOOOOOXooOXXXXXooooooooooooooooooOOOOOXooOXXXXXooooooooooooooooooOOOOOX...X",
"XXXXXooOOoXXoooXXXXXOOooXoooXOoooooooooOOoXXoooXXXXXOOooXoooXOoooooooooOOoXXoooXXXXXOOo....XX.XX",
"..XXXXOoooooXXooooooooooooooooooXXXoXOOoooooXXooooooooooooooooooXXXoXOOoooooXXoooooooo.....XXX..",
"XX...ooOOOOoooooXXXoooooXXooooooOooooooOOOOoooooXXXoooooXXooooooOooooooOOOOoooooXXXoooo........X",
"XXX.OoooooOOOXXXooooOOOooooXXoXXXXOOOoooooOOOXXXooooOOOooooXXoXXXXOOOoooooOOOXXXooooOOOooXXXXXXX",
".XXXXXX..oooooooOooooooooOOooXooXOoooXXXXoooooooOooooooooOOooXooXOoooXXXXoooooooOoooooOX........",
" .......oooXXOOOooXXooooOooooooooXoooooooooXXOOOooXXooooOooooooooXoooooooooXXOOOoooooo..        ",
".XXXXX.XXooooXXXXooooXOOooooooooooXoXXXXXooooXXXXooooXOOooooooooooXoXXXXXooooXXXXooOOOOX..     .",
"XooooooooooooooooXXXXooooooooooXoooooooooooooooooXXXXooooooooooXooooooooooooooOOoOOOoo.........X",
"XXX. OOOXXoooooXooooooXXXXXXXoooXXooOOOOXXoooooXooooooXXXXXXXoooXXooOOOOXXooOOOOOOOoooOOO.....XX",
"..    ....OOOXXoOOOooooOOOOoooXXooooooooooOOOXXoOOOooooOOOOoooXXooooooooooOOOXOOooooOOOXXXXXXXX.",
"....    OXooooooooooooooooooooOOOOoOOoOOOXooooooooooooooooooooOOOOoOOoOOOXooooooOX...X..........",
"... .XooooXXoXXXXXXoXXXoooOOOOooXoooooooooXXoXXXXXXoXXXoooOOOOooXoooooooooXXoXX.XXX....X.XXXXX..",
"XX....XX...XoooooooooooooooooOOooXoooooOOOoooooooooooooooooooOOooXoooooOOOoooX .... X...XXXXXXXX",
"X.......XX..ooooooXXXXooXXXXXooooooOOOOoooooooooooXXXXooXXXXXooooooOOOOooo...oooo  .XXX...XXX...",
"...XXX...XXX....OXooooXXXOOoooooooOoXXoooXXXooOOOXooooXXXOOoooooooOoXXoo.XXX....XX.X... ...... X",
"..XXXXX...XXXOoooooooOOXXXXXXXXXXoooooooooooOOoooooooOOXXXXXXXXXXoooooooo.XXXX....XXXXX.      ..",
".X.........OOOOOooooooooooooooooooooXXooooOOOOOOooooooooooooooooooooXXooooOO....XX.....XXXXXXX..",
"............XXX..ooXXXooooooXXooooooooXXXXoooXoooooXXXooooooXXooo...........XXX..  ..XX...X...XX",
"...XXXXX...XXXXoooooooXXXXXXoooXXXXoooooooooooOoooooooXXXXXXoooXXXXXXXXX...XXXXXX.....   ..    .",
"...XX......oooooXXXXooooooooOOOoooooooooOOXoooooXXXXooooooooOOOoooooo......XX......XX....     ..",
".XX......XXXXX.  .XXoOOOOOXOoXXXXXXXXOOOooooXXXooooooOOOOOXOoXXXXXX......XXXXX.  .XXX...........",
".. ....X...XXXXXXXXOOOOOooooooooOoooo..X...ooooXXXOOOOOOooooooo... ....X...XXXXXXXXXXXXX........",
"...   .XX.   ...oooOOOOooXXXXXooXXX  XXoooXXXXoooooOOOOooXXXXXooXX.   .XX.   ........XX..XXXXXXX",
"XX.XXXXXXX..  .....  ..XXXX.ooXXoo.XoXXXXooooooooXXoooooXoX.....XX.XXXXXXX..  .....  ..XXXX.....",
".XX.......         ......XoXXXoo.XXXXXXO..  oXXOOOOXXXXXoXXXX....XX.......         ......XXXX...",
"...XXX.XX...................XXXo.oooooOoX.......oooooo......XXX....XXX.XX...................XXX.",
"..XXXXXXXX......XX.......XXXXXXX..oooXXXXX......XXooooO..XXX......XXXXXXXX......XX.......XXX....",
"XXXX.....XXX.......X..XXXXXXX...XXXX.....XXX.......X..XXXXXXX...XXXX.....XXX.......X..XXXXXXX..."
};
